  0
SECTION
  2
HEADER
  9
$ACADVER
  1
AC1006
  9
$EXTMIN
 10
0.000000
 20
0.000000
 30
0.000000
  9
$EXTMAX
 10
3333.000000
 20
3333.000000
 30
0.000000
  0
ENDSEC
  0
SECTION
  2
ENTITIES
  0
POLYLINE
  8
0
 66
1
 70
1
  0
VERTEX
  8
0
 10
848.000000
 20
2740.293357
 42
0.016689
  0
VERTEX
  8
0
 10
840.048339
 20
2738.636968
 42
0.004659
  0
VERTEX
  8
0
 10
827.724489
 20
2735.515582
 42
0.004779
  0
VERTEX
  8
0
 10
815.357532
 20
2732.133646
 42
0.014316
  0
VERTEX
  8
0
 10
807.000000
 20
2729.501344
 42
0.017244
  0
VERTEX
  8
0
 10
796.685045
 20
2725.521435
 42
0.012983
  0
VERTEX
  8
0
 10
785.627611
 20
2720.467829
 42
0.013008
  0
VERTEX
  8
0
 10
774.878911
 20
2714.862867
 42
0.017637
  0
VERTEX
  8
0
 10
765.500000
 20
2709.216000
 42
0.031038
  0
VERTEX
  8
0
 10
747.086123
 20
2695.526768
 42
0.026884
  0
VERTEX
  8
0
 10
729.554612
 20
2679.027081
 42
0.025884
  0
VERTEX
  8
0
 10
713.248367
 20
2660.063545
 42
0.023824
  0
VERTEX
  8
0
 10
698.501448
 20
2639.000000
 42
0.018887
  0
VERTEX
  8
0
 10
691.427851
 20
2626.798830
 42
0.007473
  0
VERTEX
  8
0
 10
682.599723
 20
2609.534148
 42
0.007519
  0
VERTEX
  8
0
 10
673.882181
 20
2591.145661
 42
0.011662
  0
VERTEX
  8
0
 10
666.973288
 20
2575.000000
 42
-0.009573
  0
VERTEX
  8
0
 10
660.368798
 20
2559.385712
 42
-0.008369
  0
VERTEX
  8
0
 10
652.879793
 20
2543.313219
 42
-0.006400
  0
VERTEX
  8
0
 10
645.793766
 20
2529.209237
 42
-0.060613
  0
VERTEX
  8
0
 10
641.985746
 20
2523.636546
 42
-0.078762
  0
VERTEX
  8
0
 10
633.552519
 20
2516.632766
 42
-0.008971
  0
VERTEX
  8
0
 10
611.974902
 20
2504.337739
 42
-0.007183
  0
VERTEX
  8
0
 10
578.629868
 20
2486.739343
 42
-0.001741
  0
VERTEX
  8
0
 10
523.000000
 20
2458.637466
 42
0.001401
  0
VERTEX
  8
0
 10
479.632791
 20
2436.767129
 42
0.002853
  0
VERTEX
  8
0
 10
445.709745
 20
2419.295958
 42
0.003494
  0
VERTEX
  8
0
 10
419.643490
 20
2405.449790
 42
0.010314
  0
VERTEX
  8
0
 10
402.000000
 20
2395.443526
 42
0.020578
  0
VERTEX
  8
0
 10
379.261431
 20
2380.621115
 42
0.016138
  0
VERTEX
  8
0
 10
355.843286
 20
2362.777573
 42
0.016435
  0
VERTEX
  8
0
 10
335.085165
 20
2344.708628
 42
0.037406
  0
VERTEX
  8
0
 10
320.972237
 20
2329.465110
 42
0.037176
  0
VERTEX
  8
0
 10
314.655095
 20
2320.187862
 42
0.057269
  0
VERTEX
  8
0
 10
310.797366
 20
2311.289668
 42
0.062018
  0
VERTEX
  8
0
 10
309.246122
 20
2302.295540
 42
0.053978
  0
VERTEX
  8
0
 10
309.828594
 20
2292.748727
 42
0.089454
  0
VERTEX
  8
0
 10
316.424154
 20
2274.523023
 42
0.046970
  0
VERTEX
  8
0
 10
330.464233
 20
2254.836700
 42
0.033173
  0
VERTEX
  8
0
 10
353.166989
 20
2231.874403
 42
0.012768
  0
VERTEX
  8
0
 10
387.500000
 20
2203.001489
 42
-0.012804
  0
VERTEX
  8
0
 10
411.516538
 20
2182.801391
 42
-0.027891
  0
VERTEX
  8
0
 10
428.614787
 20
2165.863933
 42
-0.021939
  0
VERTEX
  8
0
 10
446.037745
 20
2144.774601
 42
-0.005359
  0
VERTEX
  8
0
 10
472.815055
 20
2108.500000
 42
0.004234
  0
VERTEX
  8
0
 10
507.401919
 20
2061.424714
 42
0.015242
  0
VERTEX
  8
0
 10
530.610568
 20
2032.286034
 42
0.023160
  0
VERTEX
  8
0
 10
549.674700
 20
2011.797034
 42
0.028648
  0
VERTEX
  8
0
 10
569.307191
 20
1994.653729
 42
0.020577
  0
VERTEX
  8
0
 10
590.722487
 20
1979.384942
 42
0.015478
  0
VERTEX
  8
0
 10
615.427736
 20
1964.330125
 42
0.014857
  0
VERTEX
  8
0
 10
642.237436
 20
1950.146305
 42
0.014594
  0
VERTEX
  8
0
 10
670.000000
 20
1937.490244
 42
-0.000590
  0
VERTEX
  8
0
 10
698.636490
 20
1925.392518
 42
-0.002884
  0
VERTEX
  8
0
 10
714.789460
 20
1918.435928
 42
-0.004879
  0
VERTEX
  8
0
 10
726.388989
 20
1913.225437
 42
-0.005395
  0
VERTEX
  8
0
 10
737.500000
 20
1907.957430
 42
-0.027157
  0
VERTEX
  8
0
 10
754.856612
 20
1898.298355
 42
-0.034336
  0
VERTEX
  8
0
 10
769.685291
 20
1887.469010
 42
-0.033214
  0
VERTEX
  8
0
 10
783.267640
 20
1874.408327
 42
-0.022992
  0
VERTEX
  8
0
 10
796.881790
 20
1858.000000
 42
-0.018826
  0
VERTEX
  8
0
 10
810.133011
 20
1838.998902
 42
-0.014295
  0
VERTEX
  8
0
 10
823.251968
 20
1817.248493
 42
-0.009900
  0
VERTEX
  8
0
 10
838.972988
 20
1788.081024
 42
-0.003157
  0
VERTEX
  8
0
 10
861.230291
 20
1744.072854
 42
0.000000
  0
VERTEX
  8
0
 10
885.339806
 20
1695.645709
 42
0.000000
  0
VERTEX
  8
0
 10
882.532755
 20
1687.572854
 42
-0.007871
  0
VERTEX
  8
0
 10
872.469729
 20
1660.037520
 42
-0.001737
  0
VERTEX
  8
0
 10
854.305243
 20
1613.148949
 42
-0.001896
  0
VERTEX
  8
0
 10
835.297034
 20
1565.121317
 42
-0.004746
  0
VERTEX
  8
0
 10
820.956700
 20
1530.248943
 42
0.000000
  0
VERTEX
  8
0
 10
815.782297
 20
1517.997886
 42
0.000000
  0
VERTEX
  8
0
 10
807.641148
 20
1515.528806
 42
-0.018721
  0
VERTEX
  8
0
 10
786.802888
 20
1510.051613
 42
-0.005084
  0
VERTEX
  8
0
 10
753.463894
 20
1502.965729
 42
-0.005291
  0
VERTEX
  8
0
 10
716.756849
 20
1495.956662
 42
-0.006887
  0
VERTEX
  8
0
 10
683.000000
 20
1490.359282
 42
-0.026179
  0
VERTEX
  8
0
 10
668.233721
 20
1488.904549
 42
-0.011490
  0
VERTEX
  8
0
 10
648.580500
 20
1488.454868
 42
-0.011174
  0
VERTEX
  8
0
 10
629.348073
 20
1488.886669
 42
-0.034936
  0
VERTEX
  8
0
 10
616.500000
 20
1490.366031
 42
-0.022438
  0
VERTEX
  8
0
 10
600.624757
 20
1494.072229
 42
-0.017193
  0
VERTEX
  8
0
 10
583.645395
 20
1499.485013
 42
-0.013756
  0
VERTEX
  8
0
 10
563.706059
 20
1507.230073
 42
-0.006570
  0
VERTEX
  8
0
 10
538.500000
 20
1518.219689
 42
0.004982
  0
VERTEX
  8
0
 10
500.259150
 20
1535.037129
 42
0.023107
  0
VERTEX
  8
0
 10
477.662032
 20
1543.495077
 42
0.038357
  0
VERTEX
  8
0
 10
460.472740
 20
1547.615495
 42
0.039669
  0
VERTEX
  8
0
 10
443.049495
 20
1549.000000
 42
0.056100
  0
VERTEX
  8
0
 10
422.986373
 20
1546.741795
 42
0.080435
  0
VERTEX
  8
0
 10
406.430450
 20
1540.038909
 42
0.089201
  0
VERTEX
  8
0
 10
394.052084
 20
1529.113112
 42
0.087750
  0
VERTEX
  8
0
 10
386.169833
 20
1514.500000
 42
0.045867
  0
VERTEX
  8
0
 10
383.994032
 20
1505.120545
 42
0.037231
  0
VERTEX
  8
0
 10
383.355748
 20
1494.813181
 42
0.038434
  0
VERTEX
  8
0
 10
384.233054
 20
1485.027305
 42
0.067445
  0
VERTEX
  8
0
 10
386.638189
 20
1477.277587
 42
0.077437
  0
VERTEX
  8
0
 10
389.980271
 20
1472.288003
 42
0.014800
  0
VERTEX
  8
0
 10
397.632975
 20
1464.464144
 42
0.016684
  0
VERTEX
  8
0
 10
406.119873
 20
1456.815507
 42
0.036293
  0
VERTEX
  8
0
 10
413.213908
 20
1451.669451
 42
0.046638
  0
VERTEX
  8
0
 10
425.160534
 20
1445.723551
 42
0.064208
  0
VERTEX
  8
0
 10
436.793903
 20
1442.872226
 42
0.058661
  0
VERTEX
  8
0
 10
449.551575
 20
1442.936883
 42
0.031802
  0
VERTEX
  8
0
 10
464.991418
 20
1445.839706
 42
-0.028829
  0
VERTEX
  8
0
 10
481.092019
 20
1448.965914
 42
-0.039604
  0
VERTEX
  8
0
 10
495.811840
 20
1449.775923
 42
-0.040808
  0
VERTEX
  8
0
 10
510.126790
 20
1448.256237
 42
-0.033579
  0
VERTEX
  8
0
 10
525.000000
 20
1444.387610
 42
-0.028657
  0
VERTEX
  8
0
 10
537.820834
 20
1439.283154
 42
-0.019316
  0
VERTEX
  8
0
 10
551.832443
 20
1432.080451
 42
-0.019473
  0
VERTEX
  8
0
 10
564.962277
 20
1423.987140
 42
-0.034334
  0
VERTEX
  8
0
 10
575.021963
 20
1416.180123
 42
0.000000
  0
VERTEX
  8
0
 10
579.500000
 20
1412.183777
 42
0.000000
  0
VERTEX
  8
0
 10
576.500000
 20
1409.005081
 42
-0.115121
  0
VERTEX
  8
0
 10
563.507617
 20
1400.398281
 42
-0.014052
  0
VERTEX
  8
0
 10
530.946296
 20
1389.327296
 42
-0.014320
  0
VERTEX
  8
0
 10
487.486860
 20
1377.252597
 42
-0.007386
  0
VERTEX
  8
0
 10
432.500000
 20
1364.517318
 42
0.004186
  0
VERTEX
  8
0
 10
376.071056
 20
1351.828068
 42
0.013898
  0
VERTEX
  8
0
 10
339.288986
 20
1342.147288
 42
0.020175
  0
VERTEX
  8
0
 10
311.352451
 20
1332.718760
 42
0.022702
  0
VERTEX
  8
0
 10
285.370560
 20
1321.388057
 42
0.020781
  0
VERTEX
  8
0
 10
266.420728
 20
1311.080267
 42
0.029022
  0
VERTEX
  8
0
 10
250.479095
 20
1300.226088
 42
0.033276
  0
VERTEX
  8
0
 10
238.240794
 20
1289.441813
 42
0.071966
  0
VERTEX
  8
0
 10
230.782909
 20
1279.388630
 42
0.109271
  0
VERTEX
  8
0
 10
225.246093
 20
1259.906492
 42
0.096512
  0
VERTEX
  8
0
 10
228.053988
 20
1238.952075
 42
0.095326
  0
VERTEX
  8
0
 10
238.585099
 20
1220.374774
 42
0.103479
  0
VERTEX
  8
0
 10
255.000000
 20
1207.667024
 42
0.040610
  0
VERTEX
  8
0
 10
266.353004
 20
1203.245509
 42
0.044927
  0
VERTEX
  8
0
 10
277.894858
 20
1200.900854
 42
0.048215
  0
VERTEX
  8
0
 10
288.851929
 20
1200.744519
 42
0.066387
  0
VERTEX
  8
0
 10
298.460866
 20
1202.839538
 42
0.051975
  0
VERTEX
  8
0
 10
307.314357
 20
1207.128326
 42
0.040261
  0
VERTEX
  8
0
 10
315.942165
 20
1213.491158
 42
0.021476
  0
VERTEX
  8
0
 10
327.369579
 20
1224.327689
 42
0.003785
  0
VERTEX
  8
0
 10
347.777881
 20
1245.739104
 42
-0.006510
  0
VERTEX
  8
0
 10
353.354486
 20
1251.526338
 42
-0.006335
  0
VERTEX
  8
0
 10
359.130007
 20
1257.219777
 42
-0.006266
  0
VERTEX
  8
0
 10
364.330705
 20
1262.094328
 42
-0.023370
  0
VERTEX
  8
0
 10
367.777881
 20
1264.961341
 42
-0.053650
  0
VERTEX
  8
0
 10
385.271310
 20
1275.443681
 42
-0.024998
  0
VERTEX
  8
0
 10
409.833348
 20
1285.329907
 42
-0.022736
  0
VERTEX
  8
0
 10
438.907643
 20
1293.917804
 42
-0.018876
  0
VERTEX
  8
0
 10
470.500000
 20
1300.453528
 42
-0.010566
  0
VERTEX
  8
0
 10
495.536206
 20
1304.112528
 42
-0.013316
  0
VERTEX
  8
0
 10
518.845371
 20
1306.389123
 42
-0.011800
  0
VERTEX
  8
0
 10
544.367626
 20
1307.592911
 42
-0.005999
  0
VERTEX
  8
0
 10
576.500000
 20
1307.963549
 42
0.000000
  0
VERTEX
  8
0
 10
612.500000
 20
1307.946877
 42
0.000000
  0
VERTEX
  8
0
 10
619.716853
 20
1297.223438
 42
-0.012319
  0
VERTEX
  8
0
 10
625.018817
 20
1288.910291
 42
-0.017671
  0
VERTEX
  8
0
 10
629.266864
 20
1281.275749
 42
-0.017617
  0
VERTEX
  8
0
 10
632.254690
 20
1274.882696
 42
-0.100742
  0
VERTEX
  8
0
 10
632.999211
 20
1271.231513
 42
-0.082173
  0
VERTEX
  8
0
 10
631.984849
 20
1265.087824
 42
-0.002428
  0
VERTEX
  8
0
 10
623.414905
 20
1240.267596
 42
-0.005473
  0
VERTEX
  8
0
 10
614.445971
 20
1215.564274
 42
-0.011467
  0
VERTEX
  8
0
 10
606.823679
 20
1196.598846
 42
-0.012348
  0
VERTEX
  8
0
 10
600.309117
 20
1182.385779
 42
-0.041352
  0
VERTEX
  8
0
 10
595.069171
 20
1173.587049
 42
-0.050294
  0
VERTEX
  8
0
 10
589.026931
 20
1166.701941
 42
-0.025421
  0
VERTEX
  8
0
 10
580.182851
 20
1159.265189
 42
0.049129
  0
VERTEX
  8
0
 10
569.204706
 20
1149.109135
 42
0.056303
  0
VERTEX
  8
0
 10
560.979237
 20
1137.430326
 42
0.062076
  0
VERTEX
  8
0
 10
556.197720
 20
1125.358541
 42
0.092016
  0
VERTEX
  8
0
 10
555.408157
 20
1114.036307
 42
0.071617
  0
VERTEX
  8
0
 10
559.436062
 20
1098.702770
 42
0.070934
  0
VERTEX
  8
0
 10
567.634037
 20
1085.072952
 42
0.071365
  0
VERTEX
  8
0
 10
579.262284
 20
1074.344450
 42
0.073979
  0
VERTEX
  8
0
 10
593.301622
 20
1067.475937
 42
0.065291
  0
VERTEX
  8
0
 10
606.989614
 20
1065.028785
 42
0.063777
  0
VERTEX
  8
0
 10
620.959485
 20
1066.160949
 42
0.063694
  0
VERTEX
  8
0
 10
634.209450
 20
1070.780448
 42
0.064808
  0
VERTEX
  8
0
 10
645.784743
 20
1078.566276
 42
0.055023
  0
VERTEX
  8
0
 10
651.312641
 20
1084.628730
 42
0.082662
  0
VERTEX
  8
0
 10
654.511749
 20
1091.014516
 42
0.045772
  0
VERTEX
  8
0
 10
656.521418
 20
1100.536779
 42
0.007106
  0
VERTEX
  8
0
 10
658.490552
 20
1119.716996
 42
-0.010926
  0
VERTEX
  8
0
 10
660.676758
 20
1139.521077
 42
-0.029147
  0
VERTEX
  8
0
 10
663.360817
 20
1153.471673
 42
-0.031141
  0
VERTEX
  8
0
 10
667.538050
 20
1166.484665
 42
-0.014063
  0
VERTEX
  8
0
 10
674.535553
 20
1182.989214
 42
-0.042498
  0
VERTEX
  8
0
 10
700.236854
 20
1228.501198
 42
-0.058069
  0
VERTEX
  8
0
 10
731.080090
 20
1264.022652
 42
-0.046994
  0
VERTEX
  8
0
 10
774.186347
 20
1296.510682
 42
-0.018051
  0
VERTEX
  8
0
 10
839.500000
 20
1333.546089
 42
-0.009482
  0
VERTEX
  8
0
 10
856.258922
 20
1341.865361
 42
-0.030013
  0
VERTEX
  8
0
 10
867.880093
 20
1346.531278
 42
-0.030360
  0
VERTEX
  8
0
 10
879.905716
 20
1349.744410
 42
-0.009879
  0
VERTEX
  8
0
 10
898.000000
 20
1353.048838
 42
0.007659
  0
VERTEX
  8
0
 10
913.812197
 20
1355.864004
 42
0.017020
  0
VERTEX
  8
0
 10
925.734955
 20
1358.599671
 42
0.021374
  0
VERTEX
  8
0
 10
935.538945
 20
1361.657379
 42
0.024336
  0
VERTEX
  8
0
 10
944.620443
 20
1365.430011
 42
0.025353
  0
VERTEX
  8
0
 10
955.837604
 20
1371.457639
 42
0.031452
  0
VERTEX
  8
0
 10
965.570924
 20
1378.212195
 42
0.030387
  0
VERTEX
  8
0
 10
974.639605
 20
1386.332806
 42
0.021270
  0
VERTEX
  8
0
 10
983.863387
 20
1396.491331
 42
0.031726
  0
VERTEX
  8
0
 10
998.063821
 20
1415.916760
 42
0.019025
  0
VERTEX
  8
0
 10
1012.511684
 20
1440.588384
 42
0.018463
  0
VERTEX
  8
0
 10
1025.696515
 20
1467.551730
 42
0.021627
  0
VERTEX
  8
0
 10
1036.114416
 20
1494.046703
 42
-0.007352
  0
VERTEX
  8
0
 10
1039.741100
 20
1504.103964
 42
-0.039784
  0
VERTEX
  8
0
 10
1042.213208
 20
1509.350692
 42
-0.084798
  0
VERTEX
  8
0
 10
1044.448531
 20
1512.064390
 42
-0.180051
  0
VERTEX
  8
0
 10
1046.962487
 20
1513.000000
 42
-0.098884
  0
VERTEX
  8
0
 10
1051.429654
 20
1512.107813
 42
-0.018939
  0
VERTEX
  8
0
 10
1058.976618
 20
1508.627161
 42
-0.013619
  0
VERTEX
  8
0
 10
1069.865333
 20
1502.717626
 42
-0.003777
  0
VERTEX
  8
0
 10
1086.617527
 20
1492.856533
 42
0.007062
  0
VERTEX
  8
0
 10
1131.241851
 20
1466.981870
 42
0.020443
  0
VERTEX
  8
0
 10
1163.063301
 20
1450.799430
 42
0.018251
  0
VERTEX
  8
0
 10
1197.997366
 20
1436.313774
 42
0.004727
  0
VERTEX
  8
0
 10
1255.287146
 20
1415.587821
 42
-0.010651
  0
VERTEX
  8
0
 10
1319.230837
 20
1391.594328
 42
-0.034325
  0
VERTEX
  8
0
 10
1360.130639
 20
1371.893171
 42
-0.044436
  0
VERTEX
  8
0
 10
1392.023386
 20
1349.776379
 42
-0.029223
  0
VERTEX
  8
0
 10
1424.619203
 20
1319.191826
 42
0.000000
  0
VERTEX
  8
0
 10
1436.289266
 20
1306.883653
 42
0.000000
  0
VERTEX
  8
0
 10
1427.233336
 20
1288.191826
 42
0.014832
  0
VERTEX
  8
0
 10
1416.999255
 20
1265.366708
 42
0.009622
  0
VERTEX
  8
0
 10
1406.469108
 20
1238.424826
 42
0.006778
  0
VERTEX
  8
0
 10
1393.821164
 20
1202.645767
 42
0.002325
  0
VERTEX
  8
0
 10
1376.448945
 20
1150.500000
 42
-0.002481
  0
VERTEX
  8
0
 10
1355.690085
 20
1088.253425
 42
-0.009553
  0
VERTEX
  8
0
 10
1341.860918
 20
1049.888115
 42
-0.015163
  0
VERTEX
  8
0
 10
1330.566003
 20
1022.826157
 42
-0.023760
  0
VERTEX
  8
0
 10
1319.074045
 20
1000.382389
 42
-0.029152
  0
VERTEX
  8
0
 10
1304.351974
 20
977.863926
 42
-0.049045
  0
VERTEX
  8
0
 10
1289.216177
 20
961.131037
 42
-0.058507
  0
VERTEX
  8
0
 10
1273.355110
 20
949.793797
 42
-0.073873
  0
VERTEX
  8
0
 10
1256.471311
 20
943.511439
 42
-0.040300
  0
VERTEX
  8
0
 10
1246.501823
 20
942.226448
 42
-0.040343
  0
VERTEX
  8
0
 10
1236.458982
 20
942.558110
 42
-0.034175
  0
VERTEX
  8
0
 10
1225.241409
 20
944.622300
 42
-0.017838
  0
VERTEX
  8
0
 10
1211.599535
 20
948.633441
 42
-0.038928
  0
VERTEX
  8
0
 10
1185.802479
 20
959.523832
 42
-0.022808
  0
VERTEX
  8
0
 10
1156.740549
 20
976.275031
 42
-0.022850
  0
VERTEX
  8
0
 10
1129.924484
 20
995.184725
 42
-0.047855
  0
VERTEX
  8
0
 10
1111.362687
 20
1012.668877
 42
-0.008676
  0
VERTEX
  8
0
 10
1106.175228
 20
1018.799009
 42
-0.025997
  0
VERTEX
  8
0
 10
1102.929750
 20
1023.222679
 42
-0.022855
  0
VERTEX
  8
0
 10
1099.946066
 20
1028.253938
 42
-0.005532
  0
VERTEX
  8
0
 10
1095.490832
 20
1036.842801
 42
0.073000
  0
VERTEX
  8
0
 10
1080.867759
 20
1057.623729
 42
0.111281
  0
VERTEX
  8
0
 10
1062.614013
 20
1069.851310
 42
0.119619
  0
VERTEX
  8
0
 10
1041.882509
 20
1072.571342
 42
0.093287
  0
VERTEX
  8
0
 10
1020.065225
 20
1065.973123
 42
0.047366
  0
VERTEX
  8
0
 10
1007.696948
 20
1057.968750
 42
0.052142
  0
VERTEX
  8
0
 10
997.488701
 20
1048.005884
 42
0.054485
  0
VERTEX
  8
0
 10
989.931198
 20
1036.583404
 42
0.061736
  0
VERTEX
  8
0
 10
985.399798
 20
1024.258932
 42
0.081193
  0
VERTEX
  8
0
 10
984.609497
 20
1012.478840
 42
0.082806
  0
VERTEX
  8
0
 10
987.627608
 20
1001.146185
 42
0.077878
  0
VERTEX
  8
0
 10
994.382937
 20
990.856841
 42
0.061299
  0
VERTEX
  8
0
 10
1004.490603
 20
982.134658
 42
0.034898
  0
VERTEX
  8
0
 10
1012.738963
 20
977.414833
 42
0.042143
  0
VERTEX
  8
0
 10
1021.069582
 20
974.224524
 42
0.036451
  0
VERTEX
  8
0
 10
1030.751944
 20
972.174708
 42
0.018053
  0
VERTEX
  8
0
 10
1043.257009
 20
970.924400
 42
-0.008967
  0
VERTEX
  8
0
 10
1053.518907
 20
970.086362
 42
-0.033005
  0
VERTEX
  8
0
 10
1059.937551
 20
969.014897
 42
-0.045082
  0
VERTEX
  8
0
 10
1065.075521
 20
967.303701
 42
-0.029632
  0
VERTEX
  8
0
 10
1070.634793
 20
964.473874
 42
-0.068399
  0
VERTEX
  8
0
 10
1081.916966
 20
955.596404
 42
-0.011798
  0
VERTEX
  8
0
 10
1100.379905
 20
935.535452
 42
-0.005257
  0
VERTEX
  8
0
 10
1119.045053
 20
913.812553
 42
-0.389221
  0
VERTEX
  8
0
 10
1118.860498
 20
909.527165
 42
-0.278704
  0
VERTEX
  8
0
 10
1117.228031
 20
909.124582
 42
-0.003422
  0
VERTEX
  8
0
 10
1106.484216
 20
912.550388
 42
-0.007845
  0
VERTEX
  8
0
 10
1092.818173
 20
917.249776
 42
-0.003257
  0
VERTEX
  8
0
 10
1074.500000
 20
924.007339
 42
0.005079
  0
VERTEX
  8
0
 10
1040.386122
 20
936.450953
 42
0.017893
  0
VERTEX
  8
0
 10
1018.108565
 20
943.435824
 42
0.027406
  0
VERTEX
  8
0
 10
1001.259711
 20
947.084338
 42
0.039020
  0
VERTEX
  8
0
 10
986.000000
 20
948.314679
 42
0.042481
  0
VERTEX
  8
0
 10
971.879373
 20
947.147654
 42
0.053135
  0
VERTEX
  8
0
 10
959.226887
 20
943.597685
 42
0.041938
  0
VERTEX
  8
0
 10
945.480692
 20
936.726442
 42
0.015880
  0
VERTEX
  8
0
 10
927.500000
 20
924.968553
 42
-0.022006
  0
VERTEX
  8
0
 10
905.469672
 20
910.944722
 42
-0.083887
  0
VERTEX
  8
0
 10
890.249169
 20
905.293970
 42
-0.084836
  0
VERTEX
  8
0
 10
874.105860
 20
904.989833
 42
-0.022812
  0
VERTEX
  8
0
 10
848.871511
 20
910.001268
 42
0.021866
  0
VERTEX
  8
0
 10
826.731583
 20
914.441700
 42
0.051318
  0
VERTEX
  8
0
 10
809.904509
 20
915.311853
 42
0.066388
  0
VERTEX
  8
0
 10
796.112495
 20
912.752775
 42
0.067624
  0
VERTEX
  8
0
 10
783.566750
 20
906.675685
 42
0.087360
  0
VERTEX
  8
0
 10
768.828424
 20
892.656229
 42
0.086452
  0
VERTEX
  8
0
 10
759.699168
 20
874.397299
 42
0.087809
  0
VERTEX
  8
0
 10
757.366760
 20
854.379739
 42
0.094016
  0
VERTEX
  8
0
 10
762.173486
 20
835.288919
 42
0.062630
  0
VERTEX
  8
0
 10
765.859589
 20
829.399466
 42
0.034400
  0
VERTEX
  8
0
 10
771.685602
 20
823.184444
 42
0.033204
  0
VERTEX
  8
0
 10
778.691640
 20
817.489465
 42
0.039689
  0
VERTEX
  8
0
 10
786.000000
 20
813.140170
 42
0.067745
  0
VERTEX
  8
0
 10
802.521878
 20
807.624660
 42
0.051887
  0
VERTEX
  8
0
 10
821.518011
 20
806.039902
 42
0.036314
  0
VERTEX
  8
0
 10
846.117391
 20
808.335364
 42
0.012722
  0
VERTEX
  8
0
 10
881.000000
 20
815.083116
 42
-0.007239
  0
VERTEX
  8
0
 10
897.875371
 20
818.539882
 42
-0.010821
  0
VERTEX
  8
0
 10
912.721689
 20
821.026149
 42
-0.011265
  0
VERTEX
  8
0
 10
927.201675
 20
822.797945
 42
-0.008893
  0
VERTEX
  8
0
 10
942.936475
 20
824.082233
 42
-0.016848
  0
VERTEX
  8
0
 10
964.152224
 20
824.718052
 42
-0.014312
  0
VERTEX
  8
0
 10
986.554117
 20
823.992954
 42
-0.014539
  0
VERTEX
  8
0
 10
1008.409094
 20
822.019445
 42
-0.019777
  0
VERTEX
  8
0
 10
1027.956461
 20
818.891346
 42
-0.018375
  0
VERTEX
  8
0
 10
1044.579982
 20
814.911714
 42
-0.012626
  0
VERTEX
  8
0
 10
1063.116340
 20
809.239182
 42
-0.011115
  0
VERTEX
  8
0
 10
1079.843744
 20
803.238141
 42
-0.060848
  0
VERTEX
  8
0
 10
1088.309017
 20
798.742102
 42
0.000000
  0
VERTEX
  8
0
 10
1091.118035
 20
796.779763
 42
0.000000
  0
VERTEX
  8
0
 10
1086.309017
 20
794.537554
 42
0.031092
  0
VERTEX
  8
0
 10
1080.977998
 20
791.635925
 42
0.009267
  0
VERTEX
  8
0
 10
1073.219730
 20
786.562406
 42
0.007162
  0
VERTEX
  8
0
 10
1062.913070
 20
779.328100
 42
0.002864
  0
VERTEX
  8
0
 10
1049.000000
 20
769.139976
 42
-0.009324
  0
VERTEX
  8
0
 10
1024.833297
 20
751.918581
 42
-0.019396
  0
VERTEX
  8
0
 10
1005.253120
 20
739.596305
 42
-0.023785
  0
VERTEX
  8
0
 10
987.702582
 20
730.562700
 42
-0.026569
  0
VERTEX
  8
0
 10
970.000000
 20
723.601301
 42
-0.015610
  0
VERTEX
  8
0
 10
961.209138
 20
720.974896
 42
-0.012718
  0
VERTEX
  8
0
 10
951.651246
 20
718.699926
 42
-0.009298
  0
VERTEX
  8
0
 10
939.501177
 20
716.367724
 42
-0.003351
  0
VERTEX
  8
0
 10
922.141926
 20
713.488840
 42
0.015955
  0
VERTEX
  8
0
 10
905.407592
 20
710.278281
 42
0.056967
  0
VERTEX
  8
0
 10
895.129655
 20
706.697206
 42
0.075426
  0
VERTEX
  8
0
 10
887.489144
 20
701.474016
 42
0.043837
  0
VERTEX
  8
0
 10
880.038934
 20
693.198505
 42
0.081885
  0
VERTEX
  8
0
 10
872.154867
 20
678.126098
 42
0.100228
  0
VERTEX
  8
0
 10
870.274813
 20
662.368003
 42
0.099028
  0
VERTEX
  8
0
 10
874.675441
 20
646.974843
 42
0.078144
  0
VERTEX
  8
0
 10
884.931278
 20
632.962903
 42
0.083773
  0
VERTEX
  8
0
 10
900.399896
 20
622.016817
 42
0.071348
  0
VERTEX
  8
0
 10
919.483092
 20
615.983405
 42
0.068673
  0
VERTEX
  8
0
 10
940.191658
 20
615.431718
 42
0.067619
  0
VERTEX
  8
0
 10
960.391728
 20
620.493528
 42
0.030578
  0
VERTEX
  8
0
 10
971.909631
 20
625.939843
 42
0.024930
  0
VERTEX
  8
0
 10
983.520510
 20
633.101503
 42
0.017021
  0
VERTEX
  8
0
 10
997.845086
 20
643.690691
 42
0.005185
  0
VERTEX
  8
0
 10
1018.802797
 20
660.672466
 42
-0.009201
  0
VERTEX
  8
0
 10
1063.260334
 20
696.108157
 42
-0.030195
  0
VERTEX
  8
0
 10
1094.364871
 20
717.123128
 42
-0.042164
  0
VERTEX
  8
0
 10
1121.642731
 20
730.284017
 42
-0.036816
  0
VERTEX
  8
0
 10
1152.000000
 20
739.397679
 42
-0.019162
  0
VERTEX
  8
0
 10
1171.989912
 20
743.029737
 42
-0.013413
  0
VERTEX
  8
0
 10
1194.737461
 20
745.647871
 42
-0.008930
  0
VERTEX
  8
0
 10
1225.375705
 20
747.793250
 42
-0.002619
  0
VERTEX
  8
0
 10
1272.500000
 20
750.000895
 42
0.003304
  0
VERTEX
  8
0
 10
1321.817403
 20
752.379023
 42
0.014178
  0
VERTEX
  8
0
 10
1351.127999
 20
754.821716
 42
0.023489
  0
VERTEX
  8
0
 10
1371.791095
 20
758.123882
 42
0.033456
  0
VERTEX
  8
0
 10
1389.688407
 20
763.121949
 42
0.037035
  0
VERTEX
  8
0
 10
1409.230655
 20
771.691211
 42
0.026340
  0
VERTEX
  8
0
 10
1429.752873
 20
783.991498
 42
0.026362
  0
VERTEX
  8
0
 10
1448.842006
 20
798.362980
 42
0.037423
  0
VERTEX
  8
0
 10
1464.048865
 20
813.192975
 42
0.038371
  0
VERTEX
  8
0
 10
1488.996725
 20
846.254618
 42
0.016697
  0
VERTEX
  8
0
 10
1517.132577
 20
893.584817
 42
0.011121
  0
VERTEX
  8
0
 10
1552.979223
 20
962.321662
 42
0.003335
  0
VERTEX
  8
0
 10
1604.526089
 20
1068.545115
 42
-0.002099
  0
VERTEX
  8
0
 10
1623.861768
 20
1108.642587
 42
-0.006573
  0
VERTEX
  8
0
 10
1637.325900
 20
1135.369021
 42
-0.007422
  0
VERTEX
  8
0
 10
1647.211208
 20
1153.696181
 42
-0.062401
  0
VERTEX
  8
0
 10
1652.766826
 20
1161.250000
 42
-0.077949
  0
VERTEX
  8
0
 10
1655.198510
 20
1163.123387
 42
-0.113653
  0
VERTEX
  8
0
 10
1657.792401
 20
1163.853897
 42
-0.071581
  0
VERTEX
  8
0
 10
1661.287675
 20
1163.521774
 42
-0.016541
  0
VERTEX
  8
0
 10
1667.000000
 20
1161.936326
 42
0.012675
  0
VERTEX
  8
0
 10
1686.098272
 20
1156.476287
 42
0.003857
  0
VERTEX
  8
0
 10
1715.284451
 20
1149.166658
 42
0.004014
  0
VERTEX
  8
0
 10
1746.085552
 20
1141.965879
 42
0.006990
  0
VERTEX
  8
0
 10
1771.758815
 20
1136.556847
 42
0.016837
  0
VERTEX
  8
0
 10
1800.193632
 20
1131.968056
 42
0.017505
  0
VERTEX
  8
0
 10
1828.506256
 20
1129.375239
 42
0.010436
  0
VERTEX
  8
0
 10
1867.148403
 20
1128.004955
 42
0.002081
  0
VERTEX
  8
0
 10
1936.206537
 20
1127.285804
 42
0.000000
  0
VERTEX
  8
0
 10
2019.913073
 20
1126.762475
 42
0.000000
  0
VERTEX
  8
0
 10
2020.544046
 20
1122.131238
 42
0.025966
  0
VERTEX
  8
0
 10
2022.796487
 20
1110.248257
 42
0.024861
  0
VERTEX
  8
0
 10
2026.293354
 20
1098.485503
 42
0.022304
  0
VERTEX
  8
0
 10
2031.317725
 20
1086.024715
 42
0.014238
  0
VERTEX
  8
0
 10
2038.202590
 20
1072.000000
 42
0.012940
  0
VERTEX
  8
0
 10
2046.923658
 20
1056.434434
 42
0.016002
  0
VERTEX
  8
0
 10
2055.872351
 20
1042.429510
 42
0.014022
  0
VERTEX
  8
0
 10
2066.620217
 20
1027.645818
 42
0.006976
  0
VERTEX
  8
0
 10
2081.014543
 20
1009.500000
 42
-0.001114
  0
VERTEX
  8
0
 10
2085.131349
 20
1004.433411
 42
-0.001652
  0
VERTEX
  8
0
 10
2088.713999
 20
999.974025
 42
-0.000721
  0
VERTEX
  8
0
 10
2091.757011
 20
996.149289
 42
-0.033383
  0
VERTEX
  8
0
 10
2092.324628
 20
995.326468
 42
-0.556222
  0
VERTEX
  8
0
 10
2092.008791
 20
994.716948
 42
-0.009203
  0
VERTEX
  8
0
 10
2087.404156
 20
994.444517
 42
-0.009795
  0
VERTEX
  8
0
 10
2080.227417
 20
994.293066
 42
-0.002095
  0
VERTEX
  8
0
 10
2067.761757
 20
994.326468
 42
0.002331
  0
VERTEX
  8
0
 10
2052.727754
 20
994.359662
 42
0.014325
  0
VERTEX
  8
0
 10
2044.986027
 20
994.118805
 42
0.024947
  0
VERTEX
  8
0
 10
2039.272367
 20
993.489877
 42
0.018539
  0
VERTEX
  8
0
 10
2033.045546
 20
992.249722
 42
0.017977
  0
VERTEX
  8
0
 10
2028.703553
 20
991.049836
 42
0.010502
  0
VERTEX
  8
0
 10
2023.589423
 20
989.317699
 42
0.010447
  0
VERTEX
  8
0
 10
2018.478181
 20
987.344251
 42
0.015853
  0
VERTEX
  8
0
 10
2014.130880
 20
985.397320
 42
0.045308
  0
VERTEX
  8
0
 10
2003.581497
 20
979.025991
 42
0.080057
  0
VERTEX
  8
0
 10
1996.466036
 20
971.792150
 42
0.084004
  0
VERTEX
  8
0
 10
1992.196109
 20
962.947334
 42
0.054626
  0
VERTEX
  8
0
 10
1990.238275
 20
951.743639
 42
0.030647
  0
VERTEX
  8
0
 10
1990.218727
 20
944.175946
 42
0.038167
  0
VERTEX
  8
0
 10
1991.164957
 20
937.208897
 42
0.036356
  0
VERTEX
  8
0
 10
1993.209926
 20
930.202059
 42
0.024119
  0
VERTEX
  8
0
 10
1996.510661
 20
922.500000
 42
0.070309
  0
VERTEX
  8
0
 10
2006.933798
 20
907.049703
 42
0.068687
  0
VERTEX
  8
0
 10
2021.304528
 20
894.951261
 42
0.069120
  0
VERTEX
  8
0
 10
2038.326653
 20
887.255858
 42
0.072788
  0
VERTEX
  8
0
 10
2056.500000
 20
884.671748
 42
0.050892
  0
VERTEX
  8
0
 10
2068.574231
 20
885.953620
 42
0.050094
  0
VERTEX
  8
0
 10
2080.208178
 20
889.649140
 42
0.040528
  0
VERTEX
  8
0
 10
2092.810131
 20
896.349601
 42
0.018891
  0
VERTEX
  8
0
 10
2108.014656
 20
906.919271
 42
0.000000
  0
VERTEX
  8
0
 10
2122.529312
 20
917.845029
 42
0.000000
  0
VERTEX
  8
0
 10
2163.014656
 20
910.440433
 42
0.000048
  0
VERTEX
  8
0
 10
2178.972503
 20
907.523410
 42
0.000065
  0
VERTEX
  8
0
 10
2193.423803
 20
904.885175
 42
0.000044
  0
VERTEX
  8
0
 10
2205.551959
 20
902.673802
 42
0.000701
  0
VERTEX
  8
0
 10
2209.683398
 20
901.926861
 42
-0.021078
  0
VERTEX
  8
0
 10
2214.083908
 20
900.944624
 42
-0.056481
  0
VERTEX
  8
0
 10
2217.067615
 20
899.771533
 42
-0.110378
  0
VERTEX
  8
0
 10
2218.558987
 20
898.496619
 42
-0.308569
  0
VERTEX
  8
0
 10
2218.617827
 20
897.190648
 42
-0.117942
  0
VERTEX
  8
0
 10
2216.641299
 20
895.225848
 42
-0.003295
  0
VERTEX
  8
0
 10
2206.255369
 20
888.985631
 42
-0.005610
  0
VERTEX
  8
0
 10
2192.477888
 20
881.038119
 42
-0.002263
  0
VERTEX
  8
0
 10
2173.500000
 20
870.485448
 42
-0.010809
  0
VERTEX
  8
0
 10
2132.706682
 20
849.178813
 42
-0.061381
  0
VERTEX
  8
0
 10
2109.630093
 20
841.090787
 42
-0.071644
  0
VERTEX
  8
0
 10
2086.843129
 20
839.459747
 42
-0.017722
  0
VERTEX
  8
0
 10
2049.500149
 20
843.471869
 42
0.004451
  0
VERTEX
  8
0
 10
2024.437108
 20
846.839525
 42
0.010343
  0
VERTEX
  8
0
 10
2005.580398
 20
848.807348
 42
0.013212
  0
VERTEX
  8
0
 10
1989.891377
 20
849.700596
 42
0.015522
  0
VERTEX
  8
0
 10
1975.000000
 20
849.691800
 42
0.010954
  0
VERTEX
  8
0
 10
1962.922357
 20
849.044552
 42
0.031094
  0
VERTEX
  8
0
 10
1954.572741
 20
847.888215
 42
0.040159
  0
VERTEX
  8
0
 10
1947.717010
 20
845.916391
 42
0.031950
  0
VERTEX
  8
0
 10
1940.697369
 20
842.746083
 42
0.071816
  0
VERTEX
  8
0
 10
1932.820449
 20
836.985061
 42
0.048116
  0
VERTEX
  8
0
 10
1925.620585
 20
828.433174
 42
0.044430
  0
VERTEX
  8
0
 10
1919.631206
 20
817.845605
 42
0.040087
  0
VERTEX
  8
0
 10
1915.362391
 20
806.000000
 42
0.043069
  0
VERTEX
  8
0
 10
1913.859913
 20
797.727655
 42
0.026803
  0
VERTEX
  8
0
 10
1913.465462
 20
787.868879
 42
0.026959
  0
VERTEX
  8
0
 10
1914.116330
 20
778.242573
 42
0.052507
  0
VERTEX
  8
0
 10
1915.842022
 20
770.748645
 42
0.055633
  0
VERTEX
  8
0
 10
1920.166703
 20
761.619385
 42
0.052068
  0
VERTEX
  8
0
 10
1926.480245
 20
753.443914
 42
0.050508
  0
VERTEX
  8
0
 10
1934.546874
 20
746.535176
 42
0.046402
  0
VERTEX
  8
0
 10
1944.059573
 20
741.157028
 42
0.067745
  0
VERTEX
  8
0
 10
1959.271159
 20
736.674909
 42
0.079870
  0
VERTEX
  8
0
 10
1974.265924
 20
736.796998
 42
0.053937
  0
VERTEX
  8
0
 10
1992.681968
 20
741.999313
 42
0.015184
  0
VERTEX
  8
0
 10
2020.059411
 20
754.010874
 42
-0.008090
  0
VERTEX
  8
0
 10
2046.366220
 20
766.000554
 42
-0.037421
  0
VERTEX
  8
0
 10
2062.136492
 20
771.519696
 42
-0.034248
  0
VERTEX
  8
0
 10
2079.157040
 20
774.852658
 42
-0.006053
  0
VERTEX
  8
0
 10
2111.500000
 20
778.516431
 42
0.006844
  0
VERTEX
  8
0
 10
2136.307532
 20
781.366319
 42
0.015286
  0
VERTEX
  8
0
 10
2155.054004
 20
784.365382
 42
0.017588
  0
VERTEX
  8
0
 10
2171.879980
 20
788.205435
 42
0.012684
  0
VERTEX
  8
0
 10
2190.358849
 20
793.617651
 42
-0.011647
  0
VERTEX
  8
0
 10
2211.772903
 20
799.937778
 42
-0.007832
  0
VERTEX
  8
0
 10
2236.498131
 20
806.199430
 42
-0.007479
  0
VERTEX
  8
0
 10
2262.918367
 20
812.035811
 42
-0.007480
  0
VERTEX
  8
0
 10
2289.500000
 20
817.079025
 42
-0.007940
  0
VERTEX
  8
0
 10
2302.898978
 20
819.195411
 42
-0.012700
  0
VERTEX
  8
0
 10
2314.405994
 20
820.528980
 42
-0.006232
  0
VERTEX
  8
0
 10
2323.945505
 20
821.269911
 42
-0.433397
  0
VERTEX
  8
0
 10
2325.000000
 20
820.281874
 42
-0.247503
  0
VERTEX
  8
0
 10
2323.587211
 20
817.602629
 42
-0.000520
  0
VERTEX
  8
0
 10
2283.700333
 20
790.358693
 42
-0.002353
  0
VERTEX
  8
0
 10
2247.059954
 20
765.639755
 42
-0.037386
  0
VERTEX
  8
0
 10
2234.000000
 20
758.264839
 42
-0.032324
  0
VERTEX
  8
0
 10
2227.077215
 20
755.542298
 42
-0.037169
  0
VERTEX
  8
0
 10
2220.174633
 20
753.884081
 42
-0.023979
  0
VERTEX
  8
0
 10
2210.984601
 20
752.836404
 42
-0.005608
  0
VERTEX
  8
0
 10
2195.500000
 20
751.994044
 42
0.011675
  0
VERTEX
  8
0
 10
2176.273062
 20
750.713982
 42
0.030854
  0
VERTEX
  8
0
 10
2162.645265
 20
748.633202
 42
0.041561
  0
VERTEX
  8
0
 10
2152.008241
 20
745.386089
 42
0.046878
  0
VERTEX
  8
0
 10
2142.500000
 20
740.519784
 42
0.074764
  0
VERTEX
  8
0
 10
2132.230077
 20
731.585185
 42
0.045226
  0
VERTEX
  8
0
 10
2122.908642
 20
718.394242
 42
0.045044
  0
VERTEX
  8
0
 10
2116.057545
 20
703.641512
 42
0.070749
  0
VERTEX
  8
0
 10
2113.237794
 20
689.974993
 42
0.064216
  0
VERTEX
  8
0
 10
2113.957844
 20
679.089135
 42
0.037703
  0
VERTEX
  8
0
 10
2117.440493
 20
666.489537
 42
0.037608
  0
VERTEX
  8
0
 10
2122.803175
 20
654.488292
 42
0.061342
  0
VERTEX
  8
0
 10
2129.255126
 20
645.411230
 42
0.075469
  0
VERTEX
  8
0
 10
2139.957381
 20
636.762432
 42
0.053734
  0
VERTEX
  8
0
 10
2154.046287
 20
630.442635
 42
0.054522
  0
VERTEX
  8
0
 10
2168.869789
 20
627.354945
 42
0.087093
  0
VERTEX
  8
0
 10
2181.734651
 20
628.351676
 42
0.046902
  0
VERTEX
  8
0
 10
2191.228597
 20
631.761449
 42
0.042631
  0
VERTEX
  8
0
 10
2200.248560
 20
636.970939
 42
0.030023
  0
VERTEX
  8
0
 10
2210.651741
 20
645.195773
 42
0.009801
  0
VERTEX
  8
0
 10
2224.991868
 20
658.517979
 42
-0.015055
  0
VERTEX
  8
0
 10
2241.669271
 20
673.688211
 42
-0.031243
  0
VERTEX
  8
0
 10
2255.717145
 20
684.268843
 42
-0.024801
  0
VERTEX
  8
0
 10
2272.897486
 20
694.415540
 42
-0.006450
  0
VERTEX
  8
0
 10
2301.500000
 20
708.980135
 42
-0.012120
  0
VERTEX
  8
0
 10
2376.146705
 20
743.562849
 42
-0.029653
  0
VERTEX
  8
0
 10
2432.996034
 20
764.335122
 42
-0.034672
  0
VERTEX
  8
0
 10
2486.324745
 20
776.356614
 42
-0.023252
  0
VERTEX
  8
0
 10
2548.500000
 20
782.965951
 42
0.007009
  0
VERTEX
  8
0
 10
2594.539469
 20
786.352476
 42
0.026651
  0
VERTEX
  8
0
 10
2623.073674
 20
790.394841
 42
0.038869
  0
VERTEX
  8
0
 10
2645.104395
 20
796.532799
 42
0.031836
  0
VERTEX
  8
0
 10
2667.500000
 20
806.348435
 42
0.022063
  0
VERTEX
  8
0
 10
2688.440144
 20
818.361284
 42
0.012047
  0
VERTEX
  8
0
 10
2713.068230
 20
834.817315
 42
0.011128
  0
VERTEX
  8
0
 10
2739.610490
 20
854.390047
 42
0.009721
  0
VERTEX
  8
0
 10
2766.500000
 20
876.005730
 42
0.016417
  0
VERTEX
  8
0
 10
2826.460055
 20
929.596945
 42
0.011926
  0
VERTEX
  8
0
 10
2889.705981
 20
992.925526
 42
0.011784
  0
VERTEX
  8
0
 10
2950.908601
 20
1060.314409
 42
0.014415
  0
VERTEX
  8
0
 10
3004.749207
 20
1126.226706
 42
0.013665
  0
VERTEX
  8
0
 10
3044.931612
 20
1181.479782
 42
0.024538
  0
VERTEX
  8
0
 10
3074.347352
 20
1229.202489
 42
0.029891
  0
VERTEX
  8
0
 10
3094.386307
 20
1271.378339
 42
0.048132
  0
VERTEX
  8
0
 10
3105.662689
 20
1309.500000
 42
0.031223
  0
VERTEX
  8
0
 10
3107.088229
 20
1320.490825
 42
0.019182
  0
VERTEX
  8
0
 10
3107.456440
 20
1333.545431
 42
0.019198
  0
VERTEX
  8
0
 10
3106.843865
 20
1346.152164
 42
0.043242
  0
VERTEX
  8
0
 10
3105.194571
 20
1355.569508
 42
0.077162
  0
VERTEX
  8
0
 10
3094.527939
 20
1379.856837
 42
0.076747
  0
VERTEX
  8
0
 10
3076.984063
 20
1399.817959
 42
0.066643
  0
VERTEX
  8
0
 10
3051.968433
 20
1415.622924
 42
0.040681
  0
VERTEX
  8
0
 10
3019.091356
 20
1427.589341
 42
0.018782
  0
VERTEX
  8
0
 10
3001.625145
 20
1431.682499
 42
0.021647
  0
VERTEX
  8
0
 10
2984.707152
 20
1434.228104
 42
0.018179
  0
VERTEX
  8
0
 10
2965.367068
 20
1435.578406
 42
0.008338
  0
VERTEX
  8
0
 10
2940.087716
 20
1436.000000
 42
0.010019
  0
VERTEX
  8
0
 10
2910.163620
 20
1435.400341
 42
0.013665
  0
VERTEX
  8
0
 10
2883.247840
 20
1433.583420
 42
0.014930
  0
VERTEX
  8
0
 10
2858.593038
 20
1430.495749
 42
0.017609
  0
VERTEX
  8
0
 10
2835.500000
 20
1426.062647
 42
-0.002902
  0
VERTEX
  8
0
 10
2828.949862
 20
1424.604298
 42
-0.004697
  0
VERTEX
  8
0
 10
2823.360293
 20
1423.448675
 42
-0.001047
  0
VERTEX
  8
0
 10
2818.468834
 20
1422.495834
 42
-0.247802
  0
VERTEX
  8
0
 10
2818.045678
 20
1422.624659
 42
-0.187166
  0
VERTEX
  8
0
 10
2817.850556
 20
1423.062292
 42
-0.000226
  0
VERTEX
  8
0
 10
2817.364549
 20
1432.992808
 42
-0.001957
  0
VERTEX
  8
0
 10
2816.867843
 20
1444.138180
 42
-0.001198
  0
VERTEX
  8
0
 10
2816.364925
 20
1457.287655
 42
0.003539
  0
VERTEX
  8
0
 10
2813.718700
 20
1518.919584
 42
0.005908
  0
VERTEX
  8
0
 10
2810.512202
 20
1570.736970
 42
0.006594
  0
VERTEX
  8
0
 10
2806.391219
 20
1618.091519
 42
0.006350
  0
VERTEX
  8
0
 10
2800.978096
 20
1665.922105
 42
0.022676
  0
VERTEX
  8
0
 10
2774.931503
 20
1816.990057
 42
0.035651
  0
VERTEX
  8
0
 10
2737.624744
 20
1943.224979
 42
0.042572
  0
VERTEX
  8
0
 10
2692.164265
 20
2038.864158
 42
0.114211
  0
VERTEX
  8
0
 10
2640.760615
 20
2093.355306
 42
0.063947
  0
VERTEX
  8
0
 10
2616.915090
 20
2105.151409
 42
0.068416
  0
VERTEX
  8
0
 10
2591.405519
 20
2110.191145
 42
0.065004
  0
VERTEX
  8
0
 10
2564.385403
 20
2108.258808
 42
0.049852
  0
VERTEX
  8
0
 10
2536.085901
 20
2099.478658
 42
0.028392
  0
VERTEX
  8
0
 10
2513.963860
 20
2088.594484
 42
0.018680
  0
VERTEX
  8
0
 10
2489.789945
 20
2073.728200
 42
0.014430
  0
VERTEX
  8
0
 10
2461.038852
 20
2053.307852
 42
0.006450
  0
VERTEX
  8
0
 10
2424.355496
 20
2024.877294
 42
-0.002193
  0
VERTEX
  8
0
 10
2399.957685
 20
2005.633712
 42
-0.010146
  0
VERTEX
  8
0
 10
2385.578198
 20
1994.856756
 42
-0.009071
  0
VERTEX
  8
0
 10
2375.847043
 20
1988.131571
 42
-0.276215
  0
VERTEX
  8
0
 10
2373.006923
 20
1987.996295
 42
-0.071974
  0
VERTEX
  8
0
 10
2371.815031
 20
1988.874660
 42
-0.002086
  0
VERTEX
  8
0
 10
2367.351672
 20
1993.316384
 42
-0.004166
  0
VERTEX
  8
0
 10
2362.152370
 20
1998.621511
 42
-0.002853
  0
VERTEX
  8
0
 10
2356.334872
 20
2004.726534
 42
0.004738
  0
VERTEX
  8
0
 10
2329.215636
 20
2032.972110
 42
0.008713
  0
VERTEX
  8
0
 10
2306.530160
 20
2055.361861
 42
0.009472
  0
VERTEX
  8
0
 10
2284.418504
 20
2075.652078
 42
0.007008
  0
VERTEX
  8
0
 10
2259.235734
 20
2097.275855
 42
0.006583
  0
VERTEX
  8
0
 10
2243.278366
 20
2110.241497
 42
0.005344
  0
VERTEX
  8
0
 10
2225.844104
 20
2123.729746
 42
0.005466
  0
VERTEX
  8
0
 10
2209.227462
 20
2136.020510
 42
0.011483
  0
VERTEX
  8
0
 10
2196.000000
 20
2145.127454
 42
0.030224
  0
VERTEX
  8
0
 10
2152.120324
 20
2170.225820
 42
0.025852
  0
VERTEX
  8
0
 10
2103.217443
 20
2191.331880
 42
0.026372
  0
VERTEX
  8
0
 10
2053.693238
 20
2206.815352
 42
0.036750
  0
VERTEX
  8
0
 10
2008.000000
 20
2214.980000
 42
0.021931
  0
VERTEX
  8
0
 10
2001.272352
 20
2215.380740
 42
0.001035
  0
VERTEX
  8
0
 10
1978.583234
 20
2215.688686
 42
0.001672
  0
VERTEX
  8
0
 10
1951.262816
 20
2215.911599
 42
0.001118
  0
VERTEX
  8
0
 10
1920.000000
 20
2215.992233
 42
-0.001150
  0
VERTEX
  8
0
 10
1888.514865
 20
2216.075417
 42
-0.001372
  0
VERTEX
  8
0
 10
1858.831250
 20
2216.303532
 42
-0.001182
  0
VERTEX
  8
0
 10
1833.803143
 20
2216.623723
 42
-0.008957
  0
VERTEX
  8
0
 10
1822.000000
 20
2217.014214
 42
-0.015088
  0
VERTEX
  8
0
 10
1777.294130
 20
2220.650510
 42
-0.022531
  0
VERTEX
  8
0
 10
1738.568023
 20
2226.756658
 42
-0.023949
  0
VERTEX
  8
0
 10
1702.382002
 20
2235.970658
 42
-0.020754
  0
VERTEX
  8
0
 10
1665.437149
 20
2248.986240
 42
-0.007057
  0
VERTEX
  8
0
 10
1652.183265
 20
2254.501617
 42
-0.006964
  0
VERTEX
  8
0
 10
1639.030881
 20
2260.412659
 42
-0.005390
  0
VERTEX
  8
0
 10
1623.411946
 20
2267.901388
 42
-0.002106
  0
VERTEX
  8
0
 10
1602.000000
 20
2278.565354
 42
-0.012799
  0
VERTEX
  8
0
 10
1558.878359
 20
2301.670429
 42
-0.014360
  0
VERTEX
  8
0
 10
1518.649525
 20
2326.124963
 42
-0.010480
  0
VERTEX
  8
0
 10
1470.770258
 20
2358.591674
 42
-0.003295
  0
VERTEX
  8
0
 10
1400.500000
 20
2409.122126
 42
0.002555
  0
VERTEX
  8
0
 10
1338.190211
 20
2454.068332
 42
0.006414
  0
VERTEX
  8
0
 10
1292.172735
 20
2486.023215
 42
0.008660
  0
VERTEX
  8
0
 10
1256.419781
 20
2509.285032
 42
0.017792
  0
VERTEX
  8
0
 10
1227.500000
 20
2525.994086
 42
-0.000194
  0
VERTEX
  8
0
 10
1223.268167
 20
2528.244352
 42
-0.000167
  0
VERTEX
  8
0
 10
1218.821875
 20
2530.612773
 42
-0.000168
  0
VERTEX
  8
0
 10
1214.789295
 20
2532.764288
 42
-0.000486
  0
VERTEX
  8
0
 10
1212.000000
 20
2534.257162
 42
0.012272
  0
VERTEX
  8
0
 10
1200.950732
 20
2539.839985
 42
0.004621
  0
VERTEX
  8
0
 10
1185.229120
 20
2547.127799
 42
0.004676
  0
VERTEX
  8
0
 10
1168.589486
 20
2554.468463
 42
0.007449
  0
VERTEX
  8
0
 10
1154.211592
 20
2560.399156
 42
0.009191
  0
VERTEX
  8
0
 10
1131.150254
 20
2569.025457
 42
0.010997
  0
VERTEX
  8
0
 10
1109.119484
 20
2576.266876
 42
0.011309
  0
VERTEX
  8
0
 10
1087.345169
 20
2582.362560
 42
0.010913
  0
VERTEX
  8
0
 10
1065.058263
 20
2587.546092
 42
-0.007739
  0
VERTEX
  8
0
 10
1060.023584
 20
2588.683431
 42
-0.008510
  0
VERTEX
  8
0
 10
1055.184171
 20
2589.943228
 42
-0.008030
  0
VERTEX
  8
0
 10
1051.089667
 20
2591.155036
 42
-0.042009
  0
VERTEX
  8
0
 10
1048.915709
 20
2592.043002
 42
-0.065047
  0
VERTEX
  8
0
 10
1045.078192
 20
2594.677719
 42
-0.042220
  0
VERTEX
  8
0
 10
1041.385873
 20
2598.602876
 42
-0.031631
  0
VERTEX
  8
0
 10
1037.494985
 20
2604.203104
 42
-0.013618
  0
VERTEX
  8
0
 10
1033.000000
 20
2612.113552
 42
0.011715
  0
VERTEX
  8
0
 10
1025.118974
 20
2626.106574
 42
0.015218
  0
VERTEX
  8
0
 10
1017.218268
 20
2638.520284
 42
0.014999
  0
VERTEX
  8
0
 10
1008.482667
 20
2650.571666
 42
0.010865
  0
VERTEX
  8
0
 10
998.070329
 20
2663.475558
 42
0.017640
  0
VERTEX
  8
0
 10
979.977576
 20
2683.452396
 42
0.022974
  0
VERTEX
  8
0
 10
961.986933
 20
2700.334912
 42
0.025743
  0
VERTEX
  8
0
 10
945.062520
 20
2713.367797
 42
0.051939
  0
VERTEX
  8
0
 10
930.312246
 20
2721.444323
 42
0.016389
  0
VERTEX
  8
0
 10
916.615213
 20
2726.668880
 42
0.011408
  0
VERTEX
  8
0
 10
900.846304
 20
2731.699444
 42
0.011249
  0
VERTEX
  8
0
 10
884.526071
 20
2736.102162
 42
0.013919
  0
VERTEX
  8
0
 10
869.139532
 20
2739.432601
 42
0.016835
  0
VERTEX
  8
0
 10
863.274932
 20
2740.328903
 42
0.019327
  0
VERTEX
  8
0
 10
857.627281
 20
2740.777952
 42
0.020866
  0
VERTEX
  8
0
 10
852.446136
 20
2740.772610
 42
0.032321
  0
SEQEND
  0
POLYLINE
  8
0
 66
1
 70
1
  0
VERTEX
  8
0
 10
868.923136
 20
2708.923154
 42
-0.026352
  0
VERTEX
  8
0
 10
883.398842
 20
2706.793236
 42
-0.028678
  0
VERTEX
  8
0
 10
897.158434
 20
2703.189979
 42
-0.029107
  0
VERTEX
  8
0
 10
910.228079
 20
2698.095770
 42
-0.028952
  0
VERTEX
  8
0
 10
922.641880
 20
2691.510289
 42
-0.044717
  0
VERTEX
  8
0
 10
947.592513
 20
2673.126266
 42
-0.036001
  0
VERTEX
  8
0
 10
970.902244
 20
2649.300027
 42
-0.033754
  0
VERTEX
  8
0
 10
991.972155
 20
2620.702792
 42
-0.028920
  0
VERTEX
  8
0
 10
1010.222942
 20
2588.050188
 42
0.010312
  0
VERTEX
  8
0
 10
1018.497591
 20
2571.859865
 42
0.092824
  0
VERTEX
  8
0
 10
1023.472397
 20
2565.685476
 42
0.119819
  0
VERTEX
  8
0
 10
1029.882425
 20
2562.437782
 42
0.021659
  0
VERTEX
  8
0
 10
1043.101986
 20
2559.934488
 42
-0.020908
  0
VERTEX
  8
0
 10
1077.902344
 20
2553.398682
 42
-0.022970
  0
VERTEX
  8
0
 10
1110.942126
 20
2544.134051
 42
-0.021231
  0
VERTEX
  8
0
 10
1145.131270
 20
2531.195895
 42
-0.013800
  0
VERTEX
  8
0
 10
1183.500000
 20
2513.514270
 42
-0.015451
  0
VERTEX
  8
0
 10
1227.116536
 20
2490.231489
 42
-0.011804
  0
VERTEX
  8
0
 10
1273.383321
 20
2462.192989
 42
-0.010026
  0
VERTEX
  8
0
 10
1325.341889
 20
2427.517219
 42
-0.005793
  0
VERTEX
  8
0
 10
1386.500000
 20
2383.843935
 42
0.004608
  0
VERTEX
  8
0
 10
1464.197902
 20
2328.080901
 42
0.010761
  0
VERTEX
  8
0
 10
1523.597505
 20
2288.157686
 42
0.013966
  0
VERTEX
  8
0
 10
1573.424039
 20
2258.133410
 42
0.018588
  0
VERTEX
  8
0
 10
1620.383811
 20
2233.851977
 42
0.016093
  0
VERTEX
  8
0
 10
1651.835177
 20
2220.262421
 42
0.013912
  0
VERTEX
  8
0
 10
1685.649710
 20
2208.001576
 42
0.014208
  0
VERTEX
  8
0
 10
1719.122503
 20
2197.954091
 42
0.020028
  0
VERTEX
  8
0
 10
1749.500000
 20
2191.060650
 42
0.027366
  0
VERTEX
  8
0
 10
1772.703518
 20
2188.065384
 42
0.009913
  0
VERTEX
  8
0
 10
1805.880920
 20
2186.277609
 42
0.008365
  0
VERTEX
  8
0
 10
1847.520193
 20
2185.558058
 42
0.004716
  0
VERTEX
  8
0
 10
1898.046888
 20
2186.006847
 42
-0.001329
  0
VERTEX
  8
0
 10
1948.599336
 20
2186.798347
 42
-0.004348
  0
VERTEX
  8
0
 10
1982.032306
 20
2186.942186
 42
-0.005635
  0
VERTEX
  8
0
 10
2005.070766
 20
2186.581299
 42
-0.030651
  0
VERTEX
  8
0
 10
2017.500000
 20
2185.482000
 42
-0.016579
  0
VERTEX
  8
0
 10
2027.808166
 20
2183.577976
 42
-0.011269
  0
VERTEX
  8
0
 10
2039.402229
 20
2180.761054
 42
-0.009695
  0
VERTEX
  8
0
 10
2052.644275
 20
2176.949357
 42
-0.006064
  0
VERTEX
  8
0
 10
2068.000000
 20
2172.000205
 42
-0.045208
  0
VERTEX
  8
0
 10
2152.013742
 20
2135.057906
 42
-0.039853
  0
VERTEX
  8
0
 10
2231.873502
 20
2082.245474
 42
-0.037035
  0
VERTEX
  8
0
 10
2307.585197
 20
2013.392661
 42
-0.029014
  0
VERTEX
  8
0
 10
2379.199561
 20
1928.500000
 42
-0.025008
  0
VERTEX
  8
0
 10
2442.776847
 20
1834.106431
 42
-0.027784
  0
VERTEX
  8
0
 10
2494.212531
 20
1737.016581
 42
-0.029926
  0
VERTEX
  8
0
 10
2530.802143
 20
1643.179875
 42
-0.047035
  0
VERTEX
  8
0
 10
2549.499381
 20
1558.759631
 42
-0.009151
  0
VERTEX
  8
0
 10
2550.164206
 20
1552.490860
 42
-0.003054
  0
VERTEX
  8
0
 10
2550.912842
 20
1543.297113
 42
-0.003038
  0
VERTEX
  8
0
 10
2551.617947
 20
1533.104063
 42
-0.003461
  0
VERTEX
  8
0
 10
2552.166121
 20
1523.336924
 42
-0.018670
  0
VERTEX
  8
0
 10
2552.606520
 20
1486.036782
 42
-0.017441
  0
VERTEX
  8
0
 10
2550.302701
 20
1447.946280
 42
-0.018251
  0
VERTEX
  8
0
 10
2545.672782
 20
1413.017692
 42
-0.035444
  0
VERTEX
  8
0
 10
2539.010123
 20
1385.690133
 42
-0.021128
  0
VERTEX
  8
0
 10
2536.240114
 20
1378.154351
 42
-0.085927
  0
VERTEX
  8
0
 10
2533.630623
 20
1374.046505
 42
-0.118798
  0
VERTEX
  8
0
 10
2530.261286
 20
1371.756512
 42
-0.059312
  0
VERTEX
  8
0
 10
2525.225841
 20
1370.513740
 42
0.049751
  0
VERTEX
  8
0
 10
2508.373630
 20
1366.693813
 42
0.010146
  0
VERTEX
  8
0
 10
2479.532446
 20
1356.406593
 42
0.011188
  0
VERTEX
  8
0
 10
2448.358620
 20
1343.763895
 42
0.015250
  0
VERTEX
  8
0
 10
2420.895625
 20
1330.896574
 42
0.033345
  0
VERTEX
  8
0
 10
2382.889754
 20
1308.355844
 42
0.030944
  0
VERTEX
  8
0
 10
2347.205568
 20
1280.440282
 42
0.030909
  0
VERTEX
  8
0
 10
2315.200438
 20
1248.299178
 42
0.033078
  0
VERTEX
  8
0
 10
2288.177405
 20
1213.143985
 42
0.015434
  0
VERTEX
  8
0
 10
2279.509300
 20
1199.267359
 42
0.031374
  0
VERTEX
  8
0
 10
2273.747119
 20
1187.774898
 42
0.040361
  0
VERTEX
  8
0
 10
2270.638575
 20
1178.436814
 42
0.106934
  0
VERTEX
  8
0
 10
2270.445317
 20
1171.439794
 42
0.099082
  0
VERTEX
  8
0
 10
2271.635501
 20
1168.485419
 42
0.065234
  0
VERTEX
  8
0
 10
2274.033796
 20
1165.699502
 42
0.066446
  0
VERTEX
  8
0
 10
2277.004224
 20
1163.680169
 42
0.116612
  0
VERTEX
  8
0
 10
2279.880945
 20
1163.000000
 42
0.165496
  0
VERTEX
  8
0
 10
2286.558329
 20
1165.272400
 42
0.039183
  0
VERTEX
  8
0
 10
2295.416534
 20
1173.269658
 42
0.027622
  0
VERTEX
  8
0
 10
2306.659799
 20
1186.540513
 42
0.009376
  0
VERTEX
  8
0
 10
2321.542452
 20
1207.000000
 42
-0.100101
  0
VERTEX
  8
0
 10
2398.232178
 20
1280.053207
 42
-0.056350
  0
VERTEX
  8
0
 10
2514.501619
 20
1336.074508
 42
-0.043094
  0
VERTEX
  8
0
 10
2672.429641
 20
1376.448174
 42
-0.021476
  0
VERTEX
  8
0
 10
2877.500000
 20
1401.426162
 42
-0.006775
  0
VERTEX
  8
0
 10
2915.134106
 20
1403.864852
 42
-0.010558
  0
VERTEX
  8
0
 10
2947.611955
 20
1404.840903
 42
-0.012297
  0
VERTEX
  8
0
 10
2975.035362
 20
1404.411253
 42
-0.023430
  0
VERTEX
  8
0
 10
2997.000000
 20
1402.493047
 42
-0.036313
  0
VERTEX
  8
0
 10
3027.182285
 20
1396.168525
 42
-0.068156
  0
VERTEX
  8
0
 10
3049.947202
 20
1386.131708
 42
-0.084519
  0
VERTEX
  8
0
 10
3065.882640
 20
1372.155488
 42
-0.092948
  0
VERTEX
  8
0
 10
3075.661593
 20
1354.118516
 42
-0.054220
  0
VERTEX
  8
0
 10
3077.123542
 20
1347.019936
 42
-0.017700
  0
VERTEX
  8
0
 10
3077.758972
 20
1336.331476
 42
-0.018135
  0
VERTEX
  8
0
 10
3077.620175
 20
1325.032119
 42
-0.030080
  0
VERTEX
  8
0
 10
3076.586558
 20
1315.559981
 42
-0.049021
  0
VERTEX
  8
0
 10
3069.113486
 20
1288.217383
 42
-0.025627
  0
VERTEX
  8
0
 10
3054.834248
 20
1255.895831
 42
-0.022140
  0
VERTEX
  8
0
 10
3034.462123
 20
1219.604797
 42
-0.014910
  0
VERTEX
  8
0
 10
3008.195669
 20
1180.000000
 42
-0.021765
  0
VERTEX
  8
0
 10
2942.123144
 20
1094.681637
 42
-0.017700
  0
VERTEX
  8
0
 10
2864.334610
 20
1009.123482
 42
-0.017651
  0
VERTEX
  8
0
 10
2780.406937
 20
928.996590
 42
-0.021214
  0
VERTEX
  8
0
 10
2695.868691
 20
860.000000
 42
-0.012761
  0
VERTEX
  8
0
 10
2668.219250
 20
840.403423
 42
-0.035298
  0
VERTEX
  8
0
 10
2647.535407
 20
828.547254
 42
-0.044399
  0
VERTEX
  8
0
 10
2628.297958
 20
821.280308
 42
-0.032727
  0
VERTEX
  8
0
 10
2606.000000
 20
816.597362
 42
-0.010020
  0
VERTEX
  8
0
 10
2597.590600
 20
815.570240
 42
-0.006142
  0
VERTEX
  8
0
 10
2587.642822
 20
814.680404
 42
-0.002933
  0
VERTEX
  8
0
 10
2572.052283
 20
813.570621
 42
-0.000401
  0
VERTEX
  8
0
 10
2539.500000
 20
811.471501
 42
0.004960
  0
VERTEX
  8
0
 10
2519.189988
 20
809.975752
 42
0.005748
  0
VERTEX
  8
0
 10
2499.890041
 20
808.138075
 42
0.006229
  0
VERTEX
  8
0
 10
2482.801703
 20
806.096912
 42
0.012590
  0
VERTEX
  8
0
 10
2469.413244
 20
803.984061
 42
0.032061
  0
VERTEX
  8
0
 10
2436.704822
 20
795.778416
 42
0.012184
  0
VERTEX
  8
0
 10
2392.245252
 20
780.337701
 42
0.011362
  0
VERTEX
  8
0
 10
2341.836525
 20
760.124648
 42
0.009728
  0
VERTEX
  8
0
 10
2289.692768
 20
736.617427
 42
-0.002240
  0
VERTEX
  8
0
 10
2278.362649
 20
731.304054
 42
-0.002674
  0
VERTEX
  8
0
 10
2267.634431
 20
726.400980
 42
-0.002307
  0
VERTEX
  8
0
 10
2258.550063
 20
722.358092
 42
-0.017460
  0
VERTEX
  8
0
 10
2254.190403
 20
720.620881
 42
-0.018611
  0
VERTEX
  8
0
 10
2249.009065
 20
718.977953
 42
-0.036855
  0
VERTEX
  8
0
 10
2244.782035
 20
718.137965
 42
-0.050595
  0
VERTEX
  8
0
 10
2241.851124
 20
718.075287
 42
-0.391052
  0
VERTEX
  8
0
 10
2241.000000
 20
718.997119
 42
-0.223058
  0
VERTEX
  8
0
 10
2243.350501
 20
724.003787
 42
-0.005077
  0
VERTEX
  8
0
 10
2264.334381
 20
741.069436
 42
-0.010178
  0
VERTEX
  8
0
 10
2290.378900
 20
760.962195
 42
-0.006097
  0
VERTEX
  8
0
 10
2322.079735
 20
783.580565
 42
-0.008872
  0
VERTEX
  8
0
 10
2350.585688
 20
802.658172
 42
-0.022260
  0
VERTEX
  8
0
 10
2372.196811
 20
815.248949
 42
-0.029920
  0
VERTEX
  8
0
 10
2388.879455
 20
822.762997
 42
-0.091094
  0
VERTEX
  8
0
 10
2401.056114
 20
825.000000
 42
0.029365
  0
VERTEX
  8
0
 10
2405.746591
 20
825.275712
 42
0.020607
  0
VERTEX
  8
0
 10
2410.971652
 20
826.111618
 42
0.020842
  0
VERTEX
  8
0
 10
2415.873898
 20
827.319196
 42
0.044644
  0
VERTEX
  8
0
 10
2419.500000
 20
828.735775
 42
0.098569
  0
VERTEX
  8
0
 10
2426.212504
 20
833.925633
 42
0.226153
  0
VERTEX
  8
0
 10
2427.883779
 20
839.933786
 42
0.179586
  0
VERTEX
  8
0
 10
2424.285885
 20
846.089953
 42
0.063511
  0
VERTEX
  8
0
 10
2415.492646
 20
851.598748
 42
0.036563
  0
VERTEX
  8
0
 10
2406.769546
 20
854.879334
 42
0.036483
  0
VERTEX
  8
0
 10
2397.655245
 20
856.857159
 42
0.029516
  0
VERTEX
  8
0
 10
2386.790199
 20
857.747255
 42
0.013351
  0
VERTEX
  8
0
 10
2372.500000
 20
857.690461
 42
0.024206
  0
VERTEX
  8
0
 10
2347.138555
 20
855.680776
 42
0.014767
  0
VERTEX
  8
0
 10
2317.461076
 20
850.982457
 42
0.009974
  0
VERTEX
  8
0
 10
2277.775979
 20
842.669472
 42
0.003102
  0
VERTEX
  8
0
 10
2218.500000
 20
828.625301
 42
-0.002085
  0
VERTEX
  8
0
 10
2181.372670
 20
819.749039
 42
-0.004957
  0
VERTEX
  8
0
 10
2153.671905
 20
813.537517
 42
-0.001448
  0
VERTEX
  8
0
 10
2131.392700
 20
808.840606
 42
-0.255588
  0
VERTEX
  8
0
 10
2129.160600
 20
809.520280
 42
-0.474021
  0
VERTEX
  8
0
 10
2129.417423
 20
811.834101
 42
-0.006391
  0
VERTEX
  8
0
 10
2143.198905
 20
820.516183
 42
-0.012341
  0
VERTEX
  8
0
 10
2160.680327
 20
830.635064
 42
-0.006983
  0
VERTEX
  8
0
 10
2182.321305
 20
842.068973
 42
-0.007688
  0
VERTEX
  8
0
 10
2206.226330
 20
853.815292
 42
-0.016191
  0
VERTEX
  8
0
 10
2225.197263
 20
862.037388
 42
-0.018546
  0
VERTEX
  8
0
 10
2242.923330
 20
868.297796
 42
-0.014238
  0
VERTEX
  8
0
 10
2262.694659
 20
873.853614
 42
-0.009069
  0
VERTEX
  8
0
 10
2278.380974
 20
877.482263
 42
-0.013000
  0
VERTEX
  8
0
 10
2292.412957
 20
880.081921
 42
-0.013614
  0
VERTEX
  8
0
 10
2306.044900
 20
881.863614
 42
-0.011604
  0
VERTEX
  8
0
 10
2320.500000
 20
883.015635
 42
0.004819
  0
VERTEX
  8
0
 10
2327.300515
 20
883.464847
 42
0.005823
  0
VERTEX
  8
0
 10
2333.674627
 20
884.022363
 42
0.004997
  0
VERTEX
  8
0
 10
2339.023382
 20
884.607058
 42
0.039081
  0
VERTEX
  8
0
 10
2341.477454
 20
885.096859
 42
0.077278
  0
VERTEX
  8
0
 10
2345.273040
 20
886.834708
 42
0.047074
  0
VERTEX
  8
0
 10
2349.123044
 20
889.933444
 42
0.047491
  0
VERTEX
  8
0
 10
2352.095762
 20
893.433517
 42
0.153487
  0
VERTEX
  8
0
 10
2353.000000
 20
896.309773
 42
0.306981
  0
VERTEX
  8
0
 10
2348.701321
 20
902.651509
 42
0.031940
  0
VERTEX
  8
0
 10
2330.680386
 20
908.534447
 42
0.017694
  0
VERTEX
  8
0
 10
2298.256012
 20
915.659305
 42
0.002595
  0
VERTEX
  8
0
 10
2232.000000
 20
927.423428
 42
-0.000689
  0
VERTEX
  8
0
 10
2212.159174
 20
930.868300
 42
-0.000825
  0
VERTEX
  8
0
 10
2193.480384
 20
934.169698
 42
-0.000708
  0
VERTEX
  8
0
 10
2177.743745
 20
937.000848
 42
-0.005439
  0
VERTEX
  8
0
 10
2170.380032
 20
938.419317
 42
-0.008794
  0
VERTEX
  8
0
 10
2150.649593
 20
942.805856
 42
-0.031882
  0
VERTEX
  8
0
 10
2138.374302
 20
946.604329
 42
-0.052383
  0
VERTEX
  8
0
 10
2131.126877
 20
950.272169
 42
-0.254708
  0
VERTEX
  8
0
 10
2129.000000
 20
954.176426
 42
-0.358593
  0
VERTEX
  8
0
 10
2131.352070
 20
957.034292
 42
-0.059441
  0
VERTEX
  8
0
 10
2139.005421
 20
957.607960
 42
-0.028125
  0
VERTEX
  8
0
 10
2152.728089
 20
956.228853
 42
-0.005313
  0
VERTEX
  8
0
 10
2177.562540
 20
952.041876
 42
0.004846
  0
VERTEX
  8
0
 10
2208.990583
 20
946.713005
 42
0.012926
  0
VERTEX
  8
0
 10
2231.527373
 20
943.711164
 42
0.017078
  0
VERTEX
  8
0
 10
2250.120142
 20
942.362416
 42
0.017922
  0
VERTEX
  8
0
 10
2268.464008
 20
942.317968
 42
0.042255
  0
VERTEX
  8
0
 10
2327.029883
 20
949.253699
 42
0.019841
  0
VERTEX
  8
0
 10
2401.127358
 20
967.544946
 42
0.018596
  0
VERTEX
  8
0
 10
2481.961232
 20
994.232013
 42
0.017671
  0
VERTEX
  8
0
 10
2562.000000
 20
1027.263881
 42
0.008103
  0
VERTEX
  8
0
 10
2630.711746
 20
1059.859877
 42
0.006330
  0
VERTEX
  8
0
 10
2704.280118
 20
1097.398154
 42
0.006309
  0
VERTEX
  8
0
 10
2777.207905
 20
1136.963822
 42
0.007827
  0
VERTEX
  8
0
 10
2844.000000
 20
1175.683571
 42
0.003254
  0
VERTEX
  8
0
 10
2883.254325
 20
1199.617192
 42
0.029724
  0
VERTEX
  8
0
 10
2899.609758
 20
1211.132868
 42
0.077507
  0
VERTEX
  8
0
 10
2907.357340
 20
1219.563617
 42
0.148193
  0
VERTEX
  8
0
 10
2910.000000
 20
1228.284058
 42
0.066803
  0
VERTEX
  8
0
 10
2909.193853
 20
1234.290933
 42
0.154711
  0
VERTEX
  8
0
 10
2906.751393
 20
1238.069801
 42
0.163267
  0
VERTEX
  8
0
 10
2902.682753
 20
1239.630705
 42
0.076569
  0
VERTEX
  8
0
 10
2897.012359
 20
1239.003328
 42
0.043604
  0
VERTEX
  8
0
 10
2887.564651
 20
1235.552653
 42
0.016174
  0
VERTEX
  8
0
 10
2874.930924
 20
1229.140166
 42
0.009809
  0
VERTEX
  8
0
 10
2856.523361
 20
1218.560387
 42
0.002274
  0
VERTEX
  8
0
 10
2826.000000
 20
1200.021730
 42
-0.009600
  0
VERTEX
  8
0
 10
2740.141996
 20
1149.582008
 42
-0.010149
  0
VERTEX
  8
0
 10
2653.970970
 20
1103.434926
 42
-0.010561
  0
VERTEX
  8
0
 10
2569.682805
 20
1062.693368
 42
-0.013079
  0
VERTEX
  8
0
 10
2489.500000
 20
1028.511477
 42
-0.016757
  0
VERTEX
  8
0
 10
2427.462323
 20
1006.335592
 42
-0.017929
  0
VERTEX
  8
0
 10
2365.451291
 20
988.910332
 42
-0.019151
  0
VERTEX
  8
0
 10
2307.511435
 20
977.178235
 42
-0.031944
  0
VERTEX
  8
0
 10
2258.000000
 20
972.329433
 42
-0.045758
  0
VERTEX
  8
0
 10
2219.990308
 20
974.524899
 42
-0.040356
  0
VERTEX
  8
0
 10
2181.322044
 20
983.571331
 42
-0.041066
  0
VERTEX
  8
0
 10
2145.350610
 20
998.465775
 42
-0.052654
  0
VERTEX
  8
0
 10
2115.395134
 20
1018.085949
 42
-0.053627
  0
VERTEX
  8
0
 10
2092.372955
 20
1041.424819
 42
-0.045809
  0
VERTEX
  8
0
 10
2073.433048
 20
1070.342019
 42
-0.045039
  0
VERTEX
  8
0
 10
2059.791243
 20
1102.762357
 42
-0.047633
  0
VERTEX
  8
0
 10
2052.491684
 20
1136.500000
 42
-0.020276
  0
VERTEX
  8
0
 10
2050.636500
 20
1160.440342
 42
-0.011628
  0
VERTEX
  8
0
 10
2050.244429
 20
1189.403250
 42
-0.011523
  0
VERTEX
  8
0
 10
2051.215648
 20
1219.034404
 42
-0.016633
  0
VERTEX
  8
0
 10
2053.547675
 20
1245.145800
 42
-0.020786
  0
VERTEX
  8
0
 10
2056.779445
 20
1264.686546
 42
-0.011305
  0
VERTEX
  8
0
 10
2062.281513
 20
1288.390654
 42
-0.010915
  0
VERTEX
  8
0
 10
2069.263833
 20
1313.375208
 42
-0.012383
  0
VERTEX
  8
0
 10
2077.066747
 20
1336.991903
 42
-0.025290
  0
VERTEX
  8
0
 10
2101.772095
 20
1396.343492
 42
-0.026167
  0
VERTEX
  8
0
 10
2132.095401
 20
1452.203993
 42
-0.027149
  0
VERTEX
  8
0
 10
2166.802246
 20
1502.508877
 42
-0.033348
  0
VERTEX
  8
0
 10
2204.628527
 20
1545.213708
 42
-0.008839
  0
VERTEX
  8
0
 10
2216.860191
 20
1556.875570
 42
-0.015998
  0
VERTEX
  8
0
 10
2227.332445
 20
1565.911164
 42
-0.014589
  0
VERTEX
  8
0
 10
2238.992147
 20
1574.788117
 42
-0.006072
  0
VERTEX
  8
0
 10
2255.213971
 20
1586.111268
 42
0.007005
  0
VERTEX
  8
0
 10
2269.130536
 20
1595.863949
 42
0.014523
  0
VERTEX
  8
0
 10
2279.655752
 20
1603.937156
 42
0.014006
  0
VERTEX
  8
0
 10
2287.219727
 20
1610.456637
 42
0.131776
  0
VERTEX
  8
0
 10
2289.512014
 20
1614.037851
 42
0.256245
  0
VERTEX
  8
0
 10
2288.462640
 20
1619.368718
 42
0.168152
  0
VERTEX
  8
0
 10
2282.972105
 20
1622.671491
 42
0.088983
  0
VERTEX
  8
0
 10
2273.156330
 20
1622.974543
 42
0.044126
  0
VERTEX
  8
0
 10
2261.000000
 20
1620.066210
 42
0.066621
  0
VERTEX
  8
0
 10
2229.712521
 20
1604.717667
 42
0.033413
  0
VERTEX
  8
0
 10
2194.751642
 20
1577.812338
 42
0.031445
  0
VERTEX
  8
0
 10
2160.498484
 20
1543.546216
 42
0.032161
  0
VERTEX
  8
0
 10
2131.089891
 20
1505.500000
 42
0.024394
  0
VERTEX
  8
0
 10
2107.168386
 20
1466.038349
 42
0.015054
  0
VERTEX
  8
0
 10
2082.772404
 20
1417.541592
 42
0.014793
  0
VERTEX
  8
0
 10
2060.633235
 20
1366.096567
 42
0.018982
  0
VERTEX
  8
0
 10
2043.505897
 20
1317.500000
 42
0.014087
  0
VERTEX
  8
0
 10
2033.037952
 20
1280.072033
 42
0.016560
  0
VERTEX
  8
0
 10
2025.310972
 20
1244.070928
 42
0.016339
  0
VERTEX
  8
0
 10
2019.906576
 20
1207.223480
 42
0.013061
  0
VERTEX
  8
0
 10
2016.425825
 20
1167.239358
 42
0.000000
  0
VERTEX
  8
0
 10
2015.741314
 20
1155.978717
 42
0.000000
  0
VERTEX
  8
0
 10
1974.120657
 20
1156.536996
 42
-0.002063
  0
VERTEX
  8
0
 10
1889.347017
 20
1158.023900
 42
-0.007559
  0
VERTEX
  8
0
 10
1835.678058
 20
1159.998743
 42
-0.011654
  0
VERTEX
  8
0
 10
1796.166267
 20
1162.975789
 42
-0.016221
  0
VERTEX
  8
0
 10
1761.000000
 20
1167.607305
 42
-0.015951
  0
VERTEX
  8
0
 10
1731.025894
 20
1173.536488
 42
-0.015529
  0
VERTEX
  8
0
 10
1701.218367
 20
1181.409899
 42
-0.009885
  0
VERTEX
  8
0
 10
1675.276027
 20
1189.693278
 42
-0.179309
  0
VERTEX
  8
0
 10
1668.643822
 20
1195.097008
 42
-0.196917
  0
VERTEX
  8
0
 10
1668.433736
 20
1196.551906
 42
-0.013498
  0
VERTEX
  8
0
 10
1669.576921
 20
1200.643599
 42
-0.013147
  0
VERTEX
  8
0
 10
1671.573554
 20
1206.554971
 42
-0.003776
  0
VERTEX
  8
0
 10
1674.972613
 20
1215.597008
 42
0.007205
  0
VERTEX
  8
0
 10
1690.244628
 20
1257.084509
 42
0.012512
  0
VERTEX
  8
0
 10
1701.556343
 20
1292.002149
 42
0.014991
  0
VERTEX
  8
0
 10
1709.428612
 20
1321.800559
 42
0.024617
  0
VERTEX
  8
0
 10
1714.074109
 20
1347.463740
 42
0.017955
  0
VERTEX
  8
0
 10
1714.523313
 20
1352.231033
 42
0.008182
  0
VERTEX
  8
0
 10
1714.784107
 20
1358.484573
 42
0.007593
  0
VERTEX
  8
0
 10
1714.855858
 20
1365.567744
 42
0.006668
  0
VERTEX
  8
0
 10
1714.719802
 20
1372.963740
 42
0.015998
  0
VERTEX
  8
0
 10
1713.880792
 20
1386.112311
 42
0.026897
  0
VERTEX
  8
0
 10
1712.233704
 20
1397.047525
 42
0.027756
  0
VERTEX
  8
0
 10
1709.466667
 20
1407.500466
 42
0.018475
  0
VERTEX
  8
0
 10
1705.201380
 20
1419.141128
 42
0.047194
  0
VERTEX
  8
0
 10
1697.455283
 20
1433.930160
 42
0.018206
  0
VERTEX
  8
0
 10
1684.111753
 20
1452.891813
 42
0.013615
  0
VERTEX
  8
0
 10
1664.651340
 20
1477.112447
 42
0.005477
  0
VERTEX
  8
0
 10
1636.811484
 20
1509.174381
 42
-0.013346
  0
VERTEX
  8
0
 10
1594.829462
 20
1559.088745
 42
-0.024746
  0
VERTEX
  8
0
 10
1563.941878
 20
1602.069874
 42
-0.016996
  0
VERTEX
  8
0
 10
1530.782909
 20
1657.431164
 42
-0.003401
  0
VERTEX
  8
0
 10
1475.718259
 20
1758.500000
 42
0.000000
  0
VERTEX
  8
0
 10
1459.101222
 20
1789.500000
 42
0.000000
  0
VERTEX
  8
0
 10
1458.024041
 20
1815.500000
 42
0.007813
  0
VERTEX
  8
0
 10
1456.179821
 20
1847.800948
 42
0.028758
  0
VERTEX
  8
0
 10
1453.525389
 20
1868.079432
 42
0.046751
  0
VERTEX
  8
0
 10
1449.616248
 20
1881.618141
 42
0.098817
  0
VERTEX
  8
0
 10
1443.730966
 20
1890.769321
 42
0.087586
  0
VERTEX
  8
0
 10
1439.024005
 20
1894.183633
 42
0.100241
  0
VERTEX
  8
0
 10
1433.649319
 20
1895.573273
 42
0.109328
  0
VERTEX
  8
0
 10
1428.522058
 20
1894.721650
 42
0.122838
  0
VERTEX
  8
0
 10
1424.480418
 20
1891.794358
 42
0.132951
  0
VERTEX
  8
0
 10
1422.293376
 20
1887.089772
 42
0.059724
  0
VERTEX
  8
0
 10
1421.939801
 20
1880.229684
 42
0.035915
  0
VERTEX
  8
0
 10
1423.350211
 20
1870.192956
 42
0.009945
  0
VERTEX
  8
0
 10
1427.000000
 20
1854.695879
 42
-0.008691
  0
VERTEX
  8
0
 10
1430.278679
 20
1840.929416
 42
-0.028218
  0
VERTEX
  8
0
 10
1431.773470
 20
1831.667173
 42
-0.042940
  0
VERTEX
  8
0
 10
1431.887152
 20
1825.265612
 42
-0.136575
  0
VERTEX
  8
0
 10
1430.475059
 20
1821.267854
 42
-0.068619
  0
VERTEX
  8
0
 10
1429.505376
 20
1820.222865
 42
-0.016523
  0
VERTEX
  8
0
 10
1427.624174
 20
1818.784760
 42
-0.016657
  0
VERTEX
  8
0
 10
1425.334982
 20
1817.264129
 42
-0.015835
  0
VERTEX
  8
0
 10
1422.911325
 20
1815.872053
 42
0.074215
  0
VERTEX
  8
0
 10
1415.334885
 20
1810.256326
 42
0.209488
  0
VERTEX
  8
0
 10
1412.993352
 20
1804.251100
 42
0.128064
  0
VERTEX
  8
0
 10
1415.409913
 20
1796.325816
 42
0.022276
  0
VERTEX
  8
0
 10
1424.256294
 20
1783.262360
 42
-0.019536
  0
VERTEX
  8
0
 10
1432.565550
 20
1771.135707
 42
-0.004953
  0
VERTEX
  8
0
 10
1445.083219
 20
1750.799091
 42
-0.004489
  0
VERTEX
  8
0
 10
1460.335226
 20
1724.938662
 42
-0.002701
  0
VERTEX
  8
0
 10
1477.987605
 20
1694.000000
 42
0.004873
  0
VERTEX
  8
0
 10
1524.183139
 20
1613.845869
 42
0.016167
  0
VERTEX
  8
0
 10
1556.761252
 20
1562.445998
 42
0.019095
  0
VERTEX
  8
0
 10
1589.644931
 20
1517.855983
 42
0.009113
  0
VERTEX
  8
0
 10
1635.097394
 20
1462.990844
 42
-0.008941
  0
VERTEX
  8
0
 10
1654.581496
 20
1439.488281
 42
-0.023576
  0
VERTEX
  8
0
 10
1667.411777
 20
1421.785938
 42
-0.032158
  0
VERTEX
  8
0
 10
1675.941297
 20
1406.740047
 42
-0.042157
  0
VERTEX
  8
0
 10
1681.610441
 20
1392.000000
 42
-0.031965
  0
VERTEX
  8
0
 10
1682.605777
 20
1387.527879
 42
-0.023350
  0
VERTEX
  8
0
 10
1683.156467
 20
1382.467341
 42
-0.013197
  0
VERTEX
  8
0
 10
1683.415390
 20
1375.137152
 42
-0.002613
  0
VERTEX
  8
0
 10
1683.463839
 20
1362.000000
 42
-0.009346
  0
VERTEX
  8
0
 10
1683.103727
 20
1344.202297
 42
-0.028978
  0
VERTEX
  8
0
 10
1681.942472
 20
1332.251106
 42
-0.029374
  0
VERTEX
  8
0
 10
1679.416171
 20
1320.600538
 42
-0.009813
  0
VERTEX
  8
0
 10
1674.396459
 20
1303.894528
 42
-0.024886
  0
VERTEX
  8
0
 10
1648.610199
 20
1235.652284
 42
-0.005953
  0
VERTEX
  8
0
 10
1598.848900
 20
1125.098995
 42
-0.006453
  0
VERTEX
  8
0
 10
1543.310662
 20
1009.465230
 42
-0.011495
  0
VERTEX
  8
0
 10
1494.216631
 20
916.000000
 42
-0.005475
  0
VERTEX
  8
0
 10
1473.278125
 20
879.225174
 42
-0.018682
  0
VERTEX
  8
0
 10
1458.511909
 20
855.978745
 42
-0.027624
  0
VERTEX
  8
0
 10
1445.605241
 20
839.297019
 42
-0.032055
  0
VERTEX
  8
0
 10
1431.523244
 20
825.000000
 42
-0.052049
  0
VERTEX
  8
0
 10
1402.892543
 20
804.348521
 42
-0.062192
  0
VERTEX
  8
0
 10
1372.230119
 20
791.505426
 42
-0.041281
  0
VERTEX
  8
0
 10
1330.319376
 20
783.448926
 42
-0.010583
  0
VERTEX
  8
0
 10
1261.500000
 20
777.499714
 42
0.006775
  0
VERTEX
  8
0
 10
1192.408539
 20
772.056775
 42
0.021751
  0
VERTEX
  8
0
 10
1146.683327
 20
765.815344
 42
0.031765
  0
VERTEX
  8
0
 10
1112.375151
 20
757.322615
 42
0.039563
  0
VERTEX
  8
0
 10
1081.946472
 20
744.983123
 42
0.024014
  0
VERTEX
  8
0
 10
1064.962607
 20
735.430338
 42
0.022079
  0
VERTEX
  8
0
 10
1048.473799
 20
724.039708
 42
0.018022
  0
VERTEX
  8
0
 10
1030.322930
 20
709.219467
 42
0.008570
  0
VERTEX
  8
0
 10
1008.000000
 20
688.922261
 42
-0.011625
  0
VERTEX
  8
0
 10
981.393617
 20
665.025580
 42
-0.039050
  0
VERTEX
  8
0
 10
962.493081
 20
651.230839
 42
-0.061035
  0
VERTEX
  8
0
 10
946.997319
 20
644.114638
 42
-0.088821
  0
VERTEX
  8
0
 10
932.124376
 20
642.148834
 42
-0.016652
  0
VERTEX
  8
0
 10
927.914545
 20
642.482387
 42
-0.033970
  0
VERTEX
  8
0
 10
924.654327
 20
643.076595
 42
-0.034534
  0
VERTEX
  8
0
 10
921.538785
 20
644.099506
 42
-0.017809
  0
VERTEX
  8
0
 10
917.793467
 20
645.780574
 42
-0.067805
  0
VERTEX
  8
0
 10
908.828573
 20
651.820937
 42
-0.084953
  0
VERTEX
  8
0
 10
902.588428
 20
659.649278
 42
-0.103003
  0
VERTEX
  8
0
 10
900.069301
 20
667.845089
 42
-0.157914
  0
VERTEX
  8
0
 10
901.679406
 20
675.034424
 42
-0.132691
  0
VERTEX
  8
0
 10
906.284211
 20
679.529966
 42
-0.048809
  0
VERTEX
  8
0
 10
914.679360
 20
683.198853
 42
-0.029900
  0
VERTEX
  8
0
 10
927.910572
 20
686.643479
 42
-0.008150
  0
VERTEX
  8
0
 10
949.170195
 20
690.481449
 42
0.008474
  0
VERTEX
  8
0
 10
965.787579
 20
693.492480
 42
0.017176
  0
VERTEX
  8
0
 10
978.723065
 20
696.528731
 42
0.019580
  0
VERTEX
  8
0
 10
990.268883
 20
700.151615
 42
0.015531
  0
VERTEX
  8
0
 10
1002.439306
 20
704.931925
 42
0.023039
  0
VERTEX
  8
0
 10
1020.739152
 20
713.803275
 42
0.021607
  0
VERTEX
  8
0
 10
1038.552634
 20
724.497500
 42
0.017905
  0
VERTEX
  8
0
 10
1058.116612
 20
738.455170
 42
0.008833
  0
VERTEX
  8
0
 10
1082.000000
 20
757.500000
 42
-0.005767
  0
VERTEX
  8
0
 10
1099.140596
 20
771.340825
 42
-0.009434
  0
VERTEX
  8
0
 10
1114.016370
 20
782.623403
 42
-0.010893
  0
VERTEX
  8
0
 10
1127.497820
 20
792.010531
 42
-0.013815
  0
VERTEX
  8
0
 10
1140.362998
 20
800.055325
 42
0.059721
  0
VERTEX
  8
0
 10
1154.329806
 20
810.683935
 42
0.227693
  0
VERTEX
  8
0
 10
1158.015359
 20
820.679692
 42
0.205640
  0
VERTEX
  8
0
 10
1152.620261
 20
830.552289
 42
0.049226
  0
VERTEX
  8
0
 10
1136.500000
 20
840.809281
 42
0.009469
  0
VERTEX
  8
0
 10
1129.534206
 20
844.168640
 42
0.012678
  0
VERTEX
  8
0
 10
1123.087558
 20
846.932819
 42
0.007731
  0
VERTEX
  8
0
 10
1114.464701
 20
850.220383
 42
0.001434
  0
VERTEX
  8
0
 10
1098.500000
 20
855.974222
 42
-0.002793
  0
VERTEX
  8
0
 10
1088.986998
 20
859.432039
 42
-0.001015
  0
VERTEX
  8
0
 10
1075.534375
 20
864.438145
 42
-0.001006
  0
VERTEX
  8
0
 10
1060.835607
 20
869.975710
 42
-0.001200
  0
VERTEX
  8
0
 10
1047.000000
 20
875.257919
 42
0.003399
  0
VERTEX
  8
0
 10
1021.948629
 20
884.696131
 42
0.006883
  0
VERTEX
  8
0
 10
1002.082660
 20
891.717753
 42
0.008650
  0
VERTEX
  8
0
 10
985.911842
 20
896.874163
 42
0.015699
  0
VERTEX
  8
0
 10
972.500000
 20
900.441758
 42
-0.007313
  0
VERTEX
  8
0
 10
963.636115
 20
902.641102
 42
-0.021821
  0
VERTEX
  8
0
 10
957.668231
 20
904.496822
 42
-0.025327
  0
VERTEX
  8
0
 10
953.809054
 20
906.109166
 42
-0.377078
  0
VERTEX
  8
0
 10
953.279042
 20
907.351599
 42
-0.150341
  0
VERTEX
  8
0
 10
954.789541
 20
909.483551
 42
-0.026466
  0
VERTEX
  8
0
 10
958.880635
 20
912.300594
 42
-0.028269
  0
VERTEX
  8
0
 10
963.924374
 20
915.014086
 42
-0.030837
  0
VERTEX
  8
0
 10
969.100161
 20
917.053800
 42
-0.018439
  0
VERTEX
  8
0
 10
973.467238
 20
918.294792
 42
-0.029872
  0
VERTEX
  8
0
 10
977.263795
 20
918.986715
 42
-0.024363
  0
VERTEX
  8
0
 10
981.623714
 20
919.300425
 42
-0.008204
  0
VERTEX
  8
0
 10
988.000000
 20
919.343183
 42
-0.043773
  0
VERTEX
  8
0
 10
1007.312869
 20
917.460196
 42
-0.030441
  0
VERTEX
  8
0
 10
1028.581975
 20
912.130117
 42
-0.025238
  0
VERTEX
  8
0
 10
1052.848347
 20
903.082701
 42
-0.014159
  0
VERTEX
  8
0
 10
1081.388994
 20
889.797508
 42
0.007941
  0
VERTEX
  8
0
 10
1093.846959
 20
883.808959
 42
0.010039
  0
VERTEX
  8
0
 10
1105.558237
 20
878.689195
 42
0.010929
  0
VERTEX
  8
0
 10
1115.727924
 20
874.742462
 42
0.029213
  0
VERTEX
  8
0
 10
1123.175897
 20
872.520461
 42
0.025168
  0
VERTEX
  8
0
 10
1126.312535
 20
871.945810
 42
0.010069
  0
VERTEX
  8
0
 10
1130.653232
 20
871.463172
 42
0.009934
  0
VERTEX
  8
0
 10
1135.362299
 20
871.129550
 42
0.012355
  0
VERTEX
  8
0
 10
1139.750000
 20
871.014781
 42
0.000000
  0
VERTEX
  8
0
 10
1150.000000
 20
871.000000
 42
0.000000
  0
VERTEX
  8
0
 10
1149.992446
 20
889.250000
 42
0.016900
  0
VERTEX
  8
0
 10
1149.299728
 20
909.490302
 42
0.070718
  0
VERTEX
  8
0
 10
1146.775361
 20
921.379996
 42
0.065557
  0
VERTEX
  8
0
 10
1140.952876
 20
932.527575
 42
0.013253
  0
VERTEX
  8
0
 10
1127.606059
 20
950.500000
 42
-0.001645
  0
VERTEX
  8
0
 10
1122.509640
 20
957.039875
 42
-0.002727
  0
VERTEX
  8
0
 10
1118.258954
 20
962.593960
 42
-0.000307
  0
VERTEX
  8
0
 10
1114.510328
 20
967.554104
 42
-0.347948
  0
VERTEX
  8
0
 10
1114.515985
 20
967.798587
 42
-0.377249
  0
VERTEX
  8
0
 10
1114.747423
 20
967.835103
 42
-0.000302
  0
VERTEX
  8
0
 10
1120.086657
 20
964.445898
 42
-0.002730
  0
VERTEX
  8
0
 10
1126.071000
 20
960.596077
 42
-0.001642
  0
VERTEX
  8
0
 10
1133.131921
 20
955.965885
 42
0.011228
  0
VERTEX
  8
0
 10
1157.566643
 20
940.604457
 42
0.024601
  0
VERTEX
  8
0
 10
1177.061906
 20
930.216184
 42
0.029765
  0
VERTEX
  8
0
 10
1194.924642
 20
923.063228
 42
0.027434
  0
VERTEX
  8
0
 10
1214.000000
 20
917.855399
 42
0.015771
  0
VERTEX
  8
0
 10
1220.653597
 20
916.643793
 42
0.020465
  0
VERTEX
  8
0
 10
1226.816239
 20
915.977744
 42
0.013269
  0
VERTEX
  8
0
 10
1234.778834
 20
915.657476
 42
0.002900
  0
VERTEX
  8
0
 10
1248.500000
 20
915.549567
 42
0.001881
  0
VERTEX
  8
0
 10
1264.100096
 20
915.576041
 42
0.020086
  0
VERTEX
  8
0
 10
1270.431827
 20
915.865132
 42
0.041453
  0
VERTEX
  8
0
 10
1274.959868
 20
916.636112
 42
0.022092
  0
VERTEX
  8
0
 10
1280.399159
 20
918.293004
 42
0.043083
  0
VERTEX
  8
0
 10
1294.468062
 20
924.676884
 42
0.036038
  0
VERTEX
  8
0
 10
1308.151503
 20
933.722857
 42
0.034905
  0
VERTEX
  8
0
 10
1320.830409
 20
944.977455
 42
0.034275
  0
VERTEX
  8
0
 10
1331.903900
 20
957.951379
 42
0.045074
  0
VERTEX
  8
0
 10
1348.522569
 20
985.183904
 42
0.023828
  0
VERTEX
  8
0
 10
1364.318251
 20
1021.507888
 42
0.016241
  0
VERTEX
  8
0
 10
1381.809653
 20
1072.563628
 42
0.005290
  0
VERTEX
  8
0
 10
1404.370007
 20
1149.000000
 42
-0.005020
  0
VERTEX
  8
0
 10
1414.925920
 20
1184.835590
 42
-0.011003
  0
VERTEX
  8
0
 10
1423.880354
 20
1211.992134
 42
-0.013684
  0
VERTEX
  8
0
 10
1432.577841
 20
1234.558070
 42
-0.015242
  0
VERTEX
  8
0
 10
1442.212510
 20
1255.805071
 42
-0.024853
  0
VERTEX
  8
0
 10
1453.749925
 20
1276.630940
 42
-0.032164
  0
VERTEX
  8
0
 10
1466.436601
 20
1294.405198
 42
-0.034743
  0
VERTEX
  8
0
 10
1480.360002
 20
1309.241435
 42
-0.039976
  0
VERTEX
  8
0
 10
1495.602324
 20
1321.261780
 42
0.011825
  0
VERTEX
  8
0
 10
1499.847421
 20
1324.238256
 42
0.009654
  0
VERTEX
  8
0
 10
1504.249220
 20
1327.615591
 42
0.009781
  0
VERTEX
  8
0
 10
1508.180663
 20
1330.882392
 42
0.025101
  0
VERTEX
  8
0
 10
1510.852324
 20
1333.437370
 42
0.039288
  0
VERTEX
  8
0
 10
1514.602890
 20
1338.084924
 42
0.130656
  0
VERTEX
  8
0
 10
1515.903050
 20
1341.753214
 42
0.117968
  0
VERTEX
  8
0
 10
1515.274031
 20
1345.803469
 42
0.029211
  0
VERTEX
  8
0
 10
1512.347254
 20
1351.903900
 42
0.020377
  0
VERTEX
  8
0
 10
1490.472749
 20
1387.865325
 42
0.004720
  0
VERTEX
  8
0
 10
1450.671000
 20
1446.461157
 42
0.005040
  0
VERTEX
  8
0
 10
1409.016627
 20
1505.280900
 42
0.014329
  0
VERTEX
  8
0
 10
1378.428005
 20
1545.109793
 42
0.010138
  0
VERTEX
  8
0
 10
1363.854048
 20
1562.277935
 42
0.007226
  0
VERTEX
  8
0
 10
1346.872537
 20
1580.928976
 42
0.005742
  0
VERTEX
  8
0
 10
1325.695942
 20
1603.009100
 42
0.002722
  0
VERTEX
  8
0
 10
1297.925621
 20
1631.000000
 42
-0.002966
  0
VERTEX
  8
0
 10
1267.438168
 20
1661.759560
 42
-0.015535
  0
VERTEX
  8
0
 10
1251.304082
 20
1679.289505
 42
-0.027831
  0
VERTEX
  8
0
 10
1241.196360
 20
1692.387560
 42
-0.035862
  0
VERTEX
  8
0
 10
1233.515308
 20
1705.500000
 42
-0.032143
  0
VERTEX
  8
0
 10
1227.829290
 20
1719.179085
 42
-0.036314
  0
VERTEX
  8
0
 10
1224.213475
 20
1732.932516
 42
-0.033575
  0
VERTEX
  8
0
 10
1222.442402
 20
1747.953582
 42
-0.021595
  0
VERTEX
  8
0
 10
1222.318612
 20
1765.500000
 42
-0.025667
  0
VERTEX
  8
0
 10
1223.943276
 20
1784.030658
 42
-0.023277
  0
VERTEX
  8
0
 10
1227.484579
 20
1802.920640
 42
-0.024306
  0
VERTEX
  8
0
 10
1232.409696
 20
1820.018093
 42
-0.047689
  0
VERTEX
  8
0
 10
1238.235118
 20
1832.910943
 42
-0.042357
  0
VERTEX
  8
0
 10
1242.860039
 20
1839.608517
 42
-0.025051
  0
VERTEX
  8
0
 10
1249.407519
 20
1846.792172
 42
-0.025127
  0
VERTEX
  8
0
 10
1256.501122
 20
1853.157761
 42
-0.050690
  0
VERTEX
  8
0
 10
1262.778799
 20
1857.269105
 42
-0.033384
  0
VERTEX
  8
0
 10
1270.178561
 20
1860.501005
 42
-0.047014
  0
VERTEX
  8
0
 10
1277.148830
 20
1862.288867
 42
-0.030811
  0
VERTEX
  8
0
 10
1286.265006
 20
1863.162334
 42
-0.006772
  0
VERTEX
  8
0
 10
1302.000000
 20
1863.482999
 42
0.006076
  0
VERTEX
  8
0
 10
1317.077915
 20
1863.769279
 42
0.030563
  0
VERTEX
  8
0
 10
1325.472216
 20
1864.545797
 42
0.057336
  0
VERTEX
  8
0
 10
1330.813114
 20
1866.011841
 42
0.101081
  0
VERTEX
  8
0
 10
1334.614952
 20
1868.524043
 42
0.101496
  0
VERTEX
  8
0
 10
1336.242935
 20
1870.992158
 42
0.077626
  0
VERTEX
  8
0
 10
1336.968891
 20
1874.151534
 42
0.071635
  0
VERTEX
  8
0
 10
1336.718050
 20
1877.624154
 42
0.065623
  0
VERTEX
  8
0
 10
1335.501051
 20
1880.997967
 42
0.096294
  0
VERTEX
  8
0
 10
1332.171647
 20
1885.206929
 42
0.049494
  0
VERTEX
  8
0
 10
1326.642515
 20
1889.076674
 42
0.041251
  0
VERTEX
  8
0
 10
1319.256117
 20
1892.457843
 42
0.026730
  0
VERTEX
  8
0
 10
1310.255764
 20
1895.176866
 42
0.038005
  0
VERTEX
  8
0
 10
1300.063703
 20
1896.863139
 42
0.021915
  0
VERTEX
  8
0
 10
1287.632798
 20
1897.412540
 42
0.021953
  0
VERTEX
  8
0
 10
1275.391656
 20
1896.879030
 42
0.043851
  0
VERTEX
  8
0
 10
1265.856474
 20
1895.192131
 42
0.078153
  0
VERTEX
  8
0
 10
1245.993905
 20
1886.352127
 42
0.066908
  0
VERTEX
  8
0
 10
1228.588602
 20
1871.441856
 42
0.059833
  0
VERTEX
  8
0
 10
1214.177947
 20
1850.793201
 42
0.043516
  0
VERTEX
  8
0
 10
1203.187104
 20
1825.000000
 42
0.020621
  0
VERTEX
  8
0
 10
1198.612606
 20
1808.762132
 42
0.020856
  0
VERTEX
  8
0
 10
1195.411193
 20
1792.263506
 42
0.018902
  0
VERTEX
  8
0
 10
1193.371827
 20
1774.156314
 42
0.012075
  0
VERTEX
  8
0
 10
1192.308745
 20
1753.000000
 42
0.002548
  0
VERTEX
  8
0
 10
1192.028201
 20
1739.617906
 42
0.015922
  0
VERTEX
  8
0
 10
1192.137621
 20
1732.769694
 42
0.028241
  0
VERTEX
  8
0
 10
1192.660794
 20
1727.771103
 42
0.021866
  0
VERTEX
  8
0
 10
1193.772602
 20
1722.409783
 42
0.031544
  0
VERTEX
  8
0
 10
1196.872705
 20
1712.774026
 42
0.014951
  0
VERTEX
  8
0
 10
1202.006278
 20
1700.773996
 42
0.014881
  0
VERTEX
  8
0
 10
1208.049118
 20
1688.695833
 42
0.023017
  0
VERTEX
  8
0
 10
1214.043010
 20
1678.689324
 42
0.025277
  0
VERTEX
  8
0
 10
1222.744412
 20
1666.910528
 42
0.014523
  0
VERTEX
  8
0
 10
1234.330873
 20
1653.588644
 42
0.007728
  0
VERTEX
  8
0
 10
1252.744545
 20
1634.228103
 42
0.001361
  0
VERTEX
  8
0
 10
1287.984133
 20
1598.500000
 42
-0.001291
  0
VERTEX
  8
0
 10
1307.183228
 20
1579.040249
 42
-0.001676
  0
VERTEX
  8
0
 10
1324.671264
 20
1561.103125
 42
-0.001253
  0
VERTEX
  8
0
 10
1339.239746
 20
1545.984348
 42
-0.015195
  0
VERTEX
  8
0
 10
1344.638198
 20
1540.000000
 42
-0.010977
  0
VERTEX
  8
0
 10
1358.996589
 20
1522.303403
 42
-0.009901
  0
VERTEX
  8
0
 10
1373.080110
 20
1503.382985
 42
-0.005673
  0
VERTEX
  8
0
 10
1391.985737
 20
1476.259956
 42
-0.001083
  0
VERTEX
  8
0
 10
1425.680223
 20
1426.500000
 42
-0.000260
  0
VERTEX
  8
0
 10
1457.294181
 20
1379.541306
 42
-0.003457
  0
VERTEX
  8
0
 10
1468.816391
 20
1362.148762
 42
-0.004496
  0
VERTEX
  8
0
 10
1475.200036
 20
1352.171700
 42
-0.140974
  0
VERTEX
  8
0
 10
1476.000000
 20
1349.390803
 42
-0.174068
  0
VERTEX
  8
0
 10
1474.598804
 20
1345.487913
 42
-0.049961
  0
VERTEX
  8
0
 10
1469.969727
 20
1340.893951
 42
-0.050195
  0
VERTEX
  8
0
 10
1464.324150
 20
1337.183465
 42
-0.120869
  0
VERTEX
  8
0
 10
1459.500000
 20
1336.000000
 42
-0.117062
  0
VERTEX
  8
0
 10
1455.682677
 20
1336.906141
 42
-0.037132
  0
VERTEX
  8
0
 10
1450.631559
 20
1339.936360
 42
-0.020613
  0
VERTEX
  8
0
 10
1443.234806
 20
1345.627438
 42
-0.004079
  0
VERTEX
  8
0
 10
1430.500000
 20
1356.467100
 42
0.006725
  0
VERTEX
  8
0
 10
1416.309375
 20
1368.416972
 42
0.007567
  0
VERTEX
  8
0
 10
1402.343032
 20
1379.511553
 42
0.008145
  0
VERTEX
  8
0
 10
1389.626713
 20
1388.977084
 42
0.017157
  0
VERTEX
  8
0
 10
1379.397230
 20
1395.815674
 42
0.022888
  0
VERTEX
  8
0
 10
1362.048160
 20
1405.501916
 42
0.013457
  0
VERTEX
  8
0
 10
1340.510928
 20
1415.549920
 42
0.011139
  0
VERTEX
  8
0
 10
1314.067721
 20
1426.337250
 42
0.006253
  0
VERTEX
  8
0
 10
1281.500000
 20
1438.319716
 42
-0.003054
  0
VERTEX
  8
0
 10
1238.806344
 20
1453.718436
 42
-0.007612
  0
VERTEX
  8
0
 10
1207.839934
 20
1465.639832
 42
-0.009573
  0
VERTEX
  8
0
 10
1181.839262
 20
1476.689746
 42
-0.008767
  0
VERTEX
  8
0
 10
1155.500000
 20
1489.042682
 42
-0.022756
  0
VERTEX
  8
0
 10
1109.807997
 20
1514.097794
 42
-0.024066
  0
VERTEX
  8
0
 10
1067.457566
 20
1542.773956
 42
-0.023409
  0
VERTEX
  8
0
 10
1027.038211
 20
1576.142615
 42
-0.019312
  0
VERTEX
  8
0
 10
987.127759
 20
1615.275605
 42
-0.019365
  0
VERTEX
  8
0
 10
953.814442
 20
1653.420348
 42
-0.023547
  0
VERTEX
  8
0
 10
925.786254
 20
1691.694351
 42
-0.019535
  0
VERTEX
  8
0
 10
897.748975
 20
1737.844852
 42
-0.008370
  0
VERTEX
  8
0
 10
863.785886
 20
1801.500000
 42
0.002785
  0
VERTEX
  8
0
 10
846.016505
 20
1835.719095
 42
0.006553
  0
VERTEX
  8
0
 10
832.279018
 20
1861.007640
 42
0.008016
  0
VERTEX
  8
0
 10
821.571822
 20
1879.418106
 42
0.032941
  0
VERTEX
  8
0
 10
814.197078
 20
1890.000000
 42
0.044537
  0
VERTEX
  8
0
 10
801.904865
 20
1902.841942
 42
0.030360
  0
VERTEX
  8
0
 10
785.897232
 20
1915.202866
 42
0.026260
  0
VERTEX
  8
0
 10
766.028943
 20
1927.230098
 42
0.017183
  0
VERTEX
  8
0
 10
742.000000
 20
1939.059660
 42
0.003953
  0
VERTEX
  8
0
 10
735.808522
 20
1941.789066
 42
0.001026
  0
VERTEX
  8
0
 10
725.800000
 20
1946.082626
 42
0.001043
  0
VERTEX
  8
0
 10
714.371874
 20
1950.929281
 42
0.001065
  0
VERTEX
  8
0
 10
703.000000
 20
1955.695617
 42
-0.004331
  0
VERTEX
  8
0
 10
669.828827
 20
1969.854256
 42
-0.009368
  0
VERTEX
  8
0
 10
644.626275
 20
1981.437748
 42
-0.012025
  0
VERTEX
  8
0
 10
625.309735
 20
1991.337687
 42
-0.025343
  0
VERTEX
  8
0
 10
610.936224
 20
2000.117178
 42
-0.028237
  0
VERTEX
  8
0
 10
591.400205
 20
2015.137694
 42
-0.016444
  0
VERTEX
  8
0
 10
569.656801
 20
2035.183967
 42
-0.015870
  0
VERTEX
  8
0
 10
548.042116
 20
2057.863477
 42
-0.017904
  0
VERTEX
  8
0
 10
528.797611
 20
2081.000000
 42
-0.012088
  0
VERTEX
  8
0
 10
522.063584
 20
2090.161729
 42
-0.002130
  0
VERTEX
  8
0
 10
509.911276
 20
2107.720199
 42
-0.000215
  0
VERTEX
  8
0
 10
496.325542
 20
2127.547847
 42
-0.603203
  0
VERTEX
  8
0
 10
496.563966
 20
2128.000000
 42
-0.121676
  0
VERTEX
  8
0
 10
496.871146
 20
2127.924124
 42
-0.000119
  0
VERTEX
  8
0
 10
503.243286
 20
2124.569674
 42
-0.001183
  0
VERTEX
  8
0
 10
510.360099
 20
2120.799505
 42
-0.000725
  0
VERTEX
  8
0
 10
518.734186
 20
2116.322293
 42
0.013552
  0
VERTEX
  8
0
 10
567.625167
 20
2091.773885
 42
0.016526
  0
VERTEX
  8
0
 10
614.678990
 20
2071.591891
 42
0.012713
  0
VERTEX
  8
0
 10
671.883840
 20
2050.923638
 42
0.004392
  0
VERTEX
  8
0
 10
755.500000
 20
2023.908358
 42
-0.003198
  0
VERTEX
  8
0
 10
836.589693
 20
1997.923014
 42
-0.008020
  0
VERTEX
  8
0
 10
895.300014
 20
1977.645915
 42
-0.010774
  0
VERTEX
  8
0
 10
940.861995
 20
1959.966952
 42
-0.016446
  0
VERTEX
  8
0
 10
979.500000
 20
1942.499937
 42
-0.007935
  0
VERTEX
  8
0
 10
998.545914
 20
1932.745332
 42
-0.011997
  0
VERTEX
  8
0
 10
1014.773460
 20
1923.600188
 42
-0.008982
  0
VERTEX
  8
0
 10
1033.581305
 20
1911.935352
 42
-0.002528
  0
VERTEX
  8
0
 10
1062.500000
 20
1893.064395
 42
0.001222
  0
VERTEX
  8
0
 10
1078.033151
 20
1882.870283
 42
0.001546
  0
VERTEX
  8
0
 10
1092.447432
 20
1873.524211
 42
0.001219
  0
VERTEX
  8
0
 10
1104.580589
 20
1865.752159
 42
0.012525
  0
VERTEX
  8
0
 10
1109.682747
 20
1862.678325
 42
0.018935
  0
VERTEX
  8
0
 10
1120.532966
 20
1857.039093
 42
0.057396
  0
VERTEX
  8
0
 10
1128.401376
 20
1854.372258
 42
0.098123
  0
VERTEX
  8
0
 10
1134.041991
 20
1854.279218
 42
0.183301
  0
VERTEX
  8
0
 10
1137.901138
 20
1856.601447
 42
0.225566
  0
VERTEX
  8
0
 10
1140.068860
 20
1866.168950
 42
0.124302
  0
VERTEX
  8
0
 10
1134.538447
 20
1877.104143
 42
0.055008
  0
VERTEX
  8
0
 10
1119.283873
 20
1891.182594
 42
0.012049
  0
VERTEX
  8
0
 10
1090.000000
 20
1911.707333
 42
0.010516
  0
VERTEX
  8
0
 10
1053.670862
 20
1934.798504
 42
0.012709
  0
VERTEX
  8
0
 10
1018.598079
 20
1954.867926
 42
0.013136
  0
VERTEX
  8
0
 10
983.599370
 20
1972.560616
 42
0.012889
  0
VERTEX
  8
0
 10
947.500000
 20
1988.509123
 42
0.010217
  0
VERTEX
  8
0
 10
918.849841
 20
1999.614821
 42
0.004918
  0
VERTEX
  8
0
 10
881.707539
 20
2012.733729
 42
0.004437
  0
VERTEX
  8
0
 10
838.644530
 20
2027.043495
 42
0.003433
  0
VERTEX
  8
0
 10
791.487607
 20
2041.893679
 42
-0.004650
  0
VERTEX
  8
0
 10
742.429833
 20
2057.473827
 42
-0.006876
  0
VERTEX
  8
0
 10
699.726744
 20
2072.127666
 42
-0.007750
  0
VERTEX
  8
0
 10
661.982089
 20
2086.326961
 42
-0.010168
  0
VERTEX
  8
0
 10
628.000000
 20
2100.520525
 42
-0.017244
  0
VERTEX
  8
0
 10
548.177208
 20
2139.125865
 42
-0.017202
  0
VERTEX
  8
0
 10
471.138279
 20
2183.169718
 42
-0.018066
  0
VERTEX
  8
0
 10
405.151221
 20
2227.340775
 42
-0.043906
  0
VERTEX
  8
0
 10
360.906542
 20
2265.661151
 42
-0.010777
  0
VERTEX
  8
0
 10
353.336536
 20
2273.824231
 42
-0.018284
  0
VERTEX
  8
0
 10
347.409064
 20
2281.011948
 42
-0.021829
  0
VERTEX
  8
0
 10
343.072643
 20
2287.224548
 42
-0.050273
  0
VERTEX
  8
0
 10
340.518853
 20
2292.311463
 42
-0.019777
  0
VERTEX
  8
0
 10
339.609300
 20
2295.008523
 42
-0.078597
  0
VERTEX
  8
0
 10
339.385490
 20
2296.736003
 42
-0.070130
  0
VERTEX
  8
0
 10
339.692334
 20
2298.544560
 42
-0.013758
  0
VERTEX
  8
0
 10
340.781149
 20
2301.666151
 42
-0.097425
  0
VERTEX
  8
0
 10
352.472583
 20
2320.424258
 42
-0.033967
  0
VERTEX
  8
0
 10
375.835396
 20
2342.245565
 42
-0.028398
  0
VERTEX
  8
0
 10
408.449237
 20
2365.855721
 42
-0.016780
  0
VERTEX
  8
0
 10
449.779609
 20
2390.421312
 42
-0.009652
  0
VERTEX
  8
0
 10
466.149480
 20
2399.014756
 42
-0.002504
  0
VERTEX
  8
0
 10
492.829540
 20
2412.203484
 42
-0.002402
  0
VERTEX
  8
0
 10
519.503955
 20
2425.065300
 42
-0.011370
  0
VERTEX
  8
0
 10
534.985922
 20
2432.011573
 42
-0.010842
  0
VERTEX
  8
0
 10
557.124838
 20
2440.785534
 42
-0.010888
  0
VERTEX
  8
0
 10
579.591949
 20
2448.578260
 42
-0.008619
  0
VERTEX
  8
0
 10
606.538701
 20
2456.762157
 42
-0.003564
  0
VERTEX
  8
0
 10
643.259459
 20
2466.944284
 42
0.001653
  0
VERTEX
  8
0
 10
669.733058
 20
2474.176227
 42
0.005491
  0
VERTEX
  8
0
 10
687.072976
 20
2479.180375
 42
0.007827
  0
VERTEX
  8
0
 10
700.647105
 20
2483.492542
 42
0.007966
  0
VERTEX
  8
0
 10
714.000000
 20
2488.203608
 42
0.014321
  0
VERTEX
  8
0
 10
729.854129
 20
2494.604984
 42
0.031027
  0
VERTEX
  8
0
 10
741.539707
 20
2500.606049
 42
0.040142
  0
VERTEX
  8
0
 10
749.465686
 20
2506.225090
 42
0.139668
  0
VERTEX
  8
0
 10
752.956487
 20
2511.368155
 42
0.074856
  0
VERTEX
  8
0
 10
753.554715
 20
2514.866983
 42
0.125885
  0
VERTEX
  8
0
 10
752.877750
 20
2517.751163
 42
0.114087
  0
VERTEX
  8
0
 10
750.827447
 20
2520.145312
 42
0.054791
  0
VERTEX
  8
0
 10
747.310444
 20
2522.186875
 42
0.032020
  0
VERTEX
  8
0
 10
744.337259
 20
2523.280447
 42
0.047456
  0
VERTEX
  8
0
 10
741.614508
 20
2523.814241
 42
0.031322
  0
VERTEX
  8
0
 10
738.111184
 20
2523.940868
 42
0.006785
  0
VERTEX
  8
0
 10
732.056390
 20
2523.698164
 42
0.024494
  0
VERTEX
  8
0
 10
722.990083
 20
2522.764586
 42
0.023851
  0
VERTEX
  8
0
 10
713.976550
 20
2520.944189
 42
0.019241
  0
VERTEX
  8
0
 10
703.625092
 20
2517.906373
 42
0.008609
  0
VERTEX
  8
0
 10
690.250000
 20
2513.157817
 42
-0.002941
  0
VERTEX
  8
0
 10
682.534529
 20
2510.319703
 42
-0.028924
  0
VERTEX
  8
0
 10
679.215002
 20
2509.333555
 42
-0.105058
  0
VERTEX
  8
0
 10
677.615356
 20
2509.299011
 42
-0.360231
  0
VERTEX
  8
0
 10
677.000000
 20
2510.042289
 42
-0.105463
  0
VERTEX
  8
0
 10
679.269082
 20
2520.680376
 42
-0.001668
  0
VERTEX
  8
0
 10
704.848957
 20
2577.406360
 42
-0.003176
  0
VERTEX
  8
0
 10
729.724834
 20
2631.174963
 42
-0.045058
  0
VERTEX
  8
0
 10
740.420259
 20
2649.440456
 42
-0.057757
  0
VERTEX
  8
0
 10
760.762661
 20
2671.936306
 42
-0.051666
  0
VERTEX
  8
0
 10
786.446204
 20
2690.155932
 42
-0.051289
  0
VERTEX
  8
0
 10
815.519248
 20
2702.835940
 42
-0.055039
  0
VERTEX
  8
0
 10
845.882687
 20
2708.953475
 42
0.000025
  0
VERTEX
  8
0
 10
849.292532
 20
2709.257410
 42
0.000033
  0
VERTEX
  8
0
 10
852.409289
 20
2709.535588
 42
0.000024
  0
VERTEX
  8
0
 10
855.022049
 20
2709.769087
 42
0.000312
  0
VERTEX
  8
0
 10
856.000000
 20
2709.857149
 42
-0.038747
  0
VERTEX
  8
0
 10
857.029742
 20
2709.870511
 42
-0.001917
  0
VERTEX
  8
0
 10
860.414921
 20
2709.638895
 42
-0.003087
  0
VERTEX
  8
0
 10
864.438033
 20
2709.323149
 42
-0.002225
  0
SEQEND
  0
POLYLINE
  8
0
 66
1
 70
1
  0
VERTEX
  8
0
 10
2598.409836
 20
2077.962874
 42
-0.040484
  0
VERTEX
  8
0
 10
2611.600560
 20
2075.357757
 42
-0.046692
  0
VERTEX
  8
0
 10
2623.553536
 20
2070.732273
 42
-0.044449
  0
VERTEX
  8
0
 10
2634.906921
 20
2063.749849
 42
-0.031558
  0
VERTEX
  8
0
 10
2646.314055
 20
2054.076908
 42
-0.054711
  0
VERTEX
  8
0
 10
2667.988921
 20
2028.084689
 42
-0.032272
  0
VERTEX
  8
0
 10
2688.141333
 20
1992.988519
 42
-0.027124
  0
VERTEX
  8
0
 10
2706.947996
 20
1948.812581
 42
-0.016611
  0
VERTEX
  8
0
 10
2724.495417
 20
1894.966531
 42
-0.019187
  0
VERTEX
  8
0
 10
2744.224303
 20
1815.532004
 42
-0.012677
  0
VERTEX
  8
0
 10
2761.038762
 20
1722.981696
 42
-0.011731
  0
VERTEX
  8
0
 10
2774.462585
 20
1621.022317
 42
-0.010009
  0
VERTEX
  8
0
 10
2783.930976
 20
1513.000000
 42
-0.003611
  0
VERTEX
  8
0
 10
2785.566871
 20
1485.853984
 42
-0.002542
  0
VERTEX
  8
0
 10
2787.031013
 20
1455.300538
 42
-0.000257
  0
VERTEX
  8
0
 10
2788.360026
 20
1423.890509
 42
-0.209792
  0
VERTEX
  8
0
 10
2787.807866
 20
1422.474533
 42
-0.167015
  0
VERTEX
  8
0
 10
2787.291572
 20
1422.222312
 42
-0.000584
  0
VERTEX
  8
0
 10
2780.354281
 20
1421.369768
 42
-0.003030
  0
VERTEX
  8
0
 10
2772.463845
 20
1420.457925
 42
-0.001886
  0
VERTEX
  8
0
 10
2763.199865
 20
1419.479539
 42
0.006475
  0
VERTEX
  8
0
 10
2739.089863
 20
1416.709255
 42
0.005874
  0
VERTEX
  8
0
 10
2714.261687
 20
1413.233289
 42
0.006098
  0
VERTEX
  8
0
 10
2691.001116
 20
1409.406927
 42
0.010558
  0
VERTEX
  8
0
 10
2671.785860
 20
1405.584751
 42
-0.275573
  0
VERTEX
  8
0
 10
2669.627848
 20
1406.300689
 42
-0.002052
  0
VERTEX
  8
0
 10
2656.943732
 20
1421.100755
 42
-0.007972
  0
VERTEX
  8
0
 10
2644.581029
 20
1436.125208
 42
-0.012405
  0
VERTEX
  8
0
 10
2634.460675
 20
1449.500000
 42
-0.022540
  0
VERTEX
  8
0
 10
2628.459645
 20
1458.702069
 42
-0.016817
  0
VERTEX
  8
0
 10
2622.658830
 20
1469.341232
 42
-0.017105
  0
VERTEX
  8
0
 10
2617.828095
 20
1479.837302
 42
-0.033951
  0
VERTEX
  8
0
 10
2614.868103
 20
1488.500000
 42
-0.075937
  0
VERTEX
  8
0
 10
2612.409461
 20
1510.802663
 42
-0.031021
  0
VERTEX
  8
0
 10
2615.577495
 20
1541.210729
 42
-0.024761
  0
VERTEX
  8
0
 10
2623.915960
 20
1579.331819
 42
-0.012741
  0
VERTEX
  8
0
 10
2637.909180
 20
1626.166357
 42
0.002516
  0
VERTEX
  8
0
 10
2645.195322
 20
1648.850986
 42
0.016249
  0
VERTEX
  8
0
 10
2648.440415
 20
1660.429495
 42
0.030558
  0
VERTEX
  8
0
 10
2649.950936
 20
1668.746182
 42
0.028958
  0
VERTEX
  8
0
 10
2650.472750
 20
1677.336426
 42
0.005280
  0
VERTEX
  8
0
 10
2650.426281
 20
1683.302191
 42
0.044454
  0
VERTEX
  8
0
 10
2650.138736
 20
1685.974276
 42
0.097468
  0
VERTEX
  8
0
 10
2649.454036
 20
1687.638242
 42
0.076387
  0
VERTEX
  8
0
 10
2648.139216
 20
1689.086426
 42
0.059825
  0
VERTEX
  8
0
 10
2646.786250
 20
1689.937766
 42
0.046456
  0
VERTEX
  8
0
 10
2645.150495
 20
1690.533548
 42
0.039663
  0
VERTEX
  8
0
 10
2643.186670
 20
1690.885146
 42
0.024474
  0
VERTEX
  8
0
 10
2640.841597
 20
1691.000000
 42
0.027983
  0
VERTEX
  8
0
 10
2637.864016
 20
1690.833225
 42
0.086424
  0
VERTEX
  8
0
 10
2635.936642
 20
1690.269965
 42
0.069161
  0
VERTEX
  8
0
 10
2634.085873
 20
1689.017741
 42
0.013657
  0
VERTEX
  8
0
 10
2631.175355
 20
1686.250000
 42
0.083031
  0
VERTEX
  8
0
 10
2621.614451
 20
1672.787866
 42
0.029819
  0
VERTEX
  8
0
 10
2612.596058
 20
1650.987334
 42
0.020906
  0
VERTEX
  8
0
 10
2603.134102
 20
1619.373898
 42
0.007223
  0
VERTEX
  8
0
 10
2592.052383
 20
1573.000000
 42
-0.000991
  0
VERTEX
  8
0
 10
2589.643127
 20
1562.331508
 42
-0.001497
  0
VERTEX
  8
0
 10
2587.498943
 20
1553.051992
 42
-0.000566
  0
VERTEX
  8
0
 10
2585.621790
 20
1545.078289
 42
-0.035995
  0
VERTEX
  8
0
 10
2585.191732
 20
1543.708908
 42
-0.719247
  0
VERTEX
  8
0
 10
2584.719587
 20
1543.733726
 42
-0.006145
  0
VERTEX
  8
0
 10
2583.370243
 20
1548.827847
 42
-0.008259
  0
VERTEX
  8
0
 10
2581.704801
 20
1555.936668
 42
-0.003315
  0
VERTEX
  8
0
 10
2579.652755
 20
1565.708908
 42
0.016638
  0
VERTEX
  8
0
 10
2565.859715
 20
1623.670505
 42
0.017671
  0
VERTEX
  8
0
 10
2548.478121
 20
1679.418800
 42
0.016978
  0
VERTEX
  8
0
 10
2526.529822
 20
1735.751479
 42
0.013186
  0
VERTEX
  8
0
 10
2498.994061
 20
1795.500000
 42
0.010569
  0
VERTEX
  8
0
 10
2475.621544
 20
1840.464841
 42
0.015133
  0
VERTEX
  8
0
 10
2452.876668
 20
1879.216510
 42
0.016262
  0
VERTEX
  8
0
 10
2429.229257
 20
1914.265043
 42
0.015865
  0
VERTEX
  8
0
 10
2403.166318
 20
1948.000000
 42
-0.002018
  0
VERTEX
  8
0
 10
2398.897882
 20
1953.219541
 42
-0.003227
  0
VERTEX
  8
0
 10
2395.299730
 20
1957.714855
 42
-0.000681
  0
VERTEX
  8
0
 10
2392.173237
 20
1961.684106
 42
-0.160682
  0
VERTEX
  8
0
 10
2392.017541
 20
1962.114400
 42
-0.229933
  0
VERTEX
  8
0
 10
2392.315608
 20
1962.775688
 42
-0.000088
  0
VERTEX
  8
0
 10
2413.053982
 20
1980.071960
 42
-0.001546
  0
VERTEX
  8
0
 10
2432.601548
 20
1996.267047
 42
-0.002659
  0
VERTEX
  8
0
 10
2449.000000
 20
2009.622126
 42
-0.017495
  0
VERTEX
  8
0
 10
2490.284375
 20
2040.563614
 42
-0.036167
  0
VERTEX
  8
0
 10
2524.930159
 20
2061.137486
 42
-0.045315
  0
VERTEX
  8
0
 10
2556.362050
 20
2073.437443
 42
-0.055083
  0
VERTEX
  8
0
 10
2587.500000
 20
2078.858779
 42
-0.032400
  0
VERTEX
  8
0
 10
2588.737329
 20
2078.855745
 42
-0.003676
  0
VERTEX
  8
0
 10
2591.529764
 20
2078.647092
 42
-0.004437
  0
VERTEX
  8
0
 10
2594.851739
 20
2078.344594
 42
-0.003595
  0
SEQEND
  0
POLYLINE
  8
0
 66
1
 70
1
  0
VERTEX
  8
0
 10
928.472933
 20
1640.000000
 42
0.005413
  0
VERTEX
  8
0
 10
949.418004
 20
1614.747817
 42
0.009591
  0
VERTEX
  8
0
 10
967.305016
 20
1594.453864
 42
0.010604
  0
VERTEX
  8
0
 10
984.632809
 20
1576.325757
 42
0.008885
  0
VERTEX
  8
0
 10
1003.750000
 20
1557.825907
 42
-0.002782
  0
VERTEX
  8
0
 10
1010.362780
 20
1551.581144
 42
-0.004449
  0
VERTEX
  8
0
 10
1015.932812
 20
1546.166569
 42
-0.001084
  0
VERTEX
  8
0
 10
1020.735845
 20
1541.393079
 42
-0.199151
  0
VERTEX
  8
0
 10
1021.000000
 20
1540.756178
 42
-0.091341
  0
VERTEX
  8
0
 10
1020.867601
 20
1540.037479
 42
-0.000627
  0
VERTEX
  8
0
 10
1018.617379
 20
1534.159463
 42
-0.002422
  0
VERTEX
  8
0
 10
1015.997984
 20
1527.440106
 42
-0.001544
  0
VERTEX
  8
0
 10
1012.888951
 20
1519.647898
 42
-0.010547
  0
VERTEX
  8
0
 10
986.984744
 20
1459.024996
 42
-0.038067
  0
VERTEX
  8
0
 10
966.824566
 20
1422.210309
 42
-0.062744
  0
VERTEX
  8
0
 10
947.945954
 20
1399.907064
 42
-0.111297
  0
VERTEX
  8
0
 10
927.160509
 20
1387.968575
 42
-0.018498
  0
VERTEX
  8
0
 10
919.427257
 20
1385.889109
 42
-0.030160
  0
VERTEX
  8
0
 10
912.727927
 20
1384.770872
 42
-0.033864
  0
VERTEX
  8
0
 10
906.546697
 20
1384.539652
 42
-0.034054
  0
VERTEX
  8
0
 10
900.402565
 20
1385.146153
 42
0.064003
  0
VERTEX
  8
0
 10
888.594840
 20
1385.602668
 42
0.038458
  0
VERTEX
  8
0
 10
874.742089
 20
1383.280797
 42
0.032980
  0
VERTEX
  8
0
 10
859.137818
 20
1378.301542
 42
0.022027
  0
VERTEX
  8
0
 10
842.000000
 20
1370.671566
 42
0.023636
  0
VERTEX
  8
0
 10
815.382808
 20
1355.776822
 42
0.005594
  0
VERTEX
  8
0
 10
772.491498
 20
1328.367763
 42
0.005306
  0
VERTEX
  8
0
 10
730.373537
 20
1300.141358
 42
0.028395
  0
VERTEX
  8
0
 10
708.500000
 20
1283.241696
 42
0.013821
  0
VERTEX
  8
0
 10
700.523831
 20
1275.926086
 42
0.009168
  0
VERTEX
  8
0
 10
691.765356
 20
1267.118348
 42
0.009204
  0
VERTEX
  8
0
 10
683.671222
 20
1258.357300
 42
0.020184
  0
VERTEX
  8
0
 10
677.881954
 20
1251.301021
 42
0.014583
  0
VERTEX
  8
0
 10
671.498287
 20
1242.312814
 42
0.010830
  0
VERTEX
  8
0
 10
664.959968
 20
1232.038415
 42
0.008836
  0
VERTEX
  8
0
 10
657.674467
 20
1219.529678
 42
0.004507
  0
VERTEX
  8
0
 10
648.945077
 20
1203.577825
 42
-0.001004
  0
VERTEX
  8
0
 10
638.837922
 20
1184.796993
 42
-0.193686
  0
VERTEX
  8
0
 10
637.204915
 20
1183.442487
 42
-0.616167
  0
VERTEX
  8
0
 10
636.491611
 20
1184.169090
 42
-0.001541
  0
VERTEX
  8
0
 10
642.454289
 20
1201.500000
 42
-0.003907
  0
VERTEX
  8
0
 10
652.670833
 20
1230.175579
 42
-0.009176
  0
VERTEX
  8
0
 10
660.858564
 20
1251.384528
 42
-0.010869
  0
VERTEX
  8
0
 10
668.906742
 20
1269.977374
 42
-0.008266
  0
VERTEX
  8
0
 10
678.499453
 20
1290.000000
 42
0.004963
  0
VERTEX
  8
0
 10
681.465561
 20
1296.087539
 42
0.004601
  0
VERTEX
  8
0
 10
684.387571
 20
1302.387819
 42
0.004593
  0
VERTEX
  8
0
 10
686.884444
 20
1308.041517
 42
0.015381
  0
VERTEX
  8
0
 10
688.371715
 20
1311.809597
 42
0.029431
  0
VERTEX
  8
0
 10
689.930823
 20
1317.105191
 42
0.030796
  0
VERTEX
  8
0
 10
690.828784
 20
1322.467841
 42
0.030922
  0
VERTEX
  8
0
 10
691.025029
 20
1327.081252
 42
0.143324
  0
VERTEX
  8
0
 10
690.234687
 20
1329.600296
 42
0.100099
  0
VERTEX
  8
0
 10
688.886255
 20
1330.941024
 42
0.052678
  0
VERTEX
  8
0
 10
686.779574
 20
1332.031745
 42
0.047989
  0
VERTEX
  8
0
 10
684.228421
 20
1332.755898
 42
0.045199
  0
VERTEX
  8
0
 10
681.533623
 20
1333.000000
 42
0.086698
  0
VERTEX
  8
0
 10
675.849965
 20
1332.007010
 42
0.070073
  0
VERTEX
  8
0
 10
670.363955
 20
1329.110047
 42
0.053113
  0
VERTEX
  8
0
 10
664.680291
 20
1324.004262
 42
0.024007
  0
VERTEX
  8
0
 10
658.338610
 20
1316.238209
 42
-0.009343
  0
VERTEX
  8
0
 10
656.184671
 20
1313.436692
 42
-0.014777
  0
VERTEX
  8
0
 10
654.224630
 20
1311.127008
 42
-0.008711
  0
VERTEX
  8
0
 10
652.535283
 20
1309.316036
 42
-0.292386
  0
VERTEX
  8
0
 10
651.985306
 20
1309.185059
 42
-0.100138
  0
VERTEX
  8
0
 10
651.367281
 20
1309.551107
 42
-0.000919
  0
VERTEX
  8
0
 10
647.392380
 20
1313.152798
 42
-0.003081
  0
VERTEX
  8
0
 10
642.844625
 20
1317.340310
 42
-0.001982
  0
VERTEX
  8
0
 10
637.619744
 20
1322.250000
 42
0.000000
  0
VERTEX
  8
0
 10
624.158525
 20
1335.000000
 42
0.000000
  0
VERTEX
  8
0
 10
577.329262
 20
1334.994436
 42
0.002931
  0
VERTEX
  8
0
 10
543.071459
 20
1334.789561
 42
0.005520
  0
VERTEX
  8
0
 10
515.421609
 20
1334.156800
 42
0.006725
  0
VERTEX
  8
0
 10
492.271544
 20
1333.059366
 42
0.009930
  0
VERTEX
  8
0
 10
472.000000
 20
1331.420329
 42
0.011520
  0
VERTEX
  8
0
 10
450.800739
 20
1328.787181
 42
0.013469
  0
VERTEX
  8
0
 10
430.829338
 20
1325.285862
 42
0.014639
  0
VERTEX
  8
0
 10
413.055768
 20
1321.128675
 42
0.025310
  0
VERTEX
  8
0
 10
398.602657
 20
1316.504496
 42
0.046652
  0
VERTEX
  8
0
 10
388.478403
 20
1311.570196
 42
0.018177
  0
VERTEX
  8
0
 10
375.468401
 20
1302.989048
 42
0.013808
  0
VERTEX
  8
0
 10
358.977165
 20
1290.529057
 42
0.005821
  0
VERTEX
  8
0
 10
337.490621
 20
1272.928603
 42
-0.003063
  0
VERTEX
  8
0
 10
310.125908
 20
1250.259684
 42
-0.020320
  0
VERTEX
  8
0
 10
295.958312
 20
1239.599456
 42
-0.042217
  0
VERTEX
  8
0
 10
286.590282
 20
1234.235193
 42
-0.107875
  0
VERTEX
  8
0
 10
279.000000
 20
1232.531994
 42
-0.087621
  0
VERTEX
  8
0
 10
270.937169
 20
1233.907554
 42
-0.050222
  0
VERTEX
  8
0
 10
262.001622
 20
1238.159441
 42
-0.050855
  0
VERTEX
  8
0
 10
254.571213
 20
1243.762667
 42
-0.152888
  0
VERTEX
  8
0
 10
251.453207
 20
1249.213046
 42
-0.130440
  0
VERTEX
  8
0
 10
251.618401
 20
1253.033629
 42
-0.049558
  0
VERTEX
  8
0
 10
253.721118
 20
1257.984099
 42
-0.044139
  0
VERTEX
  8
0
 10
257.238434
 20
1263.249667
 42
-0.037934
  0
VERTEX
  8
0
 10
261.794236
 20
1268.110990
 42
-0.025710
  0
VERTEX
  8
0
 10
268.614962
 20
1273.747133
 42
-0.020245
  0
VERTEX
  8
0
 10
276.532605
 20
1279.148718
 42
-0.016854
  0
VERTEX
  8
0
 10
286.217475
 20
1284.751990
 42
-0.009073
  0
VERTEX
  8
0
 10
298.500000
 20
1291.032185
 42
-0.023118
  0
VERTEX
  8
0
 10
333.182349
 20
1306.035432
 42
-0.016551
  0
VERTEX
  8
0
 10
373.182228
 20
1319.689665
 42
-0.014265
  0
VERTEX
  8
0
 10
419.994595
 20
1332.510760
 42
-0.008895
  0
VERTEX
  8
0
 10
475.500000
 20
1344.981773
 42
0.007011
  0
VERTEX
  8
0
 10
518.868526
 20
1354.554349
 42
0.017202
  0
VERTEX
  8
0
 10
550.372124
 20
1363.126380
 42
0.023219
  0
VERTEX
  8
0
 10
573.728359
 20
1371.559430
 42
0.048584
  0
VERTEX
  8
0
 10
590.759922
 20
1380.644233
 42
0.056501
  0
VERTEX
  8
0
 10
601.861988
 20
1389.995200
 42
0.096953
  0
VERTEX
  8
0
 10
608.314900
 20
1400.182816
 42
0.112525
  0
VERTEX
  8
0
 10
609.910088
 20
1410.940302
 42
0.096932
  0
VERTEX
  8
0
 10
606.853955
 20
1421.976348
 42
0.065182
  0
VERTEX
  8
0
 10
600.000596
 20
1432.132942
 42
0.039279
  0
VERTEX
  8
0
 10
589.539426
 20
1442.246559
 42
0.034259
  0
VERTEX
  8
0
 10
575.923589
 20
1451.997861
 42
0.024443
  0
VERTEX
  8
0
 10
559.500000
 20
1461.058408
 42
0.036019
  0
VERTEX
  8
0
 10
530.529832
 20
1472.738685
 42
0.043277
  0
VERTEX
  8
0
 10
501.897999
 20
1479.283942
 42
0.047851
  0
VERTEX
  8
0
 10
475.455519
 20
1480.411330
 42
0.073691
  0
VERTEX
  8
0
 10
453.055693
 20
1475.867525
 42
-0.012515
  0
VERTEX
  8
0
 10
446.714240
 20
1473.750383
 42
-0.027249
  0
VERTEX
  8
0
 10
441.736569
 20
1472.517964
 42
-0.035755
  0
VERTEX
  8
0
 10
437.780525
 20
1472.054016
 42
-0.072921
  0
VERTEX
  8
0
 10
434.675711
 20
1472.366543
 42
-0.092125
  0
VERTEX
  8
0
 10
430.994154
 20
1474.053363
 42
-0.018193
  0
VERTEX
  8
0
 10
425.187761
 20
1478.465123
 42
-0.019992
  0
VERTEX
  8
0
 10
419.596186
 20
1483.430091
 42
-0.054976
  0
VERTEX
  8
0
 10
416.223587
 20
1487.476160
 42
-0.040574
  0
VERTEX
  8
0
 10
413.652476
 20
1492.138999
 42
-0.073509
  0
VERTEX
  8
0
 10
412.467413
 20
1496.322111
 42
-0.082014
  0
VERTEX
  8
0
 10
412.605739
 20
1500.347146
 42
-0.063291
  0
VERTEX
  8
0
 10
414.007812
 20
1504.516138
 42
-0.101541
  0
VERTEX
  8
0
 10
418.015934
 20
1509.753374
 42
-0.085605
  0
VERTEX
  8
0
 10
423.998448
 20
1513.375218
 42
-0.064558
  0
VERTEX
  8
0
 10
432.343467
 20
1515.458594
 42
-0.029967
  0
VERTEX
  8
0
 10
443.514099
 20
1516.082590
 42
-0.051433
  0
VERTEX
  8
0
 10
462.623256
 20
1514.032219
 42
-0.029300
  0
VERTEX
  8
0
 10
485.048232
 20
1507.868210
 42
-0.018198
  0
VERTEX
  8
0
 10
515.847339
 20
1496.161883
 42
-0.004726
  0
VERTEX
  8
0
 10
564.500000
 20
1475.069919
 42
0.000000
  0
VERTEX
  8
0
 10
598.500000
 20
1459.946886
 42
0.000000
  0
VERTEX
  8
0
 10
637.500000
 20
1460.517668
 42
0.007701
  0
VERTEX
  8
0
 10
686.255022
 20
1461.982565
 42
0.018636
  0
VERTEX
  8
0
 10
722.168838
 20
1464.959687
 42
0.017550
  0
VERTEX
  8
0
 10
759.002145
 20
1470.717683
 42
0.006146
  0
VERTEX
  8
0
 10
811.500000
 20
1481.494001
 42
0.002476
  0
VERTEX
  8
0
 10
827.817701
 20
1485.137890
 42
0.020610
  0
VERTEX
  8
0
 10
835.127125
 20
1487.128380
 42
0.047843
  0
VERTEX
  8
0
 10
839.088894
 20
1488.816005
 42
0.162064
  0
VERTEX
  8
0
 10
840.981759
 20
1490.843175
 42
0.018129
  0
VERTEX
  8
0
 10
843.355032
 20
1496.558831
 42
0.001092
  0
VERTEX
  8
0
 10
849.820915
 20
1513.994475
 42
0.001453
  0
VERTEX
  8
0
 10
858.070083
 20
1536.591107
 42
0.000707
  0
VERTEX
  8
0
 10
868.482303
 20
1565.500000
 42
-0.000947
  0
VERTEX
  8
0
 10
883.156502
 20
1606.180647
 42
-0.002183
  0
VERTEX
  8
0
 10
894.382342
 20
1636.701676
 42
-0.001136
  0
VERTEX
  8
0
 10
903.293586
 20
1660.442172
 42
-0.048091
  0
VERTEX
  8
0
 10
905.683798
 20
1665.297391
 42
-0.475720
  0
VERTEX
  8
0
 10
906.863435
 20
1665.450594
 42
-0.019650
  0
VERTEX
  8
0
 10
910.261748
 20
1661.964024
 42
-0.011579
  0
VERTEX
  8
0
 10
915.998694
 20
1655.291207
 42
-0.001340
  0
SEQEND
  0
POLYLINE
  8
0
 66
1
 70
1
  0
VERTEX
  8
0
 10
2592.192883
 20
1460.745832
 42
0.014462
  0
VERTEX
  8
0
 10
2598.583863
 20
1448.957332
 42
0.010883
  0
VERTEX
  8
0
 10
2606.260317
 20
1436.365425
 42
0.010849
  0
VERTEX
  8
0
 10
2614.514187
 20
1424.062935
 42
0.013963
  0
VERTEX
  8
0
 10
2622.651831
 20
1413.145886
 42
-0.004549
  0
VERTEX
  8
0
 10
2625.605009
 20
1409.335891
 42
-0.005361
  0
VERTEX
  8
0
 10
2628.328596
 20
1405.674471
 42
-0.004728
  0
VERTEX
  8
0
 10
2630.564247
 20
1402.538817
 42
-0.033182
  0
VERTEX
  8
0
 10
2631.534500
 20
1400.933284
 42
0.000000
  0
VERTEX
  8
0
 10
2632.980851
 20
1398.136350
 42
0.000000
  0
VERTEX
  8
0
 10
2627.740425
 20
1396.627102
 42
-0.011251
  0
VERTEX
  8
0
 10
2617.672039
 20
1393.971200
 42
-0.001803
  0
VERTEX
  8
0
 10
2597.878079
 20
1389.298896
 42
-0.000575
  0
VERTEX
  8
0
 10
2576.458385
 20
1384.350290
 42
-0.056534
  0
VERTEX
  8
0
 10
2573.370248
 20
1384.000000
 42
-0.444044
  0
VERTEX
  8
0
 10
2572.689391
 20
1384.753168
 42
-0.002721
  0
VERTEX
  8
0
 10
2573.780075
 20
1394.984016
 42
-0.005852
  0
VERTEX
  8
0
 10
2575.586738
 20
1409.556077
 42
-0.001359
  0
VERTEX
  8
0
 10
2578.975957
 20
1434.000000
 42
0.000816
  0
VERTEX
  8
0
 10
2580.900195
 20
1447.768019
 42
0.001242
  0
VERTEX
  8
0
 10
2582.522253
 20
1459.732813
 42
0.000437
  0
VERTEX
  8
0
 10
2583.887324
 20
1470.062294
 42
0.032449
  0
VERTEX
  8
0
 10
2583.998270
 20
1471.750000
 42
-0.031631
  0
VERTEX
  8
0
 10
2584.053500
 20
1472.611645
 42
-0.048976
  0
VERTEX
  8
0
 10
2584.219804
 20
1473.337838
 42
-0.063003
  0
VERTEX
  8
0
 10
2584.461705
 20
1473.840098
 42
-0.255788
  0
VERTEX
  8
0
 10
2584.750000
 20
1473.995832
 42
-0.267421
  0
VERTEX
  8
0
 10
2585.179426
 20
1473.745279
 42
-0.002053
  0
VERTEX
  8
0
 10
2587.245722
 20
1470.101926
 42
-0.006774
  0
VERTEX
  8
0
 10
2589.573028
 20
1465.824078
 42
-0.004210
  0
SEQEND
  0
POLYLINE
  8
0
 66
1
 70
1
  0
VERTEX
  8
0
 10
633.000000
 20
1167.969868
 42
-0.080771
  0
VERTEX
  8
0
 10
632.892166
 20
1167.306699
 42
-0.005502
  0
VERTEX
  8
0
 10
632.265625
 20
1165.497540
 42
-0.007759
  0
VERTEX
  8
0
 10
631.457577
 20
1163.350196
 42
-0.005740
  0
VERTEX
  8
0
 10
630.500000
 20
1161.000000
 42
0.041030
  0
VERTEX
  8
0
 10
628.799039
 20
1155.804172
 42
0.049286
  0
VERTEX
  8
0
 10
628.102751
 20
1150.711033
 42
0.039955
  0
VERTEX
  8
0
 10
628.354805
 20
1144.782813
 42
0.016607
  0
VERTEX
  8
0
 10
629.597337
 20
1136.860468
 42
-0.029001
  0
VERTEX
  8
0
 10
630.822582
 20
1127.546494
 42
-0.034679
  0
VERTEX
  8
0
 10
630.853404
 20
1118.698303
 42
-0.038189
  0
VERTEX
  8
0
 10
629.726664
 20
1110.827487
 42
-0.062001
  0
VERTEX
  8
0
 10
627.461603
 20
1104.472252
 42
-0.095070
  0
VERTEX
  8
0
 10
620.924937
 20
1095.976171
 42
-0.150493
  0
VERTEX
  8
0
 10
612.626905
 20
1092.203647
 42
-0.140475
  0
VERTEX
  8
0
 10
603.212636
 20
1093.637744
 42
-0.078767
  0
VERTEX
  8
0
 10
593.503683
 20
1100.103370
 42
-0.019628
  0
VERTEX
  8
0
 10
591.535019
 20
1102.066392
 42
-0.013564
  0
VERTEX
  8
0
 10
589.458965
 20
1104.431256
 42
-0.013699
  0
VERTEX
  8
0
 10
587.584624
 20
1106.816962
 42
-0.027118
  0
VERTEX
  8
0
 10
586.257165
 20
1108.824154
 42
-0.017012
  0
VERTEX
  8
0
 10
584.779545
 20
1111.554367
 42
-0.077030
  0
VERTEX
  8
0
 10
584.231778
 20
1113.274490
 42
-0.082775
  0
VERTEX
  8
0
 10
584.250342
 20
1115.019702
 42
-0.021386
  0
VERTEX
  8
0
 10
584.862628
 20
1117.776197
 42
-0.061284
  0
VERTEX
  8
0
 10
587.304863
 20
1123.824679
 42
-0.053125
  0
VERTEX
  8
0
 10
591.239125
 20
1129.425977
 42
-0.040794
  0
VERTEX
  8
0
 10
597.215621
 20
1135.230243
 42
-0.017561
  0
VERTEX
  8
0
 10
606.039581
 20
1141.995782
 42
0.012964
  0
VERTEX
  8
0
 10
612.801757
 20
1147.082499
 42
0.026067
  0
VERTEX
  8
0
 10
617.807197
 20
1151.499035
 42
0.031368
  0
VERTEX
  8
0
 10
621.682141
 20
1155.803070
 42
0.032725
  0
VERTEX
  8
0
 10
624.928984
 20
1160.500000
 42
-0.021922
  0
VERTEX
  8
0
 10
627.825365
 20
1164.889603
 42
-0.049283
  0
VERTEX
  8
0
 10
630.469903
 20
1167.871112
 42
-0.148947
  0
VERTEX
  8
0
 10
632.159218
 20
1168.689262
 42
-0.460466
  0
SEQEND
  0
POLYLINE
  8
0
 66
1
 70
1
  0
VERTEX
  8
0
 10
1051.500000
 20
1038.630319
 42
-0.070947
  0
VERTEX
  8
0
 10
1057.818381
 20
1034.481314
 42
-0.033790
  0
VERTEX
  8
0
 10
1064.676941
 20
1027.555875
 42
-0.032046
  0
VERTEX
  8
0
 10
1071.128836
 20
1019.049800
 42
-0.034413
  0
VERTEX
  8
0
 10
1076.272892
 20
1009.982708
 42
0.027650
  0
VERTEX
  8
0
 10
1077.771296
 20
1007.256380
 42
0.009286
  0
VERTEX
  8
0
 10
1080.247226
 20
1003.447450
 42
0.009207
  0
VERTEX
  8
0
 10
1083.148275
 20
999.326457
 42
0.010407
  0
VERTEX
  8
0
 10
1086.086179
 20
995.482708
 42
-0.000408
  0
VERTEX
  8
0
 10
1093.212588
 20
986.535660
 42
-0.021263
  0
VERTEX
  8
0
 10
1094.512028
 20
984.750721
 42
-0.716928
  0
VERTEX
  8
0
 10
1094.295314
 20
984.469892
 42
-0.056150
  0
VERTEX
  8
0
 10
1093.000000
 20
985.083851
 42
0.017408
  0
VERTEX
  8
0
 10
1080.740096
 20
992.103217
 42
0.035054
  0
VERTEX
  8
0
 10
1070.549646
 20
996.594184
 42
0.038694
  0
VERTEX
  8
0
 10
1060.514066
 20
999.346414
 42
0.026755
  0
VERTEX
  8
0
 10
1048.843868
 20
1000.953152
 42
-0.015414
  0
VERTEX
  8
0
 10
1039.902143
 20
1001.978264
 42
-0.039186
  0
VERTEX
  8
0
 10
1033.535748
 20
1003.424003
 42
-0.051188
  0
VERTEX
  8
0
 10
1028.557708
 20
1005.551732
 42
-0.050477
  0
VERTEX
  8
0
 10
1024.090366
 20
1008.654645
 42
-0.073117
  0
VERTEX
  8
0
 10
1018.815817
 20
1014.706519
 42
-0.138915
  0
VERTEX
  8
0
 10
1016.953077
 20
1020.840199
 42
-0.141423
  0
VERTEX
  8
0
 10
1018.596282
 20
1026.962767
 42
-0.076920
  0
VERTEX
  8
0
 10
1023.633521
 20
1032.983089
 42
-0.055625
  0
VERTEX
  8
0
 10
1030.467620
 20
1037.753451
 42
-0.074718
  0
VERTEX
  8
0
 10
1037.553419
 20
1040.332779
 42
-0.080741
  0
VERTEX
  8
0
 10
1044.644016
 20
1040.608119
 42
-0.079432
  0
SEQEND
  0
POLYLINE
  8
0
 66
1
 70
1
  0
VERTEX
  8
0
 10
2070.000000
 20
967.464514
 42
-0.027605
  0
VERTEX
  8
0
 10
2083.376263
 20
962.783122
 42
-0.063407
  0
VERTEX
  8
0
 10
2092.626426
 20
957.505286
 42
-0.091779
  0
VERTEX
  8
0
 10
2098.082574
 20
951.561034
 42
-0.140811
  0
VERTEX
  8
0
 10
2100.000000
 20
944.887517
 42
-0.119856
  0
VERTEX
  8
0
 10
2098.624592
 20
939.232215
 42
-0.076894
  0
VERTEX
  8
0
 10
2094.622029
 20
933.749911
 42
-0.058506
  0
VERTEX
  8
0
 10
2087.980021
 20
928.489943
 42
-0.030676
  0
VERTEX
  8
0
 10
2078.674654
 20
923.507603
 42
-0.063888
  0
VERTEX
  8
0
 10
2060.288948
 20
917.766808
 42
-0.097152
  0
VERTEX
  8
0
 10
2043.607704
 20
918.077911
 42
-0.118279
  0
VERTEX
  8
0
 10
2030.564374
 20
924.343328
 42
-0.131428
  0
VERTEX
  8
0
 10
2022.392761
 20
935.641630
 42
-0.021861
  0
VERTEX
  8
0
 10
2021.553219
 20
938.165782
 42
-0.059059
  0
VERTEX
  8
0
 10
2021.253931
 20
940.027491
 42
-0.058074
  0
VERTEX
  8
0
 10
2021.395790
 20
941.925463
 42
-0.020596
  0
VERTEX
  8
0
 10
2022.022374
 20
944.579911
 42
-0.096978
  0
VERTEX
  8
0
 10
2025.145088
 20
950.783465
 42
-0.035134
  0
VERTEX
  8
0
 10
2031.748877
 20
958.163648
 42
-0.035394
  0
VERTEX
  8
0
 10
2039.594317
 20
964.769932
 42
-0.067653
  0
VERTEX
  8
0
 10
2046.833707
 20
968.668640
 42
-0.075862
  0
VERTEX
  8
0
 10
2050.993544
 20
969.544270
 42
-0.026997
  0
VERTEX
  8
0
 10
2057.084448
 20
969.556762
 42
-0.026415
  0
VERTEX
  8
0
 10
2063.775075
 20
968.853348
 42
-0.030983
  0
SEQEND
  0
POLYLINE
  8
0
 66
1
 70
1
  0
VERTEX
  8
0
 10
842.392518
 20
882.050370
 42
0.015246
  0
VERTEX
  8
0
 10
854.690657
 20
878.538933
 42
0.033884
  0
VERTEX
  8
0
 10
864.270636
 20
876.796722
 42
0.029623
  0
VERTEX
  8
0
 10
874.755989
 20
876.241301
 42
0.009262
  0
VERTEX
  8
0
 10
890.500000
 20
876.632335
 42
-0.006414
  0
VERTEX
  8
0
 10
919.190543
 20
877.508465
 42
-0.016459
  0
VERTEX
  8
0
 10
939.951283
 20
877.192565
 42
-0.020541
  0
VERTEX
  8
0
 10
957.744918
 20
875.601047
 42
-0.017052
  0
VERTEX
  8
0
 10
976.500000
 20
872.489986
 42
-0.018736
  0
VERTEX
  8
0
 10
1005.961162
 20
865.406727
 42
-0.006594
  0
VERTEX
  8
0
 10
1047.668032
 20
853.114955
 42
-0.005872
  0
VERTEX
  8
0
 10
1088.196638
 20
840.063880
 42
-0.031704
  0
VERTEX
  8
0
 10
1109.615772
 20
831.342795
 42
-0.068735
  0
VERTEX
  8
0
 10
1112.927470
 20
829.138319
 42
-0.729202
  0
VERTEX
  8
0
 10
1112.513563
 20
828.196019
 42
-0.044164
  0
VERTEX
  8
0
 10
1106.239749
 20
829.412143
 42
-0.008052
  0
VERTEX
  8
0
 10
1094.907482
 20
832.866049
 42
0.015690
  0
VERTEX
  8
0
 10
1067.437578
 20
840.782012
 42
0.017964
  0
VERTEX
  8
0
 10
1040.732170
 20
846.565274
 42
0.017457
  0
VERTEX
  8
0
 10
1013.026016
 20
850.538313
 42
0.013374
  0
VERTEX
  8
0
 10
982.526990
 20
853.007128
 42
0.017931
  0
VERTEX
  8
0
 10
956.198935
 20
853.485501
 42
0.018781
  0
VERTEX
  8
0
 10
930.309925
 20
852.053750
 42
0.019134
  0
VERTEX
  8
0
 10
905.077366
 20
848.727492
 42
0.020407
  0
VERTEX
  8
0
 10
880.715508
 20
843.531383
 42
-0.015772
  0
VERTEX
  8
0
 10
846.222167
 20
835.839522
 42
-0.044941
  0
VERTEX
  8
0
 10
821.757404
 20
833.433229
 42
-0.068516
  0
VERTEX
  8
0
 10
804.147129
 20
835.710430
 42
-0.126212
  0
VERTEX
  8
0
 10
791.665266
 20
842.799350
 42
-0.071935
  0
VERTEX
  8
0
 10
786.095442
 20
849.982397
 42
-0.117349
  0
VERTEX
  8
0
 10
783.957914
 20
857.351604
 42
-0.113955
  0
VERTEX
  8
0
 10
785.344630
 20
865.048788
 42
-0.065302
  0
VERTEX
  8
0
 10
790.183906
 20
873.203109
 42
-0.082348
  0
VERTEX
  8
0
 10
799.699336
 20
881.899448
 42
-0.102421
  0
VERTEX
  8
0
 10
810.841211
 20
886.246572
 42
-0.082431
  0
VERTEX
  8
0
 10
824.660897
 20
886.293211
 42
-0.036892
  0
SEQEND
  0
POLYLINE
  8
0
 66
1
 70
1
  0
VERTEX
  8
0
 10
2048.000000
 20
817.602003
 42
-0.003977
  0
VERTEX
  8
0
 10
2064.248857
 20
815.896895
 42
-0.001810
  0
VERTEX
  8
0
 10
2085.466115
 20
813.421822
 42
-0.000121
  0
VERTEX
  8
0
 10
2108.522793
 20
810.641880
 42
-0.625544
  0
VERTEX
  8
0
 10
2108.638945
 20
810.305611
 42
-0.141710
  0
VERTEX
  8
0
 10
2108.373685
 20
810.159370
 42
-0.000218
  0
VERTEX
  8
0
 10
2102.980295
 20
808.942704
 42
-0.001713
  0
VERTEX
  8
0
 10
2096.915220
 20
807.599105
 42
-0.001054
  0
VERTEX
  8
0
 10
2089.766415
 20
806.056886
 42
0.008105
  0
VERTEX
  8
0
 10
2065.681627
 20
800.504501
 42
0.013470
  0
VERTEX
  8
0
 10
2045.602337
 20
794.953347
 42
0.014450
  0
VERTEX
  8
0
 10
2026.884627
 20
788.634767
 42
0.011458
  0
VERTEX
  8
0
 10
2007.038741
 20
780.768429
 42
-0.009261
  0
VERTEX
  8
0
 10
1985.857238
 20
772.264803
 42
-0.035134
  0
VERTEX
  8
0
 10
1972.207185
 20
768.146697
 42
-0.058634
  0
VERTEX
  8
0
 10
1962.394774
 20
767.106290
 42
-0.104103
  0
VERTEX
  8
0
 10
1954.491423
 20
768.864982
 42
-0.136495
  0
VERTEX
  8
0
 10
1945.740254
 20
776.202099
 42
-0.139364
  0
VERTEX
  8
0
 10
1942.122701
 20
786.945197
 42
-0.120675
  0
VERTEX
  8
0
 10
1944.514857
 20
799.229415
 42
-0.088346
  0
VERTEX
  8
0
 10
1952.489070
 20
810.669173
 42
-0.048967
  0
VERTEX
  8
0
 10
1959.286871
 20
816.256298
 42
-0.102139
  0
VERTEX
  8
0
 10
1965.607303
 20
818.828710
 42
-0.045530
  0
VERTEX
  8
0
 10
1975.240685
 20
819.717079
 42
-0.003743
  0
VERTEX
  8
0
 10
2000.500000
 20
819.552295
 42
-0.003521
  0
VERTEX
  8
0
 10
2013.888178
 20
819.270428
 42
-0.003236
  0
VERTEX
  8
0
 10
2027.653125
 20
818.794469
 42
-0.003232
  0
VERTEX
  8
0
 10
2039.923450
 20
818.211181
 42
-0.010659
  0
SEQEND
  0
POLYLINE
  8
0
 66
1
 70
1
  0
VERTEX
  8
0
 10
2196.782537
 20
717.505048
 42
-0.027101
  0
VERTEX
  8
0
 10
2202.613800
 20
715.023254
 42
-0.044731
  0
VERTEX
  8
0
 10
2207.186596
 20
712.244943
 42
-0.052957
  0
VERTEX
  8
0
 10
2210.607498
 20
709.113902
 42
-0.068345
  0
VERTEX
  8
0
 10
2212.964833
 20
705.572646
 42
-0.049353
  0
VERTEX
  8
0
 10
2214.433502
 20
701.576708
 42
-0.068583
  0
VERTEX
  8
0
 10
2214.876713
 20
697.794061
 42
-0.065080
  0
VERTEX
  8
0
 10
2214.284805
 20
693.885354
 42
-0.039473
  0
VERTEX
  8
0
 10
2212.638281
 20
689.500000
 42
-0.081845
  0
VERTEX
  8
0
 10
2205.939915
 20
679.738473
 42
-0.043669
  0
VERTEX
  8
0
 10
2194.892556
 20
670.072917
 42
-0.043424
  0
VERTEX
  8
0
 10
2182.169253
 20
662.364500
 42
-0.073233
  0
VERTEX
  8
0
 10
2170.317240
 20
658.545590
 42
-0.158984
  0
VERTEX
  8
0
 10
2161.290312
 20
659.908244
 42
-0.089996
  0
VERTEX
  8
0
 10
2152.361835
 20
666.620808
 42
-0.083277
  0
VERTEX
  8
0
 10
2145.782758
 20
676.652655
 42
-0.104596
  0
VERTEX
  8
0
 10
2143.515525
 20
687.510607
 42
-0.078802
  0
VERTEX
  8
0
 10
2144.797418
 20
695.460882
 42
-0.061296
  0
VERTEX
  8
0
 10
2148.529662
 20
703.397291
 42
-0.059871
  0
VERTEX
  8
0
 10
2154.189284
 20
710.372930
 42
-0.067243
  0
VERTEX
  8
0
 10
2161.141198
 20
715.498271
 42
-0.055359
  0
VERTEX
  8
0
 10
2169.447272
 20
718.916462
 42
-0.055947
  0
VERTEX
  8
0
 10
2178.271253
 20
720.413203
 42
-0.054289
  0
VERTEX
  8
0
 10
2187.444515
 20
719.933690
 42
-0.046908
  0
SEQEND
  0
POLYLINE
  8
0
 66
1
 70
1
  0
VERTEX
  8
0
 10
953.061413
 20
2538.464585
 42
0.021971
  0
VERTEX
  8
0
 10
939.354884
 20
2536.115353
 42
0.022476
  0
VERTEX
  8
0
 10
926.012646
 20
2532.585680
 42
0.022118
  0
VERTEX
  8
0
 10
912.842890
 20
2527.811207
 42
0.019853
  0
VERTEX
  8
0
 10
899.652430
 20
2521.734210
 42
0.037407
  0
VERTEX
  8
0
 10
886.332174
 20
2513.636858
 42
0.044070
  0
VERTEX
  8
0
 10
875.134199
 20
2504.030010
 42
0.026698
  0
VERTEX
  8
0
 10
862.119808
 20
2489.199334
 42
0.005380
  0
VERTEX
  8
0
 10
840.705939
 20
2461.385650
 42
-0.006593
  0
VERTEX
  8
0
 10
834.634059
 20
2453.538567
 42
-0.007448
  0
VERTEX
  8
0
 10
828.594824
 20
2446.170767
 42
-0.007926
  0
VERTEX
  8
0
 10
823.128145
 20
2439.904731
 42
-0.020679
  0
VERTEX
  8
0
 10
818.946786
 20
2435.631884
 42
-0.036911
  0
VERTEX
  8
0
 10
803.912381
 20
2423.447291
 42
-0.026701
  0
VERTEX
  8
0
 10
785.563888
 20
2412.098989
 42
-0.024962
  0
VERTEX
  8
0
 10
764.676681
 20
2401.993884
 42
-0.022006
  0
VERTEX
  8
0
 10
741.998667
 20
2393.543678
 42
-0.026963
  0
VERTEX
  8
0
 10
727.214683
 20
2389.630415
 42
-0.033737
  0
VERTEX
  8
0
 10
713.161492
 20
2387.687256
 42
-0.015259
  0
VERTEX
  8
0
 10
692.250559
 20
2386.862197
 42
-0.001546
  0
VERTEX
  8
0
 10
642.500000
 20
2386.572230
 42
0.001158
  0
VERTEX
  8
0
 10
591.962411
 20
2386.316843
 42
0.018836
  0
VERTEX
  8
0
 10
575.004574
 20
2385.552592
 42
0.050479
  0
VERTEX
  8
0
 10
563.983352
 20
2383.506314
 42
0.032237
  0
VERTEX
  8
0
 10
551.727019
 20
2379.047686
 42
0.029990
  0
VERTEX
  8
0
 10
538.421057
 20
2372.233185
 42
0.037287
  0
VERTEX
  8
0
 10
527.012934
 20
2364.296933
 42
0.041419
  0
VERTEX
  8
0
 10
518.040128
 20
2355.680464
 42
0.064954
  0
VERTEX
  8
0
 10
512.069951
 20
2346.824070
 42
0.026074
  0
VERTEX
  8
0
 10
510.042754
 20
2342.176122
 42
0.062894
  0
VERTEX
  8
0
 10
509.176278
 20
2338.533271
 42
0.074848
  0
VERTEX
  8
0
 10
509.315157
 20
2335.190463
 42
0.051255
  0
VERTEX
  8
0
 10
510.415342
 20
2331.548373
 42
0.071320
  0
VERTEX
  8
0
 10
512.109583
 20
2328.710238
 42
0.113879
  0
VERTEX
  8
0
 10
514.325018
 20
2326.978592
 42
0.092462
  0
VERTEX
  8
0
 10
517.421572
 20
2326.180463
 42
0.035363
  0
VERTEX
  8
0
 10
521.889925
 20
2326.193151
 42
0.055201
  0
VERTEX
  8
0
 10
527.687686
 20
2327.271106
 42
0.037237
  0
VERTEX
  8
0
 10
533.970660
 20
2329.697622
 42
0.027355
  0
VERTEX
  8
0
 10
541.522903
 20
2333.800845
 42
0.010896
  0
VERTEX
  8
0
 10
551.423205
 20
2340.205169
 42
-0.022582
  0
VERTEX
  8
0
 10
567.544293
 20
2350.107161
 42
-0.046722
  0
VERTEX
  8
0
 10
581.073475
 20
2356.024112
 42
-0.047646
  0
VERTEX
  8
0
 10
595.294206
 20
2359.259233
 42
-0.024412
  0
VERTEX
  8
0
 10
613.543897
 20
2360.715942
 42
-0.007284
  0
VERTEX
  8
0
 10
623.201492
 20
2360.873093
 42
-0.012503
  0
VERTEX
  8
0
 10
631.250355
 20
2360.685506
 42
-0.011409
  0
VERTEX
  8
0
 10
639.767527
 20
2360.078711
 42
-0.004973
  0
VERTEX
  8
0
 10
651.043897
 20
2358.903014
 42
0.014098
  0
VERTEX
  8
0
 10
671.242699
 20
2357.168981
 42
0.012365
  0
VERTEX
  8
0
 10
692.411881
 20
2356.476189
 42
0.012568
  0
VERTEX
  8
0
 10
711.599559
 20
2356.805242
 42
0.034873
  0
VERTEX
  8
0
 10
725.000000
 20
2358.312373
 42
0.016821
  0
VERTEX
  8
0
 10
741.648937
 20
2361.954276
 42
0.021411
  0
VERTEX
  8
0
 10
756.705723
 20
2366.477120
 42
0.019100
  0
VERTEX
  8
0
 10
772.603858
 20
2372.695078
 42
0.009874
  0
VERTEX
  8
0
 10
792.000000
 20
2381.608461
 42
0.000000
  0
VERTEX
  8
0
 10
811.500000
 20
2391.040281
 42
0.000000
  0
VERTEX
  8
0
 10
811.733490
 20
2382.770140
 42
0.007959
  0
VERTEX
  8
0
 10
812.324147
 20
2369.398454
 42
0.007388
  0
VERTEX
  8
0
 10
813.350053
 20
2355.715559
 42
0.007599
  0
VERTEX
  8
0
 10
814.645288
 20
2343.402890
 42
0.019835
  0
VERTEX
  8
0
 10
816.060255
 20
2334.616642
 42
0.025395
  0
VERTEX
  8
0
 10
820.428279
 20
2317.518430
 42
0.021054
  0
VERTEX
  8
0
 10
826.747246
 20
2299.823842
 42
0.021292
  0
VERTEX
  8
0
 10
834.424911
 20
2282.979843
 42
0.028402
  0
VERTEX
  8
0
 10
842.878849
 20
2268.452878
 42
0.048657
  0
VERTEX
  8
0
 10
861.514000
 20
2245.458577
 42
0.046517
  0
VERTEX
  8
0
 10
884.505040
 20
2226.112054
 42
0.045639
  0
VERTEX
  8
0
 10
911.118630
 20
2211.038157
 42
0.043263
  0
VERTEX
  8
0
 10
940.500000
 20
2200.722193
 42
0.010717
  0
VERTEX
  8
0
 10
952.417535
 20
2197.934873
 42
0.023553
  0
VERTEX
  8
0
 10
961.653892
 20
2196.432718
 42
0.021614
  0
VERTEX
  8
0
 10
971.464787
 20
2195.735898
 42
0.007723
  0
VERTEX
  8
0
 10
985.500000
 20
2195.564090
 42
0.004104
  0
VERTEX
  8
0
 10
996.551438
 20
2195.690230
 42
0.013994
  0
VERTEX
  8
0
 10
1003.738812
 20
2196.032662
 42
0.019105
  0
VERTEX
  8
0
 10
1009.630179
 20
2196.705999
 42
0.014680
  0
VERTEX
  8
0
 10
1016.000000
 20
2197.874077
 42
0.021541
  0
VERTEX
  8
0
 10
1031.160400
 20
2201.806519
 42
0.026187
  0
VERTEX
  8
0
 10
1044.946547
 20
2206.826905
 42
0.027942
  0
VERTEX
  8
0
 10
1057.312449
 20
2212.914605
 42
0.033066
  0
VERTEX
  8
0
 10
1068.213665
 20
2220.048069
 42
0.022980
  0
VERTEX
  8
0
 10
1084.017134
 20
2233.131244
 42
0.021101
  0
VERTEX
  8
0
 10
1099.029132
 20
2247.971688
 42
0.021874
  0
VERTEX
  8
0
 10
1112.060610
 20
2263.280704
 42
0.033230
  0
VERTEX
  8
0
 10
1121.851573
 20
2277.745857
 42
0.040150
  0
VERTEX
  8
0
 10
1130.316267
 20
2295.343738
 42
0.023814
  0
VERTEX
  8
0
 10
1137.654422
 20
2317.453204
 42
0.023296
  0
VERTEX
  8
0
 10
1143.086403
 20
2341.049954
 42
0.029474
  0
VERTEX
  8
0
 10
1145.782118
 20
2363.267099
 42
-0.006305
  0
VERTEX
  8
0
 10
1146.180844
 20
2368.614752
 42
-0.009377
  0
VERTEX
  8
0
 10
1146.676500
 20
2373.282713
 42
-0.005048
  0
VERTEX
  8
0
 10
1147.204695
 20
2377.182112
 42
-0.161550
  0
VERTEX
  8
0
 10
1147.630287
 20
2378.030287
 42
-0.350235
  0
VERTEX
  8
0
 10
1150.283729
 20
2378.327728
 42
-0.005255
  0
VERTEX
  8
0
 10
1164.277884
 20
2369.305568
 42
-0.007381
  0
VERTEX
  8
0
 10
1185.263031
 20
2355.012900
 42
-0.001360
  0
VERTEX
  8
0
 10
1223.500000
 20
2327.979894
 42
0.002781
  0
VERTEX
  8
0
 10
1255.127470
 20
2305.754281
 42
0.008039
  0
VERTEX
  8
0
 10
1277.359181
 20
2290.839332
 42
0.006122
  0
VERTEX
  8
0
 10
1293.779479
 20
2280.485136
 42
0.141783
  0
VERTEX
  8
0
 10
1299.058167
 20
2279.031803
 42
0.138769
  0
VERTEX
  8
0
 10
1302.957842
 20
2280.190421
 42
0.149219
  0
VERTEX
  8
0
 10
1305.541505
 20
2283.196515
 42
0.113150
  0
VERTEX
  8
0
 10
1306.433514
 20
2287.875599
 42
0.060792
  0
VERTEX
  8
0
 10
1305.501867
 20
2293.707976
 42
0.042867
  0
VERTEX
  8
0
 10
1303.148167
 20
2299.857989
 42
0.044347
  0
VERTEX
  8
0
 10
1299.801803
 20
2305.442661
 42
0.032832
  0
VERTEX
  8
0
 10
1294.691515
 20
2311.582838
 42
0.011538
  0
VERTEX
  8
0
 10
1286.599440
 20
2319.716637
 42
0.023334
  0
VERTEX
  8
0
 10
1266.465775
 20
2337.312410
 42
0.011956
  0
VERTEX
  8
0
 10
1239.716272
 20
2357.548979
 42
0.011252
  0
VERTEX
  8
0
 10
1209.245483
 20
2378.450961
 42
0.010853
  0
VERTEX
  8
0
 10
1177.500000
 20
2398.223030
 42
-0.006202
  0
VERTEX
  8
0
 10
1155.507626
 20
2411.638303
 42
-0.034165
  0
VERTEX
  8
0
 10
1144.281689
 20
2419.796574
 42
-0.056610
  0
VERTEX
  8
0
 10
1137.009243
 20
2427.433602
 42
-0.039037
  0
VERTEX
  8
0
 10
1130.559624
 20
2437.500000
 42
0.026125
  0
VERTEX
  8
0
 10
1120.026288
 20
2454.913206
 42
0.018517
  0
VERTEX
  8
0
 10
1106.509059
 20
2473.325014
 42
0.018671
  0
VERTEX
  8
0
 10
1091.902172
 20
2490.399923
 42
0.029866
  0
VERTEX
  8
0
 10
1078.077941
 20
2503.700358
 42
0.030247
  0
VERTEX
  8
0
 10
1062.870926
 20
2515.162734
 42
0.030667
  0
VERTEX
  8
0
 10
1046.459838
 20
2524.648879
 42
0.030896
  0
VERTEX
  8
0
 10
1029.134642
 20
2531.994753
 42
0.031790
  0
VERTEX
  8
0
 10
1011.198995
 20
2537.068651
 42
0.033679
  0
VERTEX
  8
0
 10
999.568894
 20
2538.764551
 42
0.013366
  0
VERTEX
  8
0
 10
983.441816
 20
2539.583487
 42
0.013494
  0
VERTEX
  8
0
 10
966.760415
 20
2539.533761
 42
0.023965
  0
SEQEND
  0
POLYLINE
  8
0
 66
1
 70
1
  0
VERTEX
  8
0
 10
1012.436397
 20
2508.025569
 42
-0.060249
  0
VERTEX
  8
0
 10
1037.587150
 20
2496.483552
 42
-0.049890
  0
VERTEX
  8
0
 10
1061.058501
 20
2478.629733
 42
-0.047117
  0
VERTEX
  8
0
 10
1081.748947
 20
2455.353032
 42
-0.041929
  0
VERTEX
  8
0
 10
1098.640493
 20
2427.719865
 42
-0.032729
  0
VERTEX
  8
0
 10
1106.779022
 20
2408.439623
 42
-0.031359
  0
VERTEX
  8
0
 10
1112.467955
 20
2387.986974
 42
-0.032723
  0
VERTEX
  8
0
 10
1115.344127
 20
2368.035807
 42
-0.047768
  0
VERTEX
  8
0
 10
1115.029861
 20
2350.292875
 42
-0.035240
  0
VERTEX
  8
0
 10
1111.582513
 20
2331.730410
 42
-0.029451
  0
VERTEX
  8
0
 10
1105.409824
 20
2312.655079
 42
-0.029746
  0
VERTEX
  8
0
 10
1097.131165
 20
2294.666615
 42
-0.038606
  0
VERTEX
  8
0
 10
1087.371286
 20
2279.371515
 42
-0.045821
  0
VERTEX
  8
0
 10
1071.083630
 20
2261.415560
 42
-0.041529
  0
VERTEX
  8
0
 10
1051.281742
 20
2246.063374
 42
-0.040536
  0
VERTEX
  8
0
 10
1028.713803
 20
2233.867355
 42
-0.039087
  0
VERTEX
  8
0
 10
1004.200948
 20
2225.298359
 42
-0.013435
  0
VERTEX
  8
0
 10
998.615160
 20
2223.982873
 42
-0.022723
  0
VERTEX
  8
0
 10
993.868636
 20
2223.221825
 42
-0.019955
  0
VERTEX
  8
0
 10
988.666143
 20
2222.838008
 42
-0.007912
  0
VERTEX
  8
0
 10
981.500000
 20
2222.709613
 42
-0.016307
  0
VERTEX
  8
0
 10
971.376721
 20
2223.018667
 42
-0.029609
  0
VERTEX
  8
0
 10
963.160647
 20
2224.028799
 42
-0.024915
  0
VERTEX
  8
0
 10
954.231234
 20
2226.132313
 42
-0.008340
  0
VERTEX
  8
0
 10
941.409839
 20
2230.068313
 42
-0.009371
  0
VERTEX
  8
0
 10
930.107088
 20
2233.981201
 42
-0.020532
  0
VERTEX
  8
0
 10
921.650011
 20
2237.487948
 42
-0.022990
  0
VERTEX
  8
0
 10
914.121137
 20
2241.408547
 42
-0.015251
  0
VERTEX
  8
0
 10
905.848907
 20
2246.555438
 42
-0.101828
  0
VERTEX
  8
0
 10
869.957357
 20
2282.781253
 42
-0.084268
  0
VERTEX
  8
0
 10
848.280915
 20
2332.700002
 42
-0.083049
  0
VERTEX
  8
0
 10
844.106074
 20
2387.665308
 42
-0.094438
  0
VERTEX
  8
0
 10
858.593993
 20
2438.386997
 42
-0.018280
  0
VERTEX
  8
0
 10
863.631843
 20
2447.541148
 42
-0.021169
  0
VERTEX
  8
0
 10
869.100706
 20
2455.852312
 42
-0.021003
  0
VERTEX
  8
0
 10
875.291986
 20
2463.726432
 42
-0.017474
  0
VERTEX
  8
0
 10
882.500000
 20
2471.568969
 42
-0.039816
  0
VERTEX
  8
0
 10
899.428254
 20
2486.207822
 42
-0.058401
  0
VERTEX
  8
0
 10
916.524510
 20
2495.922672
 42
-0.045901
  0
VERTEX
  8
0
 10
938.290718
 20
2502.855078
 42
-0.015541
  0
VERTEX
  8
0
 10
971.000000
 20
2508.993874
 42
-0.020223
  0
VERTEX
  8
0
 10
982.883193
 20
2510.354461
 42
-0.024236
  0
VERTEX
  8
0
 10
994.138132
 20
2510.636998
 42
-0.026583
  0
VERTEX
  8
0
 10
1004.199284
 20
2509.865642
 42
-0.045085
  0
SEQEND
  0
POLYLINE
  8
0
 66
1
 70
1
  0
VERTEX
  8
0
 10
1371.388117
 20
2237.019931
 42
0.142355
  0
VERTEX
  8
0
 10
1367.595434
 20
2234.034870
 42
0.069329
  0
VERTEX
  8
0
 10
1364.709923
 20
2228.529343
 42
0.066431
  0
VERTEX
  8
0
 10
1363.331658
 20
2222.114767
 42
0.097364
  0
VERTEX
  8
0
 10
1363.992878
 20
2216.397300
 42
0.072279
  0
VERTEX
  8
0
 10
1368.595525
 20
2206.955113
 42
0.019105
  0
VERTEX
  8
0
 10
1378.594168
 20
2193.415266
 42
0.011538
  0
VERTEX
  8
0
 10
1395.429377
 20
2173.320177
 42
0.002422
  0
VERTEX
  8
0
 10
1425.852279
 20
2139.000000
 42
0.009270
  0
VERTEX
  8
0
 10
1444.614322
 20
2118.806096
 42
0.004187
  0
VERTEX
  8
0
 10
1469.915613
 20
2093.002675
 42
0.003340
  0
VERTEX
  8
0
 10
1494.632633
 20
2068.542817
 42
0.024945
  0
VERTEX
  8
0
 10
1507.000000
 20
2057.616548
 42
0.022909
  0
VERTEX
  8
0
 10
1529.864861
 20
2041.018100
 42
0.018528
  0
VERTEX
  8
0
 10
1555.801654
 20
2025.291876
 42
0.015627
  0
VERTEX
  8
0
 10
1579.848946
 20
2012.871613
 42
0.111838
  0
VERTEX
  8
0
 10
1592.526590
 20
2010.000000
 42
0.113600
  0
VERTEX
  8
0
 10
1595.160023
 20
2010.606138
 42
0.130842
  0
VERTEX
  8
0
 10
1597.105735
 20
2012.287576
 42
0.085157
  0
VERTEX
  8
0
 10
1598.503050
 20
2015.350344
 42
0.027323
  0
VERTEX
  8
0
 10
1599.516757
 20
2020.263175
 42
0.067537
  0
VERTEX
  8
0
 10
1599.637486
 20
2028.897386
 42
0.128849
  0
VERTEX
  8
0
 10
1597.098899
 20
2035.305741
 42
0.086268
  0
VERTEX
  8
0
 10
1590.913619
 20
2041.246418
 42
0.019280
  0
VERTEX
  8
0
 10
1578.425131
 20
2048.981801
 42
-0.030454
  0
VERTEX
  8
0
 10
1533.513232
 20
2078.207833
 42
-0.027609
  0
VERTEX
  8
0
 10
1490.914659
 20
2113.580612
 42
-0.026683
  0
VERTEX
  8
0
 10
1451.094305
 20
2154.708266
 42
-0.024220
  0
VERTEX
  8
0
 10
1414.493429
 20
2201.147892
 42
0.011343
  0
VERTEX
  8
0
 10
1404.872148
 20
2214.023941
 42
0.022383
  0
VERTEX
  8
0
 10
1396.559788
 20
2223.711132
 42
0.028196
  0
VERTEX
  8
0
 10
1389.234865
 20
2230.680033
 42
0.060249
  0
VERTEX
  8
0
 10
1382.729070
 20
2234.977521
 42
0.012943
  0
VERTEX
  8
0
 10
1378.553553
 20
2236.930679
 42
0.058432
  0
VERTEX
  8
0
 10
1375.982370
 20
2237.711730
 42
0.087718
  0
VERTEX
  8
0
 10
1373.837174
 20
2237.718581
 42
0.053098
  0
SEQEND
  0
POLYLINE
  8
0
 66
1
 70
1
  0
VERTEX
  8
0
 10
1219.269925
 20
2236.293716
 42
0.074407
  0
VERTEX
  8
0
 10
1218.264176
 20
2235.940228
 42
0.033625
  0
VERTEX
  8
0
 10
1217.072708
 20
2235.203578
 42
0.032350
  0
VERTEX
  8
0
 10
1215.896562
 20
2234.241437
 42
0.038063
  0
VERTEX
  8
0
 10
1214.921631
 20
2233.183060
 42
0.045700
  0
VERTEX
  8
0
 10
1213.874834
 20
2231.574649
 42
0.068707
  0
VERTEX
  8
0
 10
1213.304215
 20
2230.003745
 42
0.054486
  0
VERTEX
  8
0
 10
1213.107004
 20
2228.083848
 42
0.018832
  0
VERTEX
  8
0
 10
1213.230247
 20
2225.295001
 42
0.102679
  0
VERTEX
  8
0
 10
1215.479532
 20
2217.659021
 42
0.050902
  0
VERTEX
  8
0
 10
1221.147185
 20
2209.245628
 42
0.031185
  0
VERTEX
  8
0
 10
1231.229165
 20
2198.571687
 42
0.008523
  0
VERTEX
  8
0
 10
1248.429827
 20
2183.038103
 42
-0.008515
  0
VERTEX
  8
0
 10
1263.628869
 20
2169.312617
 42
-0.009773
  0
VERTEX
  8
0
 10
1277.655578
 20
2155.682165
 42
-0.010566
  0
VERTEX
  8
0
 10
1289.848854
 20
2142.828746
 42
-0.017882
  0
VERTEX
  8
0
 10
1299.432742
 20
2131.500000
 42
0.013081
  0
VERTEX
  8
0
 10
1310.858948
 20
2117.727534
 42
0.066576
  0
VERTEX
  8
0
 10
1318.336299
 20
2111.180963
 42
0.134537
  0
VERTEX
  8
0
 10
1324.579271
 20
2109.121108
 42
0.132895
  0
VERTEX
  8
0
 10
1331.032733
 20
2110.516927
 42
0.233837
  0
VERTEX
  8
0
 10
1336.324039
 20
2117.711534
 42
0.103193
  0
VERTEX
  8
0
 10
1335.949047
 20
2129.823566
 42
0.066336
  0
VERTEX
  8
0
 10
1329.773008
 20
2145.790083
 42
0.033536
  0
VERTEX
  8
0
 10
1318.136678
 20
2164.000000
 42
0.028629
  0
VERTEX
  8
0
 10
1310.668883
 20
2172.994917
 42
0.010761
  0
VERTEX
  8
0
 10
1299.246556
 20
2184.735384
 42
0.010776
  0
VERTEX
  8
0
 10
1286.493718
 20
2196.761041
 42
0.014848
  0
VERTEX
  8
0
 10
1274.500000
 20
2206.962321
 42
0.015228
  0
VERTEX
  8
0
 10
1256.021234
 20
2220.855092
 42
0.031514
  0
VERTEX
  8
0
 10
1240.642968
 20
2230.309118
 42
0.040396
  0
VERTEX
  8
0
 10
1228.199052
 20
2235.679947
 42
0.129757
  0
SEQEND
  0
POLYLINE
  8
0
 66
1
 70
1
  0
VERTEX
  8
0
 10
1123.418438
 20
2173.031147
 42
0.090758
  0
VERTEX
  8
0
 10
1121.117040
 20
2171.570800
 42
0.038295
  0
VERTEX
  8
0
 10
1118.618011
 20
2168.876353
 42
0.037401
  0
VERTEX
  8
0
 10
1116.409110
 20
2165.623021
 42
0.050776
  0
VERTEX
  8
0
 10
1114.961692
 20
2162.383924
 42
0.069800
  0
VERTEX
  8
0
 10
1114.044924
 20
2157.328673
 42
0.040899
  0
VERTEX
  8
0
 10
1114.301979
 20
2151.172023
 42
0.039175
  0
VERTEX
  8
0
 10
1115.613179
 20
2144.762657
 42
0.044541
  0
VERTEX
  8
0
 10
1117.874066
 20
2138.918409
 42
0.050508
  0
VERTEX
  8
0
 10
1123.955652
 20
2129.198222
 42
0.031975
  0
VERTEX
  8
0
 10
1132.817920
 20
2119.173639
 42
0.028879
  0
VERTEX
  8
0
 10
1141.955762
 20
2111.074793
 42
0.168429
  0
VERTEX
  8
0
 10
1147.940285
 20
2109.000000
 42
0.084078
  0
VERTEX
  8
0
 10
1150.160775
 20
2109.376046
 42
0.049790
  0
VERTEX
  8
0
 10
1152.603329
 20
2110.511127
 42
0.045430
  0
VERTEX
  8
0
 10
1155.022615
 20
2112.257767
 42
0.040990
  0
VERTEX
  8
0
 10
1157.178838
 20
2114.469243
 42
0.116190
  0
VERTEX
  8
0
 10
1160.068540
 20
2120.309492
 42
0.060236
  0
VERTEX
  8
0
 10
1160.949101
 20
2128.446009
 42
0.054751
  0
VERTEX
  8
0
 10
1159.837520
 20
2137.518530
 42
0.053735
  0
VERTEX
  8
0
 10
1156.781561
 20
2146.194228
 42
0.043595
  0
VERTEX
  8
0
 10
1149.162066
 20
2159.104532
 42
0.068376
  0
VERTEX
  8
0
 10
1140.326203
 20
2168.459932
 42
0.090477
  0
VERTEX
  8
0
 10
1131.397719
 20
2173.302269
 42
0.177041
  0
SEQEND
  0
POLYLINE
  8
0
 66
1
 70
1
  0
VERTEX
  8
0
 10
1145.729804
 20
2076.048190
 42
0.059111
  0
VERTEX
  8
0
 10
1135.101170
 20
2071.206564
 42
0.034581
  0
VERTEX
  8
0
 10
1123.656577
 20
2063.128098
 42
0.034300
  0
VERTEX
  8
0
 10
1113.257655
 20
2053.394425
 42
0.051602
  0
VERTEX
  8
0
 10
1105.779333
 20
2043.490402
 42
0.083915
  0
VERTEX
  8
0
 10
1097.542802
 20
2022.638845
 42
0.084728
  0
VERTEX
  8
0
 10
1096.655778
 20
2000.310831
 42
0.084327
  0
VERTEX
  8
0
 10
1103.233583
 20
1978.864599
 42
0.082065
  0
VERTEX
  8
0
 10
1116.565706
 20
1960.564736
 42
0.056608
  0
VERTEX
  8
0
 10
1128.260630
 20
1951.407121
 42
0.058746
  0
VERTEX
  8
0
 10
1141.570750
 20
1945.240494
 42
0.056399
  0
VERTEX
  8
0
 10
1156.434352
 20
1942.168233
 42
0.045697
  0
VERTEX
  8
0
 10
1172.726725
 20
1942.171191
 42
0.061004
  0
VERTEX
  8
0
 10
1192.319180
 20
1946.416217
 42
0.075841
  0
VERTEX
  8
0
 10
1208.777958
 20
1955.123733
 42
0.079085
  0
VERTEX
  8
0
 10
1221.381986
 20
1967.994000
 42
0.074091
  0
VERTEX
  8
0
 10
1229.709996
 20
1984.421589
 42
0.017450
  0
VERTEX
  8
0
 10
1231.195980
 20
1989.467713
 42
0.033349
  0
VERTEX
  8
0
 10
1231.972082
 20
1993.619128
 42
0.023666
  0
VERTEX
  8
0
 10
1232.330700
 20
1998.674555
 42
0.005029
  0
VERTEX
  8
0
 10
1232.449297
 20
2007.500000
 42
0.004942
  0
VERTEX
  8
0
 10
1232.390189
 20
2016.589666
 42
0.025813
  0
VERTEX
  8
0
 10
1232.050120
 20
2021.582987
 42
0.035013
  0
VERTEX
  8
0
 10
1231.238439
 20
2025.812315
 42
0.014274
  0
VERTEX
  8
0
 10
1229.573130
 20
2031.430666
 42
0.055822
  0
VERTEX
  8
0
 10
1223.149880
 20
2045.501916
 42
0.063388
  0
VERTEX
  8
0
 10
1213.990117
 20
2057.150296
 42
0.062385
  0
VERTEX
  8
0
 10
1202.069148
 20
2066.273323
 42
0.051550
  0
VERTEX
  8
0
 10
1187.488024
 20
2072.883050
 42
0.029522
  0
VERTEX
  8
0
 10
1176.031089
 20
2075.974628
 42
0.032233
  0
VERTEX
  8
0
 10
1164.620922
 20
2077.583684
 42
0.034892
  0
VERTEX
  8
0
 10
1154.188338
 20
2077.645198
 42
0.061451
  0
SEQEND
  0
POLYLINE
  8
0
 66
1
 70
1
  0
VERTEX
  8
0
 10
1172.040348
 20
2044.992348
 42
-0.091400
  0
VERTEX
  8
0
 10
1186.644874
 20
2039.332613
 42
-0.103434
  0
VERTEX
  8
0
 10
1197.543703
 20
2029.012318
 42
-0.107724
  0
VERTEX
  8
0
 10
1203.104826
 20
2015.556246
 42
-0.106835
  0
VERTEX
  8
0
 10
1202.585391
 20
2000.963693
 42
-0.039256
  0
VERTEX
  8
0
 10
1200.390601
 20
1994.490970
 42
-0.042263
  0
VERTEX
  8
0
 10
1197.253413
 20
1988.607434
 42
-0.042834
  0
VERTEX
  8
0
 10
1193.215436
 20
1983.404097
 42
-0.042578
  0
VERTEX
  8
0
 10
1188.342373
 20
1978.953503
 42
-0.091261
  0
VERTEX
  8
0
 10
1175.632226
 20
1972.449240
 42
-0.099190
  0
VERTEX
  8
0
 10
1161.817843
 20
1971.157406
 42
-0.094448
  0
VERTEX
  8
0
 10
1148.037923
 20
1975.311974
 42
-0.074896
  0
VERTEX
  8
0
 10
1135.454198
 20
1984.500000
 42
-0.041561
  0
VERTEX
  8
0
 10
1129.486660
 20
1991.477542
 42
-0.078851
  0
VERTEX
  8
0
 10
1126.165892
 20
1998.062428
 42
-0.087166
  0
VERTEX
  8
0
 10
1125.232862
 20
2004.890051
 42
-0.061285
  0
VERTEX
  8
0
 10
1126.474654
 20
2012.560808
 42
-0.037171
  0
VERTEX
  8
0
 10
1129.676191
 20
2021.138734
 42
-0.032501
  0
VERTEX
  8
0
 10
1134.238219
 20
2029.559282
 42
-0.033874
  0
VERTEX
  8
0
 10
1139.376574
 20
2036.618409
 42
-0.080244
  0
VERTEX
  8
0
 10
1144.276654
 20
2040.861965
 42
-0.057485
  0
VERTEX
  8
0
 10
1150.181526
 20
2043.632713
 42
-0.044079
  0
VERTEX
  8
0
 10
1157.117502
 20
2045.299121
 42
-0.042170
  0
VERTEX
  8
0
 10
1164.576324
 20
2045.772609
 42
-0.041655
  0
SEQEND
  0
POLYLINE
  8
0
 66
1
 70
1
  0
VERTEX
  8
0
 10
1705.762486
 20
2070.250000
 42
0.087363
  0
VERTEX
  8
0
 10
1701.052023
 20
2063.315713
 42
0.162646
  0
VERTEX
  8
0
 10
1700.381343
 20
2056.627628
 42
0.115674
  0
VERTEX
  8
0
 10
1703.958280
 20
2049.276321
 42
0.033631
  0
VERTEX
  8
0
 10
1712.607139
 20
2040.000000
 42
0.033217
  0
VERTEX
  8
0
 10
1724.613138
 20
2030.156569
 42
0.025135
  0
VERTEX
  8
0
 10
1738.963716
 20
2020.956793
 42
0.025666
  0
VERTEX
  8
0
 10
1753.453150
 20
2013.624101
 42
0.049856
  0
VERTEX
  8
0
 10
1765.762079
 20
2009.578606
 42
0.040206
  0
VERTEX
  8
0
 10
1777.808108
 20
2007.911236
 42
0.006449
  0
VERTEX
  8
0
 10
1801.546316
 20
2006.859528
 42
0.004853
  0
VERTEX
  8
0
 10
1837.082495
 20
2006.089294
 42
0.001276
  0
VERTEX
  8
0
 10
1894.000000
 20
2005.553518
 42
-0.001764
  0
VERTEX
  8
0
 10
1963.873069
 20
2004.827611
 42
-0.007829
  0
VERTEX
  8
0
 10
2004.936032
 20
2003.612893
 42
-0.013175
  0
VERTEX
  8
0
 10
2032.490639
 20
2001.637185
 42
-0.030340
  0
VERTEX
  8
0
 10
2053.000000
 20
1998.357057
 42
-0.013951
  0
VERTEX
  8
0
 10
2073.513819
 20
1993.181192
 42
-0.016395
  0
VERTEX
  8
0
 10
2092.618088
 20
1987.107040
 42
-0.016138
  0
VERTEX
  8
0
 10
2111.537256
 20
1979.705812
 42
-0.012769
  0
VERTEX
  8
0
 10
2131.500000
 20
1970.533352
 42
-0.010345
  0
VERTEX
  8
0
 10
2147.233525
 20
1962.403508
 42
-0.013148
  0
VERTEX
  8
0
 10
2161.387301
 20
1954.225778
 42
-0.013139
  0
VERTEX
  8
0
 10
2175.099259
 20
1945.310769
 42
-0.010308
  0
VERTEX
  8
0
 10
2189.500000
 20
1934.956239
 42
0.008152
  0
VERTEX
  8
0
 10
2206.503144
 20
1922.618918
 42
0.060291
  0
VERTEX
  8
0
 10
2215.317965
 20
1917.906367
 42
0.151980
  0
VERTEX
  8
0
 10
2221.323033
 20
1917.492151
 42
0.146505
  0
VERTEX
  8
0
 10
2226.604811
 20
1920.542455
 42
0.056394
  0
VERTEX
  8
0
 10
2229.339933
 20
1924.189549
 42
0.064884
  0
VERTEX
  8
0
 10
2231.037936
 20
1928.192168
 42
0.068083
  0
VERTEX
  8
0
 10
2231.602203
 20
1932.325753
 42
0.072831
  0
VERTEX
  8
0
 10
2231.010218
 20
1936.360231
 42
0.173524
  0
VERTEX
  8
0
 10
2217.722881
 20
1954.404530
 42
0.018926
  0
VERTEX
  8
0
 10
2173.185416
 20
1981.993355
 42
0.023869
  0
VERTEX
  8
0
 10
2121.633799
 20
2008.116525
 42
0.033922
  0
VERTEX
  8
0
 10
2073.449887
 20
2025.895085
 42
0.021154
  0
VERTEX
  8
0
 10
2064.785072
 20
2028.046350
 42
0.010630
  0
VERTEX
  8
0
 10
2053.691433
 20
2030.062692
 42
0.009829
  0
VERTEX
  8
0
 10
2041.158736
 20
2031.814485
 42
0.008607
  0
VERTEX
  8
0
 10
2028.000000
 20
2033.161450
 42
0.019315
  0
VERTEX
  8
0
 10
2006.329338
 20
2034.162677
 42
0.001866
  0
VERTEX
  8
0
 10
1953.671640
 20
2034.363389
 42
0.002616
  0
VERTEX
  8
0
 10
1897.997499
 20
2034.076480
 42
0.004591
  0
VERTEX
  8
0
 10
1851.946587
 20
2033.175317
 42
-0.009375
  0
VERTEX
  8
0
 10
1807.714285
 20
2032.733098
 42
-0.053981
  0
VERTEX
  8
0
 10
1784.493526
 20
2035.453233
 42
-0.069851
  0
VERTEX
  8
0
 10
1765.086322
 20
2042.845673
 42
-0.021741
  0
VERTEX
  8
0
 10
1738.382785
 20
2059.103849
 42
0.004597
  0
VERTEX
  8
0
 10
1721.512687
 20
2070.184952
 42
0.060756
  0
VERTEX
  8
0
 10
1714.814565
 20
2073.425620
 42
0.179980
  0
VERTEX
  8
0
 10
1710.310374
 20
2073.304468
 42
0.104573
  0
SEQEND
  0
POLYLINE
  8
0
 66
1
 70
1
  0
VERTEX
  8
0
 10
2283.625000
 20
1912.875000
 42
0.059045
  0
VERTEX
  8
0
 10
2283.108229
 20
1906.383772
 42
0.037949
  0
VERTEX
  8
0
 10
2283.971230
 20
1898.871068
 42
0.036083
  0
VERTEX
  8
0
 10
2286.058680
 20
1891.098271
 42
0.037472
  0
VERTEX
  8
0
 10
2289.222168
 20
1883.807999
 42
0.054167
  0
VERTEX
  8
0
 10
2295.355115
 20
1874.698619
 42
0.018278
  0
VERTEX
  8
0
 10
2306.129026
 20
1862.835816
 42
0.017912
  0
VERTEX
  8
0
 10
2319.110717
 20
1850.470351
 42
0.019417
  0
VERTEX
  8
0
 10
2332.609937
 20
1839.409470
 42
0.026147
  0
VERTEX
  8
0
 10
2338.404755
 20
1835.484619
 42
0.014665
  0
VERTEX
  8
0
 10
2345.815220
 20
1831.303230
 42
0.010648
  0
VERTEX
  8
0
 10
2352.995619
 20
1827.717959
 42
0.110902
  0
VERTEX
  8
0
 10
2356.192718
 20
1827.000000
 42
0.156610
  0
VERTEX
  8
0
 10
2358.512995
 20
1827.745030
 42
0.053942
  0
VERTEX
  8
0
 10
2361.173123
 20
1830.121667
 42
0.051295
  0
VERTEX
  8
0
 10
2363.511065
 20
1833.319190
 42
0.066550
  0
VERTEX
  8
0
 10
2364.910041
 20
1836.665920
 42
0.176437
  0
VERTEX
  8
0
 10
2363.776474
 20
1849.776589
 42
0.058497
  0
VERTEX
  8
0
 10
2353.489065
 20
1866.466210
 42
0.047214
  0
VERTEX
  8
0
 10
2336.167776
 20
1884.559367
 42
0.030572
  0
VERTEX
  8
0
 10
2313.109613
 20
1902.150518
 42
0.010840
  0
VERTEX
  8
0
 10
2304.434279
 20
1907.697752
 42
0.016257
  0
VERTEX
  8
0
 10
2296.610898
 20
1912.122408
 42
0.015706
  0
VERTEX
  8
0
 10
2290.130140
 20
1915.259342
 42
0.105233
  0
VERTEX
  8
0
 10
2286.649964
 20
1916.000000
 42
0.065297
  0
VERTEX
  8
0
 10
2285.432376
 20
1915.840309
 42
0.136041
  0
VERTEX
  8
0
 10
2284.613871
 20
1915.359369
 42
0.109444
  0
VERTEX
  8
0
 10
2284.051177
 20
1914.443878
 42
0.033937
  0
SEQEND
  0
POLYLINE
  8
0
 66
1
 70
1
  0
VERTEX
  8
0
 10
952.500000
 20
2469.022591
 42
0.024218
  0
VERTEX
  8
0
 10
946.586364
 20
2467.879550
 42
0.025846
  0
VERTEX
  8
0
 10
940.940583
 20
2466.188365
 42
0.021120
  0
VERTEX
  8
0
 10
934.619328
 20
2463.627176
 42
0.009374
  0
VERTEX
  8
0
 10
926.500000
 20
2459.745707
 42
0.022953
  0
VERTEX
  8
0
 10
913.440342
 20
2452.430712
 42
0.034279
  0
VERTEX
  8
0
 10
902.832635
 20
2444.777253
 42
0.037301
  0
VERTEX
  8
0
 10
894.051706
 20
2436.294804
 42
0.035929
  0
VERTEX
  8
0
 10
886.507954
 20
2426.500000
 42
0.022723
  0
VERTEX
  8
0
 10
879.314801
 20
2414.473440
 42
0.025788
  0
VERTEX
  8
0
 10
873.568379
 20
2402.331081
 42
0.026616
  0
VERTEX
  8
0
 10
869.254060
 20
2390.026713
 42
0.027839
  0
VERTEX
  8
0
 10
866.346348
 20
2377.515529
 42
0.033667
  0
VERTEX
  8
0
 10
865.340878
 20
2368.009781
 42
0.015246
  0
VERTEX
  8
0
 10
865.245861
 20
2355.483452
 42
0.015248
  0
VERTEX
  8
0
 10
865.914718
 20
2342.969495
 42
0.033518
  0
VERTEX
  8
0
 10
867.354648
 20
2333.500000
 42
0.050785
  0
VERTEX
  8
0
 10
875.718799
 20
2308.209347
 42
0.056765
  0
VERTEX
  8
0
 10
888.784498
 20
2286.127397
 42
0.059063
  0
VERTEX
  8
0
 10
905.948176
 20
2268.273339
 42
0.063663
  0
VERTEX
  8
0
 10
926.407183
 20
2255.447534
 42
0.027756
  0
VERTEX
  8
0
 10
938.506033
 20
2250.652749
 42
0.029219
  0
VERTEX
  8
0
 10
950.857672
 20
2247.322008
 42
0.028265
  0
VERTEX
  8
0
 10
963.882061
 20
2245.374095
 42
0.022887
  0
VERTEX
  8
0
 10
978.000000
 20
2244.721704
 42
0.039220
  0
VERTEX
  8
0
 10
999.681748
 20
2246.416071
 42
0.043796
  0
VERTEX
  8
0
 10
1020.018948
 20
2251.477622
 42
0.044563
  0
VERTEX
  8
0
 10
1038.856502
 20
2259.901927
 42
0.043413
  0
VERTEX
  8
0
 10
1056.080352
 20
2271.593797
 42
0.091730
  0
VERTEX
  8
0
 10
1075.745822
 20
2294.719621
 42
0.072076
  0
VERTEX
  8
0
 10
1087.906838
 20
2325.357436
 42
0.068154
  0
VERTEX
  8
0
 10
1091.297202
 20
2359.893710
 42
0.066506
  0
VERTEX
  8
0
 10
1085.340834
 20
2394.373997
 42
0.040824
  0
VERTEX
  8
0
 10
1079.203535
 20
2409.498749
 42
0.035352
  0
VERTEX
  8
0
 10
1070.429741
 20
2424.210466
 42
0.035470
  0
VERTEX
  8
0
 10
1059.708158
 20
2437.486837
 42
0.041929
  0
VERTEX
  8
0
 10
1047.758219
 20
2448.326922
 42
0.036195
  0
VERTEX
  8
0
 10
1036.999507
 20
2455.384462
 42
0.033406
  0
VERTEX
  8
0
 10
1025.049438
 20
2461.031126
 42
0.032182
  0
VERTEX
  8
0
 10
1012.010432
 20
2465.212107
 42
0.028479
  0
VERTEX
  8
0
 10
998.000000
 20
2467.892188
 42
0.019702
  0
VERTEX
  8
0
 10
988.023784
 20
2468.819295
 42
0.007107
  0
VERTEX
  8
0
 10
973.786682
 20
2469.375573
 42
0.006220
  0
VERTEX
  8
0
 10
959.862640
 20
2469.548239
 42
0.035632
  0
SEQEND
  0
POLYLINE
  8
0
 66
1
 70
1
  0
VERTEX
  8
0
 10
999.983665
 20
2441.996816
 42
-0.044764
  0
VERTEX
  8
0
 10
1011.344339
 20
2437.627413
 42
-0.039966
  0
VERTEX
  8
0
 10
1022.211585
 20
2431.164507
 42
-0.037648
  0
VERTEX
  8
0
 10
1032.500460
 20
2422.643729
 42
-0.031000
  0
VERTEX
  8
0
 10
1042.134184
 20
2412.132838
 42
-0.028306
  0
VERTEX
  8
0
 10
1049.968022
 20
2401.236023
 42
-0.043701
  0
VERTEX
  8
0
 10
1055.314923
 20
2390.949567
 42
-0.043105
  0
VERTEX
  8
0
 10
1058.839963
 20
2379.786173
 42
-0.026626
  0
VERTEX
  8
0
 10
1061.122174
 20
2366.203080
 42
-0.078963
  0
VERTEX
  8
0
 10
1059.941048
 20
2339.603425
 42
-0.082247
  0
VERTEX
  8
0
 10
1050.541018
 20
2315.084804
 42
-0.083487
  0
VERTEX
  8
0
 10
1033.894762
 20
2295.193338
 42
-0.084806
  0
VERTEX
  8
0
 10
1011.742517
 20
2281.969099
 42
-0.019872
  0
VERTEX
  8
0
 10
1002.712827
 20
2278.883843
 42
-0.030482
  0
VERTEX
  8
0
 10
994.664098
 20
2277.011514
 42
-0.028197
  0
VERTEX
  8
0
 10
986.004393
 20
2276.044263
 42
-0.014162
  0
VERTEX
  8
0
 10
975.000000
 20
2275.752211
 42
-0.017336
  0
VERTEX
  8
0
 10
963.674438
 20
2276.165276
 42
-0.032522
  0
VERTEX
  8
0
 10
954.601267
 20
2277.408219
 42
-0.035302
  0
VERTEX
  8
0
 10
946.274385
 20
2279.728344
 42
-0.025035
  0
VERTEX
  8
0
 10
937.310317
 20
2283.437964
 42
-0.056386
  0
VERTEX
  8
0
 10
923.811103
 20
2291.809168
 42
-0.056730
  0
VERTEX
  8
0
 10
912.554025
 20
2302.969386
 42
-0.055190
  0
VERTEX
  8
0
 10
903.846452
 20
2316.671397
 42
-0.048431
  0
VERTEX
  8
0
 10
897.885318
 20
2332.553980
 42
-0.040432
  0
VERTEX
  8
0
 10
896.070136
 20
2342.447767
 42
-0.016954
  0
VERTEX
  8
0
 10
895.166551
 20
2355.969571
 42
-0.016903
  0
VERTEX
  8
0
 10
895.179810
 20
2369.469877
 42
-0.042311
  0
VERTEX
  8
0
 10
896.352285
 20
2379.246421
 42
-0.046351
  0
VERTEX
  8
0
 10
901.357812
 20
2395.626957
 42
-0.055115
  0
VERTEX
  8
0
 10
909.094967
 20
2409.812567
 42
-0.056140
  0
VERTEX
  8
0
 10
919.606290
 20
2421.758476
 42
-0.051067
  0
VERTEX
  8
0
 10
932.831804
 20
2431.502734
 42
-0.030431
  0
VERTEX
  8
0
 10
939.297778
 20
2434.804293
 42
-0.015833
  0
VERTEX
  8
0
 10
947.712920
 20
2438.161384
 42
-0.015252
  0
VERTEX
  8
0
 10
956.948769
 20
2441.195642
 42
-0.017152
  0
VERTEX
  8
0
 10
966.000000
 20
2443.532078
 42
-0.042732
  0
VERTEX
  8
0
 10
973.414459
 20
2444.523364
 42
-0.023165
  0
VERTEX
  8
0
 10
982.620445
 20
2444.534185
 42
-0.022992
  0
VERTEX
  8
0
 10
991.997089
 20
2443.677391
 42
-0.035165
  0
SEQEND
  0
ENDSEC
  0
EOF
