<svg xmlns="http://www.w3.org/2000/svg" xmlns:xlink="http://www.w3.org/1999/xlink" width="256" zoomAndPan="magnify" viewBox="0 0 192 191.999996" height="256" preserveAspectRatio="xMidYMid meet" version="1.2"><g id="f6f4af98fb"><rect x="0" width="192" y="0" height="191.999996" style="fill:#ffffff;fill-opacity:1;stroke:none;"/><rect x="0" width="192" y="0" height="191.999996" style="fill:#ffffff;fill-opacity:1;stroke:none;"/><rect x="0" width="192" y="0" height="191.999996" style="fill:#ffffff;fill-opacity:1;stroke:none;"/><path style="fill-rule:nonzero;fill:#ffffff;fill-opacity:1;stroke-width:1;stroke-linecap:butt;stroke-linejoin:miter;stroke:#000000;stroke-opacity:1;stroke-miterlimit:4;" d="M 2.000061 2.500244 L 8.999939 2.500244 M 13.999757 2.500244 L 17.000184 2.500244 M 17.999879 2.500244 L 22.000001 2.500244 M 24.000062 2.500244 L 30.999941 2.500244 M 2.000061 3.499939 L 2.999756 3.499939 M 8.000244 3.499939 L 8.999939 3.499939 M 10.000306 3.499939 L 11 3.499939 M 11.999695 3.499939 L 15.000123 3.499939 M 15.999818 3.499939 L 19.000245 3.499939 M 19.99994 3.499939 L 22.999696 3.499939 M 24.000062 3.499939 L 24.999757 3.499939 M 30.000246 3.499939 L 30.999941 3.499939 M 2.000061 4.500306 L 2.999756 4.500306 M 4.000122 4.500306 L 6.999878 4.500306 M 8.000244 4.500306 L 8.999939 4.500306 M 11.999695 4.500306 L 13.000062 4.500306 M 15.000123 4.500306 L 17.999879 4.500306 M 21.000306 4.500306 L 22.000001 4.500306 M 24.000062 4.500306 L 24.999757 4.500306 M 26.000124 4.500306 L 28.99988 4.500306 M 30.000246 4.500306 L 30.999941 4.500306 M 2.000061 5.5 L 2.999756 5.5 M 4.000122 5.5 L 6.999878 5.5 M 8.000244 5.5 L 8.999939 5.5 M 11 5.5 L 11.999695 5.5 M 15.000123 5.5 L 17.999879 5.5 M 19.99994 5.5 L 21.000306 5.5 M 24.000062 5.5 L 24.999757 5.5 M 26.000124 5.5 L 28.99988 5.5 M 30.000246 5.5 L 30.999941 5.5 M 2.000061 6.499695 L 2.999756 6.499695 M 4.000122 6.499695 L 6.999878 6.499695 M 8.000244 6.499695 L 8.999939 6.499695 M 10.000306 6.499695 L 11 6.499695 M 13.000062 6.499695 L 13.999757 6.499695 M 15.999818 6.499695 L 17.999879 6.499695 M 19.000245 6.499695 L 22.000001 6.499695 M 24.000062 6.499695 L 24.999757 6.499695 M 26.000124 6.499695 L 28.99988 6.499695 M 30.000246 6.499695 L 30.999941 6.499695 M 2.000061 7.500062 L 2.999756 7.500062 M 8.000244 7.500062 L 8.999939 7.500062 M 11 7.500062 L 13.000062 7.500062 M 15.000123 7.500062 L 15.999818 7.500062 M 17.000184 7.500062 L 19.000245 7.500062 M 21.000306 7.500062 L 22.000001 7.500062 M 24.000062 7.500062 L 24.999757 7.500062 M 30.000246 7.500062 L 30.999941 7.500062 M 2.000061 8.499756 L 8.999939 8.499756 M 10.000306 8.499756 L 11 8.499756 M 11.999695 8.499756 L 13.000062 8.499756 M 13.999757 8.499756 L 15.000123 8.499756 M 15.999818 8.499756 L 17.000184 8.499756 M 17.999879 8.499756 L 19.000245 8.499756 M 19.99994 8.499756 L 21.000306 8.499756 M 22.000001 8.499756 L 22.999696 8.499756 M 24.000062 8.499756 L 30.999941 8.499756 M 11.999695 9.500123 L 17.000184 9.500123 M 17.999879 9.500123 L 21.000306 9.500123 M 2.000061 10.499818 L 2.999756 10.499818 M 4.000122 10.499818 L 4.999817 10.499818 M 6.000183 10.499818 L 6.999878 10.499818 M 8.000244 10.499818 L 8.999939 10.499818 M 11.999695 10.499818 L 13.999757 10.499818 M 15.999818 10.499818 L 21.000306 10.499818 M 22.000001 10.499818 L 22.999696 10.499818 M 26.000124 10.499818 L 26.999819 10.499818 M 28.99988 10.499818 L 30.000246 10.499818 M 2.999756 11.500184 L 6.999878 11.500184 M 8.999939 11.500184 L 11.999695 11.500184 M 13.999757 11.500184 L 15.000123 11.500184 M 15.999818 11.500184 L 17.000184 11.500184 M 17.999879 11.500184 L 19.000245 11.500184 M 22.000001 11.500184 L 22.999696 11.500184 M 24.000062 11.500184 L 24.999757 11.500184 M 26.999819 11.500184 L 28.000185 11.500184 M 30.000246 11.500184 L 30.999941 11.500184 M 2.999756 12.499879 L 4.000122 12.499879 M 8.000244 12.499879 L 10.000306 12.499879 M 11.999695 12.499879 L 15.999818 12.499879 M 17.999879 12.499879 L 19.99994 12.499879 M 22.000001 12.499879 L 22.999696 12.499879 M 24.000062 12.499879 L 24.999757 12.499879 M 26.000124 12.499879 L 26.999819 12.499879 M 28.000185 12.499879 L 30.999941 12.499879 M 4.000122 13.500245 L 6.000183 13.500245 M 6.999878 13.500245 L 8.000244 13.500245 M 8.999939 13.500245 L 10.000306 13.500245 M 11 13.500245 L 15.000123 13.500245 M 19.000245 13.500245 L 19.99994 13.500245 M 21.000306 13.500245 L 22.999696 13.500245 M 24.000062 13.500245 L 24.999757 13.500245 M 28.99988 13.500245 L 30.000246 13.500245 M 2.000061 14.49994 L 2.999756 14.49994 M 6.999878 14.49994 L 8.999939 14.49994 M 10.000306 14.49994 L 11.999695 14.49994 M 19.000245 14.49994 L 19.99994 14.49994 M 24.000062 14.49994 L 26.000124 14.49994 M 26.999819 14.49994 L 28.000185 14.49994 M 28.99988 14.49994 L 30.999941 14.49994 M 2.000061 15.500306 L 2.999756 15.500306 M 4.999817 15.500306 L 6.000183 15.500306 M 6.999878 15.500306 L 8.000244 15.500306 M 8.999939 15.500306 L 11 15.500306 M 11.999695 15.500306 L 13.999757 15.500306 M 15.000123 15.500306 L 15.999818 15.500306 M 17.999879 15.500306 L 19.000245 15.500306 M 22.000001 15.500306 L 24.999757 15.500306 M 26.999819 15.500306 L 28.000185 15.500306 M 30.000246 15.500306 L 30.999941 15.500306 M 6.000183 16.500001 L 8.999939 16.500001 M 10.000306 16.500001 L 11 16.500001 M 13.000062 16.500001 L 13.999757 16.500001 M 15.999818 16.500001 L 17.000184 16.500001 M 17.999879 16.500001 L 19.000245 16.500001 M 19.99994 16.500001 L 21.000306 16.500001 M 22.999696 16.500001 L 24.000062 16.500001 M 26.999819 16.500001 L 28.000185 16.500001 M 28.99988 16.500001 L 30.999941 16.500001 M 8.999939 17.499696 L 10.000306 17.499696 M 15.000123 17.499696 L 17.000184 17.499696 M 17.999879 17.499696 L 22.000001 17.499696 M 26.000124 17.499696 L 28.000185 17.499696 M 28.99988 17.499696 L 30.000246 17.499696 M 4.999817 18.500062 L 6.000183 18.500062 M 8.000244 18.500062 L 8.999939 18.500062 M 10.000306 18.500062 L 11.999695 18.500062 M 13.000062 18.500062 L 13.999757 18.500062 M 15.999818 18.500062 L 17.000184 18.500062 M 17.999879 18.500062 L 19.99994 18.500062 M 21.000306 18.500062 L 24.999757 18.500062 M 26.999819 18.500062 L 28.000185 18.500062 M 28.99988 18.500062 L 30.999941 18.500062 M 2.999756 19.499757 L 4.999817 19.499757 M 8.999939 19.499757 L 11 19.499757 M 11.999695 19.499757 L 13.000062 19.499757 M 13.999757 19.499757 L 15.000123 19.499757 M 15.999818 19.499757 L 17.000184 19.499757 M 17.999879 19.499757 L 19.000245 19.499757 M 22.000001 19.499757 L 24.999757 19.499757 M 26.999819 19.499757 L 28.99988 19.499757 M 30.000246 19.499757 L 30.999941 19.499757 M 2.000061 20.500124 L 2.999756 20.500124 M 6.999878 20.500124 L 10.000306 20.500124 M 11 20.500124 L 11.999695 20.500124 M 15.000123 20.500124 L 15.999818 20.500124 M 19.000245 20.500124 L 19.99994 20.500124 M 24.000062 20.500124 L 26.999819 20.500124 M 28.99988 20.500124 L 30.999941 20.500124 M 2.999756 21.499818 L 6.999878 21.499818 M 10.000306 21.499818 L 11 21.499818 M 11.999695 21.499818 L 13.999757 21.499818 M 17.999879 21.499818 L 21.000306 21.499818 M 22.000001 21.499818 L 22.999696 21.499818 M 24.000062 21.499818 L 26.000124 21.499818 M 26.999819 21.499818 L 28.000185 21.499818 M 28.99988 21.499818 L 30.000246 21.499818 M 2.000061 22.500185 L 2.999756 22.500185 M 4.000122 22.500185 L 6.000183 22.500185 M 6.999878 22.500185 L 10.000306 22.500185 M 17.000184 22.500185 L 21.000306 22.500185 M 22.000001 22.500185 L 26.999819 22.500185 M 10.000306 23.49988 L 11.999695 23.49988 M 15.000123 23.49988 L 15.999818 23.49988 M 17.999879 23.49988 L 19.000245 23.49988 M 21.000306 23.49988 L 22.999696 23.49988 M 26.000124 23.49988 L 26.999819 23.49988 M 28.000185 23.49988 L 30.999941 23.49988 M 2.000061 24.500246 L 8.999939 24.500246 M 11.999695 24.500246 L 13.000062 24.500246 M 13.999757 24.500246 L 15.000123 24.500246 M 15.999818 24.500246 L 17.000184 24.500246 M 17.999879 24.500246 L 19.99994 24.500246 M 21.000306 24.500246 L 22.999696 24.500246 M 24.000062 24.500246 L 24.999757 24.500246 M 26.000124 24.500246 L 28.000185 24.500246 M 28.99988 24.500246 L 30.999941 24.500246 M 2.000061 25.499941 L 2.999756 25.499941 M 8.000244 25.499941 L 8.999939 25.499941 M 11.999695 25.499941 L 13.000062 25.499941 M 13.999757 25.499941 L 21.000306 25.499941 M 22.000001 25.499941 L 22.999696 25.499941 M 26.000124 25.499941 L 28.000185 25.499941 M 28.99988 25.499941 L 30.000246 25.499941 M 2.000061 26.500307 L 2.999756 26.500307 M 4.000122 26.500307 L 6.999878 26.500307 M 8.000244 26.500307 L 8.999939 26.500307 M 10.000306 26.500307 L 11 26.500307 M 13.000062 26.500307 L 13.999757 26.500307 M 15.999818 26.500307 L 17.000184 26.500307 M 19.000245 26.500307 L 19.99994 26.500307 M 22.000001 26.500307 L 26.999819 26.500307 M 28.99988 26.500307 L 30.999941 26.500307 M 2.000061 27.500002 L 2.999756 27.500002 M 4.000122 27.500002 L 6.999878 27.500002 M 8.000244 27.500002 L 8.999939 27.500002 M 11 27.500002 L 15.000123 27.500002 M 15.999818 27.500002 L 17.000184 27.500002 M 17.999879 27.500002 L 19.99994 27.500002 M 21.000306 27.500002 L 22.999696 27.500002 M 24.999757 27.500002 L 26.999819 27.500002 M 28.000185 27.500002 L 30.999941 27.500002 M 2.000061 28.499697 L 2.999756 28.499697 M 4.000122 28.499697 L 6.999878 28.499697 M 8.000244 28.499697 L 8.999939 28.499697 M 10.000306 28.499697 L 11 28.499697 M 11.999695 28.499697 L 13.000062 28.499697 M 15.000123 28.499697 L 17.000184 28.499697 M 19.99994 28.499697 L 22.000001 28.499697 M 24.999757 28.499697 L 28.000185 28.499697 M 30.000246 28.499697 L 30.999941 28.499697 M 2.000061 29.500063 L 2.999756 29.500063 M 8.000244 29.500063 L 8.999939 29.500063 M 11 29.500063 L 11.999695 29.500063 M 15.000123 29.500063 L 15.999818 29.500063 M 17.000184 29.500063 L 22.999696 29.500063 M 24.000062 29.500063 L 26.000124 29.500063 M 28.99988 29.500063 L 30.000246 29.500063 M 2.000061 30.499758 L 8.999939 30.499758 M 10.000306 30.499758 L 11 30.499758 M 13.000062 30.499758 L 13.999757 30.499758 M 15.000123 30.499758 L 15.999818 30.499758 M 19.000245 30.499758 L 19.99994 30.499758 M 22.000001 30.499758 L 24.000062 30.499758 M 26.000124 30.499758 L 28.000185 30.499758 M 28.99988 30.499758 L 30.999941 30.499758 " transform="matrix(5.818181,0,0,5.818181,0.000002,-0.000000000000021316)"/></g></svg>